<svg width="20" height="20" viewBox="0 0 20 20" fill="none" xmlns="http://www.w3.org/2000/svg">
<mask id="mask0_3208_12365" style="mask-type:alpha" maskUnits="userSpaceOnUse" x="0" y="0" width="20" height="20">
<rect width="20" height="20" fill="#D9D9D9"/>
</mask>
<g mask="url(#mask0_3208_12365)">
<path d="M10 16.5625C9.76394 16.5625 9.53477 16.5104 9.31255 16.4062C9.09032 16.3021 8.89588 16.1528 8.72921 15.9583L2.35421 8.33333C2.14588 8.08333 2.02088 7.79167 1.97921 7.45833C1.93755 7.125 1.9931 6.8125 2.14588 6.52083L3.70838 3.41667C3.86116 3.13889 4.06602 2.91667 4.32296 2.75C4.57991 2.58333 4.8681 2.5 5.18755 2.5H14.8125C15.132 2.5 15.4202 2.58333 15.6771 2.75C15.9341 2.91667 16.1389 3.13889 16.2917 3.41667L17.8542 6.52083C18.007 6.8125 18.0625 7.125 18.0209 7.45833C17.9792 7.79167 17.8542 8.08333 17.6459 8.33333L11.2709 15.9583C11.1042 16.1528 10.9098 16.3021 10.6875 16.4062C10.4653 16.5104 10.2362 16.5625 10 16.5625ZM8.02088 6.66667H11.9792L10.7292 4.16667H9.27088L8.02088 6.66667ZM9.16671 13.8958V8.33333H4.54171L9.16671 13.8958ZM10.8334 13.8958L15.4584 8.33333H10.8334V13.8958ZM13.8334 6.66667H16.0417L14.7917 4.16667H12.5834L13.8334 6.66667ZM3.95838 6.66667H6.16671L7.41671 4.16667H5.20838L3.95838 6.66667Z" fill="#74879B"/>
</g>
</svg>
