<svg width="20" height="20" viewBox="0 0 20 20" fill="none" xmlns="http://www.w3.org/2000/svg">
<mask id="mask0_3892_191" style="mask-type:alpha" maskUnits="userSpaceOnUse" x="0" y="0" width="20" height="20">
<rect width="20" height="20" fill="#D9D9D9"/>
</mask>
<g mask="url(#mask0_3892_191)">
<path d="M4.16667 17.0106C3.70833 17.0106 3.31597 16.8474 2.98958 16.521C2.66319 16.1946 2.5 15.8023 2.5 15.3439V3.67727C2.5 3.21893 2.66319 2.82657 2.98958 2.50018C3.31597 2.17379 3.70833 2.0106 4.16667 2.0106H7.5C7.73611 2.0106 7.93403 2.09046 8.09375 2.25018C8.25347 2.40991 8.33333 2.60782 8.33333 2.84393C8.33333 3.08004 8.25347 3.27796 8.09375 3.43768C7.93403 3.59741 7.73611 3.67727 7.5 3.67727H4.16667V15.3439H15.8333V12.5523C15.8333 12.3162 15.9132 12.1182 16.0729 11.9585C16.2326 11.7988 16.4306 11.7189 16.6667 11.7189C16.9028 11.7189 17.1007 11.7988 17.2604 11.9585C17.4201 12.1182 17.5 12.3162 17.5 12.5523V15.3439C17.5 15.8023 17.3368 16.1946 17.0104 16.521C16.684 16.8474 16.2917 17.0106 15.8333 17.0106H4.16667ZM13.375 8.67727C12.3472 8.67727 11.4722 8.31268 10.75 7.58352C10.0278 6.85435 9.66667 5.96893 9.66667 4.92727C9.66667 3.8856 10.0312 3.00018 10.7604 2.27102C11.4896 1.54185 12.375 1.17727 13.4167 1.17727C14.4583 1.17727 15.3438 1.54185 16.0729 2.27102C16.8021 3.00018 17.1667 3.8856 17.1667 4.92727C17.1667 5.30227 17.1111 5.66338 17 6.0106C16.8889 6.35782 16.75 6.67727 16.5833 6.96893L18.5417 8.92727C18.6944 9.08004 18.7708 9.27449 18.7708 9.5106C18.7708 9.74671 18.6944 9.94115 18.5417 10.0939C18.3889 10.2467 18.1944 10.3231 17.9583 10.3231C17.7222 10.3231 17.5278 10.2467 17.375 10.0939L15.375 8.09393C15.0833 8.28838 14.7708 8.43421 14.4375 8.53143C14.1042 8.62865 13.75 8.67727 13.375 8.67727ZM13.4167 7.0106C14 7.0106 14.4931 6.80921 14.8958 6.40643C15.2986 6.00366 15.5 5.5106 15.5 4.92727C15.5 4.34393 15.2986 3.85088 14.8958 3.4481C14.4931 3.04532 14 2.84393 13.4167 2.84393C12.8333 2.84393 12.3403 3.04532 11.9375 3.4481C11.5347 3.85088 11.3333 4.34393 11.3333 4.92727C11.3333 5.5106 11.5347 6.00366 11.9375 6.40643C12.3403 6.80921 12.8333 7.0106 13.4167 7.0106Z" fill="#74879B"/>
<path d="M7.2101 10.7575C7.03282 10.2257 7.0869 9.64383 7.35916 9.15376L8.61338 6.89616C8.79602 6.56741 9.26258 6.55039 9.46868 6.86496L10.7798 8.86614C11.0799 9.32409 11.1791 9.88502 11.0543 10.4181L9.99972 14.9229H8.59855L7.2101 10.7575Z" fill="#74879B"/>
<path d="M11.1567 11.91C11.2179 11.7505 11.3189 11.6094 11.4501 11.5001L12.9299 10.2669C13.2556 9.99552 13.75 10.2271 13.75 10.651V12.3713C13.75 12.6681 13.6182 12.9496 13.3902 13.1396L11.25 14.9231H10L11.1567 11.91Z" fill="#74879B"/>
<path d="M7.49293 12.343C7.39976 12.1256 7.23255 11.9483 7.021 11.8425L5.70217 11.1831C5.34142 11.0027 4.92655 11.3018 4.98359 11.701L5.19799 13.2018C5.24057 13.4999 5.41523 13.763 5.67344 13.9179L7.34863 14.923H8.59863L7.49293 12.343Z" fill="#74879B"/>
</g>
</svg>
