<svg width="20" height="20" viewBox="0 0 20 20" fill="none" xmlns="http://www.w3.org/2000/svg">
<mask id="mask0_3892_9221" style="mask-type:alpha" maskUnits="userSpaceOnUse" x="0" y="0" width="20" height="20">
<rect width="20" height="20" fill="#D9D9D9"/>
</mask>
<g mask="url(#mask0_3892_9221)">
<path d="M7.49992 9.99984C7.26381 9.99984 7.06589 9.91998 6.90617 9.76025C6.74645 9.60053 6.66659 9.40262 6.66659 9.1665C6.66659 8.93039 6.74645 8.73248 6.90617 8.57275C7.06589 8.41303 7.26381 8.33317 7.49992 8.33317H12.4999C12.736 8.33317 12.9339 8.41303 13.0937 8.57275C13.2534 8.73248 13.3333 8.93039 13.3333 9.1665C13.3333 9.40262 13.2534 9.60053 13.0937 9.76025C12.9339 9.91998 12.736 9.99984 12.4999 9.99984H7.49992ZM7.49992 6.6665C7.26381 6.6665 7.06589 6.58664 6.90617 6.42692C6.74645 6.2672 6.66659 6.06928 6.66659 5.83317C6.66659 5.59706 6.74645 5.39914 6.90617 5.23942C7.06589 5.0797 7.26381 4.99984 7.49992 4.99984H12.4999C12.736 4.99984 12.9339 5.0797 13.0937 5.23942C13.2534 5.39914 13.3333 5.59706 13.3333 5.83317C13.3333 6.06928 13.2534 6.2672 13.0937 6.42692C12.9339 6.58664 12.736 6.6665 12.4999 6.6665H7.49992ZM4.99992 11.6665H11.2499C11.6527 11.6665 12.0277 11.7533 12.3749 11.9269C12.7221 12.1005 13.0138 12.3471 13.2499 12.6665L14.9999 14.9582V3.33317H4.99992V11.6665ZM4.99992 16.6665H14.2083L11.9374 13.6873C11.8541 13.5762 11.7534 13.4894 11.6353 13.4269C11.5173 13.3644 11.3888 13.3332 11.2499 13.3332H4.99992V16.6665ZM14.9999 18.3332H4.99992C4.54159 18.3332 4.14922 18.17 3.82284 17.8436C3.49645 17.5172 3.33325 17.1248 3.33325 16.6665V3.33317C3.33325 2.87484 3.49645 2.48248 3.82284 2.15609C4.14922 1.8297 4.54159 1.6665 4.99992 1.6665H14.9999C15.4583 1.6665 15.8506 1.8297 16.177 2.15609C16.5034 2.48248 16.6666 2.87484 16.6666 3.33317V16.6665C16.6666 17.1248 16.5034 17.5172 16.177 17.8436C15.8506 18.17 15.4583 18.3332 14.9999 18.3332Z" fill="#74879B"/>
</g>
</svg>
