<svg width="20" height="20" viewBox="0 0 20 20" fill="none" xmlns="http://www.w3.org/2000/svg">
<mask id="mask0_3208_12389" style="mask-type:alpha" maskUnits="userSpaceOnUse" x="0" y="0" width="20" height="20">
<rect width="20" height="20" fill="#D9D9D9"/>
</mask>
<g mask="url(#mask0_3208_12389)">
<path d="M3.33341 16.6668C2.87508 16.6668 2.48272 16.5036 2.15633 16.1772C1.82994 15.8509 1.66675 15.4585 1.66675 15.0002V5.00016C1.66675 4.54183 1.82994 4.14947 2.15633 3.82308C2.48272 3.49669 2.87508 3.3335 3.33341 3.3335H16.6667C17.1251 3.3335 17.5174 3.49669 17.8438 3.82308C18.1702 4.14947 18.3334 4.54183 18.3334 5.00016V15.0002C18.3334 15.4585 18.1702 15.8509 17.8438 16.1772C17.5174 16.5036 17.1251 16.6668 16.6667 16.6668H3.33341ZM3.33341 15.0002H16.6667V5.00016H3.33341V15.0002ZM8.33342 11.6668H5.83342C5.5973 11.6668 5.39939 11.7467 5.23966 11.9064C5.07994 12.0661 5.00008 12.2641 5.00008 12.5002C5.00008 12.7363 5.07994 12.9342 5.23966 13.0939C5.39939 13.2536 5.5973 13.3335 5.83342 13.3335H6.66675C6.66675 13.5696 6.74661 13.7675 6.90633 13.9272C7.06605 14.087 7.26397 14.1668 7.50008 14.1668C7.73619 14.1668 7.93411 14.087 8.09383 13.9272C8.25355 13.7675 8.33342 13.5696 8.33342 13.3335H9.16675C9.40286 13.3335 9.60078 13.2536 9.7605 13.0939C9.92022 12.9342 10.0001 12.7363 10.0001 12.5002V10.0002C10.0001 9.76405 9.92022 9.56613 9.7605 9.40641C9.60078 9.24669 9.40286 9.16683 9.16675 9.16683H6.66675V8.3335H9.16675C9.40286 8.3335 9.60078 8.25363 9.7605 8.09391C9.92022 7.93419 10.0001 7.73627 10.0001 7.50016C10.0001 7.26405 9.92022 7.06613 9.7605 6.90641C9.60078 6.74669 9.40286 6.66683 9.16675 6.66683H8.33342C8.33342 6.43072 8.25355 6.2328 8.09383 6.07308C7.93411 5.91336 7.73619 5.8335 7.50008 5.8335C7.26397 5.8335 7.06605 5.91336 6.90633 6.07308C6.74661 6.2328 6.66675 6.43072 6.66675 6.66683H5.83342C5.5973 6.66683 5.39939 6.74669 5.23966 6.90641C5.07994 7.06613 5.00008 7.26405 5.00008 7.50016V10.0002C5.00008 10.2363 5.07994 10.4342 5.23966 10.5939C5.39939 10.7536 5.5973 10.8335 5.83342 10.8335H8.33342V11.6668ZM13.4792 13.396L14.6459 12.2293C14.7154 12.1599 14.7327 12.0835 14.698 12.0002C14.6633 11.9168 14.5973 11.8752 14.5001 11.8752H12.1667C12.0695 11.8752 12.0036 11.9168 11.9688 12.0002C11.9341 12.0835 11.9515 12.1599 12.0209 12.2293L13.1876 13.396C13.2292 13.4377 13.2779 13.4585 13.3334 13.4585C13.389 13.4585 13.4376 13.4377 13.4792 13.396ZM12.1667 8.3335H14.5001C14.5973 8.3335 14.6633 8.29183 14.698 8.2085C14.7327 8.12516 14.7154 8.04877 14.6459 7.97933L13.4792 6.81266C13.4376 6.771 13.389 6.75016 13.3334 6.75016C13.2779 6.75016 13.2292 6.771 13.1876 6.81266L12.0209 7.97933C11.9515 8.04877 11.9341 8.12516 11.9688 8.2085C12.0036 8.29183 12.0695 8.3335 12.1667 8.3335Z" fill="#74879B"/>
</g>
</svg>
