<svg width="20" height="20" viewBox="0 0 20 20" fill="none" xmlns="http://www.w3.org/2000/svg">
<mask id="mask0_3892_1669" style="mask-type:alpha" maskUnits="userSpaceOnUse" x="0" y="0" width="20" height="20">
<rect width="20" height="20" fill="#D9D9D9"/>
</mask>
<g mask="url(#mask0_3892_1669)">
<path d="M2.50008 16.6668C2.26397 16.6668 2.06605 16.587 1.90633 16.4272C1.74661 16.2675 1.66675 16.0696 1.66675 15.8335V8.68766C1.66675 8.57655 1.68758 8.46891 1.72925 8.36475C1.77091 8.26058 1.83341 8.16683 1.91675 8.0835L6.08342 3.91683C6.16675 3.8335 6.25703 3.77447 6.35425 3.73975C6.45147 3.70502 6.55564 3.68766 6.66675 3.68766C6.77786 3.68766 6.88203 3.70502 6.97925 3.73975C7.07647 3.77447 7.16675 3.8335 7.25008 3.91683L11.4167 8.0835C11.5001 8.16683 11.5626 8.26058 11.6042 8.36475C11.6459 8.46891 11.6667 8.57655 11.6667 8.68766V15.8335C11.6667 16.0696 11.5869 16.2675 11.4272 16.4272C11.2674 16.587 11.0695 16.6668 10.8334 16.6668H2.50008ZM3.33341 15.0002H5.83342V13.3335C5.83342 13.0974 5.91328 12.8995 6.073 12.7397C6.23272 12.58 6.43064 12.5002 6.66675 12.5002C6.90286 12.5002 7.10078 12.58 7.2605 12.7397C7.42022 12.8995 7.50008 13.0974 7.50008 13.3335V15.0002H10.0001V9.021L6.66675 5.68766L3.33341 9.021V15.0002ZM6.66675 10.8335C6.43064 10.8335 6.23272 10.7536 6.073 10.5939C5.91328 10.4342 5.83342 10.2363 5.83342 10.0002C5.83342 9.76405 5.91328 9.56613 6.073 9.40641C6.23272 9.24669 6.43064 9.16683 6.66675 9.16683C6.90286 9.16683 7.10078 9.24669 7.2605 9.40641C7.42022 9.56613 7.50008 9.76405 7.50008 10.0002C7.50008 10.2363 7.42022 10.4342 7.2605 10.5939C7.10078 10.7536 6.90286 10.8335 6.66675 10.8335ZM14.1667 16.6668C13.9306 16.6668 13.7327 16.587 13.573 16.4272C13.4133 16.2675 13.3334 16.0696 13.3334 15.8335V7.81266C13.3334 7.78488 13.2917 7.68766 13.2084 7.521L10.4376 4.75016C10.1737 4.48627 10.1112 4.18419 10.2501 3.84391C10.389 3.50363 10.6459 3.3335 11.0209 3.3335C11.132 3.3335 11.2431 3.3578 11.3542 3.40641C11.4654 3.45502 11.5556 3.51405 11.6251 3.5835L14.7501 6.7085C14.8334 6.79183 14.8959 6.88558 14.9376 6.98975C14.9792 7.09391 15.0001 7.20155 15.0001 7.31266V15.8335C15.0001 16.0696 14.9202 16.2675 14.7605 16.4272C14.6008 16.587 14.4029 16.6668 14.1667 16.6668ZM17.5001 16.6668C17.264 16.6668 17.0661 16.587 16.9063 16.4272C16.7466 16.2675 16.6667 16.0696 16.6667 15.8335V6.43766C16.6667 6.40988 16.6251 6.31266 16.5417 6.146L15.1459 4.75016C14.882 4.48627 14.8195 4.18419 14.9584 3.84391C15.0973 3.50363 15.3542 3.3335 15.7292 3.3335C15.8404 3.3335 15.9515 3.3578 16.0626 3.40641C16.1737 3.45502 16.264 3.51405 16.3334 3.5835L18.0834 5.3335C18.1667 5.41683 18.2292 5.51058 18.2709 5.61475C18.3126 5.71891 18.3334 5.82655 18.3334 5.93766V15.8335C18.3334 16.0696 18.2536 16.2675 18.0938 16.4272C17.9341 16.587 17.7362 16.6668 17.5001 16.6668Z" fill="#74879B"/>
</g>
</svg>
