<svg width="20" height="20" viewBox="0 0 20 20" fill="none" xmlns="http://www.w3.org/2000/svg">
<mask id="mask0_3892_4283" style="mask-type:alpha" maskUnits="userSpaceOnUse" x="0" y="0" width="20" height="20">
<rect width="20" height="20" fill="#D9D9D9"/>
</mask>
<g mask="url(#mask0_3892_4283)">
<path d="M10.0001 13.729C11.3751 12.6179 12.4133 11.5484 13.1147 10.5207C13.8161 9.49289 14.1667 8.52762 14.1667 7.62484C14.1667 6.84706 14.0244 6.18387 13.7397 5.63525C13.4549 5.08664 13.1042 4.6422 12.6876 4.30192C12.2709 3.96164 11.8195 3.71512 11.3334 3.56234C10.8473 3.40956 10.4029 3.33317 10.0001 3.33317C9.5973 3.33317 9.15286 3.40956 8.66675 3.56234C8.18064 3.71512 7.72925 3.96164 7.31258 4.30192C6.89591 4.6422 6.54522 5.08664 6.2605 5.63525C5.97578 6.18387 5.83341 6.84706 5.83341 7.62484C5.83341 8.52762 6.18411 9.49289 6.8855 10.5207C7.58689 11.5484 8.62508 12.6179 10.0001 13.729ZM10.0001 15.5415C9.87508 15.5415 9.75703 15.5241 9.64592 15.4894C9.5348 15.4547 9.43064 15.4026 9.33342 15.3332C7.5973 13.9859 6.30216 12.6734 5.448 11.3957C4.59383 10.1179 4.16675 8.86095 4.16675 7.62484C4.16675 6.63873 4.34383 5.77414 4.698 5.03109C5.05216 4.28803 5.50703 3.6665 6.06258 3.1665C6.61814 2.6665 7.24314 2.2915 7.93758 2.0415C8.63203 1.7915 9.31953 1.6665 10.0001 1.6665C10.6806 1.6665 11.3681 1.7915 12.0626 2.0415C12.757 2.2915 13.382 2.6665 13.9376 3.1665C14.4931 3.6665 14.948 4.28803 15.3022 5.03109C15.6563 5.77414 15.8334 6.63873 15.8334 7.62484C15.8334 8.86095 15.4063 10.1179 14.5522 11.3957C13.698 12.6734 12.4029 13.9859 10.6667 15.3332C10.5834 15.4026 10.4827 15.4547 10.3647 15.4894C10.2466 15.5241 10.1251 15.5415 10.0001 15.5415ZM10.0001 9.1665C10.4584 9.1665 10.8508 9.00331 11.1772 8.67692C11.5036 8.35053 11.6667 7.95817 11.6667 7.49984C11.6667 7.0415 11.5036 6.64914 11.1772 6.32275C10.8508 5.99637 10.4584 5.83317 10.0001 5.83317C9.54175 5.83317 9.14939 5.99637 8.823 6.32275C8.49661 6.64914 8.33341 7.0415 8.33341 7.49984C8.33341 7.95817 8.49661 8.35053 8.823 8.67692C9.14939 9.00331 9.54175 9.1665 10.0001 9.1665ZM5.00008 18.3332C4.76397 18.3332 4.56605 18.2533 4.40633 18.0936C4.24661 17.9339 4.16675 17.7359 4.16675 17.4998C4.16675 17.2637 4.24661 17.0658 4.40633 16.9061C4.56605 16.7464 4.76397 16.6665 5.00008 16.6665H15.0001C15.2362 16.6665 15.4341 16.7464 15.5938 16.9061C15.7536 17.0658 15.8334 17.2637 15.8334 17.4998C15.8334 17.7359 15.7536 17.9339 15.5938 18.0936C15.4341 18.2533 15.2362 18.3332 15.0001 18.3332H5.00008Z" fill="#74879B"/>
</g>
</svg>
