<svg width="20" height="20" viewBox="0 0 20 20" fill="none" xmlns="http://www.w3.org/2000/svg">
<mask id="mask0_3892_10905" style="mask-type:alpha" maskUnits="userSpaceOnUse" x="0" y="0" width="20" height="20">
<rect width="20" height="20" fill="#D9D9D9"/>
</mask>
<g mask="url(#mask0_3892_10905)">
<path d="M5.00008 15.8333H10.0001V15H5.00008V15.8333ZM5.62508 8.33333H9.37508C9.54175 8.33333 9.68758 8.27083 9.81258 8.14583C9.93758 8.02083 10.0001 7.875 10.0001 7.70833C10.0001 7.54167 9.93758 7.39583 9.81258 7.27083C9.68758 7.14583 9.54175 7.08333 9.37508 7.08333H5.62508C5.45841 7.08333 5.31258 7.14583 5.18758 7.27083C5.06258 7.39583 5.00008 7.54167 5.00008 7.70833C5.00008 7.875 5.06258 8.02083 5.18758 8.14583C5.31258 8.27083 5.45841 8.33333 5.62508 8.33333ZM5.62508 6.25H9.37508C9.54175 6.25 9.68758 6.1875 9.81258 6.0625C9.93758 5.9375 10.0001 5.79167 10.0001 5.625C10.0001 5.45833 9.93758 5.3125 9.81258 5.1875C9.68758 5.0625 9.54175 5 9.37508 5H5.62508C5.45841 5 5.31258 5.0625 5.18758 5.1875C5.06258 5.3125 5.00008 5.45833 5.00008 5.625C5.00008 5.79167 5.06258 5.9375 5.18758 6.0625C5.31258 6.1875 5.45841 6.25 5.62508 6.25ZM13.3334 9.16667V7.5H15.0001V5.83333H13.3334V4.16667H15.0001C15.4584 4.16667 15.8508 4.32986 16.1772 4.65625C16.5036 4.98264 16.6667 5.375 16.6667 5.83333H18.3334C18.5695 5.83333 18.7674 5.91319 18.9272 6.07292C19.0869 6.23264 19.1667 6.43056 19.1667 6.66667C19.1667 6.90278 19.0869 7.10069 18.9272 7.26042C18.7674 7.42014 18.5695 7.5 18.3334 7.5H16.6667C16.6667 7.95833 16.5036 8.35069 16.1772 8.67708C15.8508 9.00347 15.4584 9.16667 15.0001 9.16667H13.3334ZM10.0001 13.3333H8.33341V9.16667H11.6667V4.16667H5.00008C4.54175 4.16667 4.14939 4.32986 3.823 4.65625C3.49661 4.98264 3.33341 5.375 3.33341 5.83333V7.5C3.33341 7.95833 3.49661 8.35069 3.823 8.67708C4.14939 9.00347 4.54175 9.16667 5.00008 9.16667H6.66675V13.3333H5.00008V10.8333C4.08341 10.8333 3.29869 10.5069 2.64591 9.85417C1.99314 9.20139 1.66675 8.41667 1.66675 7.5V5.83333C1.66675 4.91667 1.99314 4.13194 2.64591 3.47917C3.29869 2.82639 4.08341 2.5 5.00008 2.5H11.6667C12.1251 2.5 12.5174 2.66319 12.8438 2.98958C13.1702 3.31597 13.3334 3.70833 13.3334 4.16667V9.16667C13.3334 9.625 13.1702 10.0174 12.8438 10.3438C12.5174 10.6701 12.1251 10.8333 11.6667 10.8333H10.0001V13.3333ZM4.58341 17.5C4.23619 17.5 3.94105 17.3785 3.698 17.1354C3.45494 16.8924 3.33341 16.5972 3.33341 16.25V14.5833C3.33341 14.2361 3.45494 13.941 3.698 13.6979C3.94105 13.4549 4.23619 13.3333 4.58341 13.3333H10.4167C10.764 13.3333 11.0591 13.4549 11.3022 13.6979C11.5452 13.941 11.6667 14.2361 11.6667 14.5833V16.25C11.6667 16.5972 11.5452 16.8924 11.3022 17.1354C11.0591 17.3785 10.764 17.5 10.4167 17.5H4.58341Z" fill="#74879B"/>
</g>
</svg>
