<svg width="20" height="20" viewBox="0 0 20 20" fill="none" xmlns="http://www.w3.org/2000/svg">
<mask id="mask0_3892_669" style="mask-type:alpha" maskUnits="userSpaceOnUse" x="0" y="0" width="20" height="20">
<rect width="20" height="20" fill="#D9D9D9"/>
</mask>
<g mask="url(#mask0_3892_669)">
<path d="M3.31242 16.4793C2.61797 16.4793 2.03117 16.2363 1.552 15.7502C1.07284 15.2641 0.833252 14.6738 0.833252 13.9793V8.97933C0.833252 8.521 0.996446 8.12863 1.32284 7.80225C1.64922 7.47586 2.04159 7.31266 2.49992 7.31266H6.66658V3.97933C6.66658 3.74322 6.74645 3.5453 6.90617 3.38558C7.06589 3.22586 7.26381 3.146 7.49992 3.146H10.8333C11.5277 3.146 12.118 3.38905 12.6041 3.87516C13.0902 4.36127 13.3333 4.95155 13.3333 5.646L13.3124 8.97933H14.1458V8.00016C14.1596 7.77794 14.2083 7.56266 14.2916 7.35433C14.3749 7.146 14.493 6.96544 14.6458 6.81266L15.4583 6.021C15.6527 5.82655 15.8853 5.75016 16.1562 5.79183C16.427 5.8335 16.6319 5.97933 16.7708 6.22933L19.3333 11.0835C19.486 11.3613 19.4826 11.6356 19.3228 11.9064C19.1631 12.1772 18.9235 12.3127 18.6041 12.3127H15.8124C15.3541 12.3127 14.9617 12.1495 14.6353 11.8231C14.3089 11.4967 14.1458 11.1043 14.1458 10.646H13.3124V12.1043C13.5902 12.3404 13.802 12.6217 13.9478 12.9481C14.0937 13.2745 14.1666 13.6182 14.1666 13.9793C14.1666 14.6738 13.9235 15.2641 13.4374 15.7502C12.9513 16.2363 12.361 16.4793 11.6666 16.4793C11.1388 16.4793 10.6596 16.3266 10.2291 16.021C9.79853 15.7154 9.48603 15.3127 9.29159 14.8127H5.68742C5.49297 15.3127 5.18047 15.7154 4.74992 16.021C4.31936 16.3266 3.8402 16.4793 3.31242 16.4793ZM3.31242 14.8127C3.54853 14.8127 3.74992 14.7328 3.91659 14.5731C4.08325 14.4134 4.16659 14.2154 4.16659 13.9793C4.16659 13.7432 4.08672 13.5453 3.927 13.3856C3.76728 13.2259 3.56936 13.146 3.33325 13.146C3.09714 13.146 2.89922 13.2259 2.7395 13.3856C2.57978 13.5453 2.49992 13.7432 2.49992 13.9793C2.49992 14.2154 2.57631 14.4134 2.72909 14.5731C2.88186 14.7328 3.07631 14.8127 3.31242 14.8127ZM11.6666 14.8127C11.9027 14.8127 12.1006 14.7328 12.2603 14.5731C12.4201 14.4134 12.4999 14.2154 12.4999 13.9793C12.4999 13.7432 12.4201 13.5453 12.2603 13.3856C12.1006 13.2259 11.9027 13.146 11.6666 13.146C11.4305 13.146 11.2326 13.2259 11.0728 13.3856C10.9131 13.5453 10.8333 13.7432 10.8333 13.9793C10.8333 14.2154 10.9131 14.4134 11.0728 14.5731C11.2326 14.7328 11.4305 14.8127 11.6666 14.8127ZM6.66658 13.146V8.97933H2.49992V11.6252C2.63881 11.5696 2.77422 11.5314 2.90617 11.5106C3.03811 11.4897 3.18047 11.4793 3.33325 11.4793C3.86103 11.4793 4.3402 11.6321 4.77075 11.9377C5.20131 12.2432 5.50686 12.646 5.68742 13.146H6.66658ZM8.33325 13.146H9.29159C9.47214 12.646 9.78117 12.2432 10.2187 11.9377C10.6562 11.6321 11.1388 11.4793 11.6666 11.4793V10.646H8.33325V13.146ZM17.2291 10.646L15.8333 8.00016V10.646H17.2291ZM8.33325 8.97933H11.6666V5.646C11.6666 5.40988 11.5867 5.21197 11.427 5.05225C11.2673 4.89252 11.0694 4.81266 10.8333 4.81266H8.33325V8.97933ZM6.66658 13.146V11.4793V11.6252V8.97933V13.146Z" fill="#74879B"/>
</g>
</svg>
