<svg width="20" height="20" viewBox="0 0 20 20" fill="none" xmlns="http://www.w3.org/2000/svg">
<mask id="mask0_3892_10020" style="mask-type:alpha" maskUnits="userSpaceOnUse" x="0" y="0" width="20" height="20">
<rect width="20" height="20" fill="#D9D9D9"/>
</mask>
<g mask="url(#mask0_3892_10020)">
<path d="M6.75008 12.2915C6.94453 12.9582 7.24661 13.4964 7.65633 13.9061C8.06605 14.3158 8.5973 14.5971 9.25008 14.7498V15.104C9.25008 15.2984 9.323 15.4686 9.46883 15.6144C9.61467 15.7603 9.7848 15.8332 9.97925 15.8332C10.1737 15.8332 10.3438 15.7603 10.4897 15.6144C10.6355 15.4686 10.7084 15.2984 10.7084 15.104V14.7915C11.4029 14.6665 12.0001 14.3957 12.5001 13.979C13.0001 13.5623 13.2501 12.9443 13.2501 12.1248C13.2501 11.5415 13.0834 11.0068 12.7501 10.5207C12.4167 10.0346 11.7501 9.61095 10.7501 9.24984C9.91675 8.97206 9.34036 8.729 9.02092 8.52067C8.70147 8.31234 8.54175 8.02762 8.54175 7.6665C8.54175 7.30539 8.67022 7.02067 8.92717 6.81234C9.18411 6.604 9.55564 6.49984 10.0417 6.49984C10.4862 6.49984 10.8334 6.60748 11.0834 6.82275C11.3334 7.03803 11.514 7.30539 11.6251 7.62484L12.9584 7.08317C12.8056 6.59706 12.5244 6.17345 12.1147 5.81234C11.7049 5.45123 11.2501 5.24984 10.7501 5.20817V4.89567C10.7501 4.70123 10.6772 4.53109 10.5313 4.38525C10.3855 4.23942 10.2154 4.1665 10.0209 4.1665C9.82647 4.1665 9.65633 4.23942 9.5105 4.38525C9.36467 4.53109 9.29175 4.70123 9.29175 4.89567V5.20817C8.5973 5.36095 8.05564 5.6665 7.66675 6.12484C7.27786 6.58317 7.08342 7.09706 7.08342 7.6665C7.08342 8.31928 7.27439 8.84706 7.65633 9.24984C8.03828 9.65262 8.63897 9.99984 9.45842 10.2915C10.3334 10.6109 10.9411 10.8957 11.2813 11.1457C11.6216 11.3957 11.7917 11.7221 11.7917 12.1248C11.7917 12.5832 11.6286 12.92 11.3022 13.1353C10.9758 13.3505 10.5834 13.4582 10.1251 13.4582C9.66675 13.4582 9.2605 13.3158 8.90633 13.0311C8.55217 12.7464 8.29175 12.3193 8.12508 11.7498L6.75008 12.2915ZM10.0001 18.3332C8.8473 18.3332 7.76397 18.1144 6.75008 17.6769C5.73619 17.2394 4.85425 16.6457 4.10425 15.8957C3.35425 15.1457 2.7605 14.2637 2.323 13.2498C1.8855 12.2359 1.66675 11.1526 1.66675 9.99984C1.66675 8.84706 1.8855 7.76373 2.323 6.74984C2.7605 5.73595 3.35425 4.854 4.10425 4.104C4.85425 3.354 5.73619 2.76025 6.75008 2.32275C7.76397 1.88525 8.8473 1.6665 10.0001 1.6665C11.1529 1.6665 12.2362 1.88525 13.2501 2.32275C14.264 2.76025 15.1459 3.354 15.8959 4.104C16.6459 4.854 17.2397 5.73595 17.6772 6.74984C18.1147 7.76373 18.3334 8.84706 18.3334 9.99984C18.3334 11.1526 18.1147 12.2359 17.6772 13.2498C17.2397 14.2637 16.6459 15.1457 15.8959 15.8957C15.1459 16.6457 14.264 17.2394 13.2501 17.6769C12.2362 18.1144 11.1529 18.3332 10.0001 18.3332ZM10.0001 16.6665C11.8612 16.6665 13.4376 16.0207 14.7292 14.729C16.0209 13.4373 16.6667 11.8609 16.6667 9.99984C16.6667 8.13873 16.0209 6.56234 14.7292 5.27067C13.4376 3.979 11.8612 3.33317 10.0001 3.33317C8.13897 3.33317 6.56258 3.979 5.27092 5.27067C3.97925 6.56234 3.33341 8.13873 3.33341 9.99984C3.33341 11.8609 3.97925 13.4373 5.27092 14.729C6.56258 16.0207 8.13897 16.6665 10.0001 16.6665Z" fill="#74879B"/>
</g>
</svg>
