<svg width="20" height="20" viewBox="0 0 20 20" fill="none" xmlns="http://www.w3.org/2000/svg">
<mask id="mask0_3892_622" style="mask-type:alpha" maskUnits="userSpaceOnUse" x="0" y="0" width="20" height="20">
<rect width="20" height="20" fill="#D9D9D9"/>
</mask>
<g mask="url(#mask0_3892_622)">
<path d="M5 18.3332C4.30556 18.3332 3.71528 18.0901 3.22917 17.604C2.74306 17.1179 2.5 16.5276 2.5 15.8332V14.9998C2.5 14.5415 2.66319 14.1491 2.98958 13.8228C3.31597 13.4964 3.70833 13.3332 4.16667 13.3332H5V3.33317C5 2.87484 5.16319 2.48248 5.48958 2.15609C5.81597 1.8297 6.20833 1.6665 6.66667 1.6665H15.8333C16.2917 1.6665 16.684 1.8297 17.0104 2.15609C17.3368 2.48248 17.5 2.87484 17.5 3.33317V9.24984C17.2222 9.18039 16.941 9.15956 16.6563 9.18734C16.3715 9.21512 16.0972 9.28456 15.8333 9.39567V3.33317H6.66667V13.3332H11.6667L10 14.9998H4.16667V15.8332C4.16667 16.0693 4.24653 16.2672 4.40625 16.4269C4.56597 16.5866 4.76389 16.6665 5 16.6665H10V18.3332H5ZM12.9167 17.0832H13.7917L17.0208 13.8748L17.8958 14.7498L14.5625 18.0832C14.4792 18.1665 14.3854 18.229 14.2812 18.2707C14.1771 18.3123 14.0694 18.3332 13.9583 18.3332H12.5C12.2639 18.3332 12.066 18.2533 11.9062 18.0936C11.7465 17.9339 11.6667 17.7359 11.6667 17.4998V16.0415C11.6667 15.9304 11.6875 15.8228 11.7292 15.7186C11.7708 15.6144 11.8333 15.5207 11.9167 15.4373L15.25 12.104L16.1458 12.9998L12.9167 16.2082V17.0832ZM17.8958 14.7498L15.25 12.104L16.2917 11.0623C16.4444 10.9096 16.6389 10.8332 16.875 10.8332C17.1111 10.8332 17.3056 10.9096 17.4583 11.0623L18.9375 12.5415C19.0903 12.6943 19.1667 12.8887 19.1667 13.1248C19.1667 13.3609 19.0903 13.5554 18.9375 13.7082L17.8958 14.7498ZM8.33333 7.49984C8.09722 7.49984 7.89931 7.41998 7.73958 7.26025C7.57986 7.10053 7.5 6.90262 7.5 6.6665C7.5 6.43039 7.57986 6.23248 7.73958 6.07275C7.89931 5.91303 8.09722 5.83317 8.33333 5.83317H14.1667C14.4028 5.83317 14.6007 5.91303 14.7604 6.07275C14.9201 6.23248 15 6.43039 15 6.6665C15 6.90262 14.9201 7.10053 14.7604 7.26025C14.6007 7.41998 14.4028 7.49984 14.1667 7.49984H8.33333ZM8.33333 9.99984C8.09722 9.99984 7.89931 9.91998 7.73958 9.76025C7.57986 9.60053 7.5 9.40262 7.5 9.1665C7.5 8.93039 7.57986 8.73248 7.73958 8.57275C7.89931 8.41303 8.09722 8.33317 8.33333 8.33317H14.1667C14.4028 8.33317 14.6007 8.41303 14.7604 8.57275C14.9201 8.73248 15 8.93039 15 9.1665C15 9.40262 14.9201 9.60053 14.7604 9.76025C14.6007 9.91998 14.4028 9.99984 14.1667 9.99984H8.33333Z" fill="#74879B"/>
</g>
</svg>
