<svg width="20" height="20" viewBox="0 0 20 20" fill="none" xmlns="http://www.w3.org/2000/svg">
<mask id="mask0_3892_8229" style="mask-type:alpha" maskUnits="userSpaceOnUse" x="0" y="0" width="20" height="20">
<rect width="20" height="20" fill="#D9D9D9"/>
</mask>
<g mask="url(#mask0_3892_8229)">
<path d="M8.79172 15.1666L13.1042 9.99995H9.77089L10.3751 5.27078L6.52089 10.8333H9.41672L8.79172 15.1666ZM7.50006 12.5H4.91672C4.58339 12.5 4.33686 12.3506 4.17714 12.052C4.01742 11.7534 4.03478 11.4652 4.22922 11.1875L10.4584 2.22912C10.5973 2.03467 10.7778 1.89926 11.0001 1.82287C11.2223 1.74648 11.4514 1.74995 11.6876 1.83328C11.9237 1.91662 12.0973 2.06245 12.2084 2.27078C12.3195 2.47912 12.3612 2.70134 12.3334 2.93745L11.6667 8.33328H14.8959C15.257 8.33328 15.5105 8.49301 15.6563 8.81245C15.8021 9.1319 15.757 9.43051 15.5209 9.70828L8.66672 17.9166C8.51394 18.0972 8.32644 18.2152 8.10422 18.2708C7.882 18.3263 7.66672 18.3055 7.45839 18.2083C7.25006 18.1111 7.08686 17.9618 6.96881 17.7604C6.85075 17.559 6.80561 17.3402 6.83339 17.1041L7.50006 12.5Z" fill="#74879B"/>
</g>
</svg>
