<svg width="20" height="20" viewBox="0 0 20 20" fill="none" xmlns="http://www.w3.org/2000/svg">
<mask id="mask0_3892_10501" style="mask-type:alpha" maskUnits="userSpaceOnUse" x="0" y="0" width="20" height="20">
<rect width="20" height="20" fill="#D9D9D9"/>
</mask>
<g mask="url(#mask0_3892_10501)">
<path d="M2.50003 15C2.15281 15 1.90281 14.8472 1.75003 14.5417C1.59725 14.2361 1.62503 13.9444 1.83336 13.6667L5.1667 9.22917C5.33336 9.00694 5.55559 8.89583 5.83336 8.89583C6.11114 8.89583 6.33336 9.00694 6.50003 9.22917L9.58336 13.3333H15.8334L11.6667 7.79167L9.58336 10.5417L8.5417 9.16667L11 5.89583C11.1667 5.67361 11.3889 5.5625 11.6667 5.5625C11.9445 5.5625 12.1667 5.67361 12.3334 5.89583L18.1667 13.6667C18.375 13.9444 18.4028 14.2361 18.25 14.5417C18.0973 14.8472 17.8473 15 17.5 15H2.50003ZM4.1667 13.3333H7.50003L5.83336 11.1042L4.1667 13.3333Z" fill="#74879B"/>
</g>
</svg>
