<svg width="10" height="10" viewBox="0 0 10 10" fill="none" xmlns="http://www.w3.org/2000/svg">
<path d="M5.00305 9.66683C5.64033 9.66683 6.24077 9.54354 6.80439 9.29696C7.36801 9.05357 7.86438 8.71732 8.2935 8.28821C8.72262 7.85909 9.05887 7.36432 9.30225 6.8039C9.54563 6.24028 9.66732 5.63824 9.66732 4.99776C9.66732 4.36049 9.54403 3.76004 9.29744 3.19642C9.05406 2.6328 8.71781 2.13644 8.28869 1.70732C7.85958 1.2782 7.36321 0.941948 6.79959 0.698567C6.23597 0.455187 5.63552 0.333496 4.99825 0.333496C4.36098 0.333496 3.76053 0.455187 3.19691 0.698567C2.63649 0.941948 2.14013 1.2782 1.70781 1.70732C1.27869 2.13644 0.942436 2.6328 0.699056 3.19642C0.455675 3.76004 0.333984 4.36049 0.333984 4.99776C0.333984 5.63824 0.455675 6.24028 0.699056 6.8039C0.945639 7.36432 1.28349 7.85909 1.71261 8.28821C2.14173 8.71732 2.63649 9.05357 3.19691 9.29696C3.76053 9.54354 4.36258 9.66683 5.00305 9.66683ZM5.00305 8.81179C4.47466 8.81179 3.97989 8.71252 3.51875 8.51397C3.05761 8.31863 2.65251 8.04643 2.30345 7.69737C1.95439 7.34831 1.68219 6.94321 1.48684 6.48206C1.2915 6.02092 1.19382 5.52615 1.19382 4.99776C1.19382 4.46937 1.2915 3.9746 1.48684 3.51346C1.68219 3.05232 1.95439 2.64721 2.30345 2.29816C2.65251 1.9491 3.05601 1.67689 3.51395 1.48155C3.97509 1.2862 4.46986 1.18853 4.99825 1.18853C5.52664 1.18853 6.02141 1.2862 6.48255 1.48155C6.9469 1.67689 7.3536 1.9491 7.70266 2.29816C8.05172 2.64721 8.32392 3.05232 8.51927 3.51346C8.71461 3.9746 8.81228 4.46937 8.81228 4.99776C8.81228 5.52615 8.71461 6.02092 8.51927 6.48206C8.32392 6.94321 8.05172 7.34831 7.70266 7.69737C7.3536 8.04643 6.9485 8.31863 6.48736 8.51397C6.02621 8.71252 5.53145 8.81179 5.00305 8.81179ZM4.20566 7.51483H6.04543C6.1415 7.51483 6.22316 7.48281 6.29041 7.41876C6.35766 7.35471 6.39128 7.27465 6.39128 7.17858C6.39128 7.08891 6.35766 7.01206 6.29041 6.94801C6.22316 6.88076 6.1415 6.84714 6.04543 6.84714H5.51223V4.62789C5.51223 4.49659 5.48021 4.39251 5.41616 4.31565C5.35211 4.23559 5.25924 4.19557 5.13755 4.19557H4.28252C4.18645 4.19557 4.10479 4.22759 4.03754 4.29164C3.97029 4.35568 3.93666 4.43414 3.93666 4.52701C3.93666 4.62629 3.97029 4.70795 4.03754 4.77199C4.10479 4.83284 4.18645 4.86326 4.28252 4.86326H4.75327V6.84714H4.20566C4.10959 6.84714 4.02793 6.88076 3.96068 6.94801C3.89343 7.01206 3.8598 7.08891 3.8598 7.17858C3.8598 7.27465 3.89343 7.35471 3.96068 7.41876C4.02793 7.48281 4.10959 7.51483 4.20566 7.51483ZM4.96462 3.46542C5.13435 3.46542 5.27686 3.40778 5.39214 3.29249C5.51063 3.17401 5.56987 3.0315 5.56987 2.86498C5.56987 2.69525 5.51063 2.55114 5.39214 2.43266C5.27686 2.31417 5.13435 2.25492 4.96462 2.25492C4.7981 2.25492 4.65559 2.31417 4.53711 2.43266C4.42182 2.55114 4.36418 2.69525 4.36418 2.86498C4.36418 3.0315 4.42182 3.17401 4.53711 3.29249C4.65559 3.40778 4.7981 3.46542 4.96462 3.46542Z" fill="#595A5F"/>
</svg>
