<svg width="20" height="20" viewBox="0 0 20 20" fill="none" xmlns="http://www.w3.org/2000/svg">
<mask id="mask0_3887_5726" style="mask-type:alpha" maskUnits="userSpaceOnUse" x="0" y="0" width="20" height="20">
<rect width="20" height="20" fill="#D9D9D9"/>
</mask>
<g mask="url(#mask0_3887_5726)">
<path d="M2.50028 15C2.15305 15 1.90305 14.8472 1.75028 14.5417C1.5975 14.2361 1.62528 13.9444 1.83361 13.6667L5.16694 9.22917C5.25028 9.11806 5.35097 9.03472 5.46903 8.97917C5.58708 8.92361 5.70861 8.89583 5.83361 8.89583C5.95861 8.89583 6.08014 8.92361 6.19819 8.97917C6.31625 9.03472 6.41694 9.11806 6.50028 9.22917L9.58361 13.3333H15.8336L11.6669 7.79167L9.58361 10.5417L8.54194 9.16667L11.0003 5.89583C11.0836 5.78472 11.1843 5.70139 11.3024 5.64583C11.4204 5.59028 11.5419 5.5625 11.6669 5.5625C11.7919 5.5625 11.9135 5.59028 12.0315 5.64583C12.1496 5.70139 12.2503 5.78472 12.3336 5.89583L18.1669 13.6667C18.3753 13.9444 18.4031 14.2361 18.2503 14.5417C18.0975 14.8472 17.8475 15 17.5003 15H2.50028ZM9.58361 13.3333H15.8336H9.33361H10.7607H9.58361ZM4.16694 13.3333H7.50028L5.83361 11.1042L4.16694 13.3333Z" fill="#74879B"/>
</g>
</svg>
