<svg width="20" height="20" viewBox="0 0 20 20" fill="none" xmlns="http://www.w3.org/2000/svg">
<mask id="mask0_3887_3952" style="mask-type:alpha" maskUnits="userSpaceOnUse" x="0" y="0" width="20" height="20">
<rect width="20" height="20" fill="#D9D9D9"/>
</mask>
<g mask="url(#mask0_3887_3952)">
<path d="M1.66699 17.5V7.5L8.33366 2.5L12.8128 5.875C12.4656 5.91667 12.1392 5.99653 11.8337 6.11458C11.5281 6.23264 11.2364 6.38889 10.9587 6.58333L8.33366 4.58333L3.33366 8.33333V15.8333H6.66699V17.5H1.66699ZM8.33366 17.5V15.9167C8.33366 15.625 8.40658 15.3507 8.55241 15.0938C8.69824 14.8368 8.89616 14.6319 9.14616 14.4792C9.78505 14.1042 10.4552 13.8194 11.1566 13.625C11.858 13.4306 12.5837 13.3333 13.3337 13.3333C14.0837 13.3333 14.8094 13.4306 15.5107 13.625C16.2121 13.8194 16.8823 14.1042 17.5212 14.4792C17.7712 14.6319 17.9691 14.8368 18.1149 15.0938C18.2607 15.3507 18.3337 15.625 18.3337 15.9167V17.5H8.33366ZM10.1253 15.8333H16.542C16.0559 15.5556 15.542 15.3472 15.0003 15.2083C14.4587 15.0694 13.9031 15 13.3337 15C12.7642 15 12.2087 15.0694 11.667 15.2083C11.1253 15.3472 10.6114 15.5556 10.1253 15.8333ZM13.3337 12.5C12.6392 12.5 12.0489 12.2569 11.5628 11.7708C11.0767 11.2847 10.8337 10.6944 10.8337 10C10.8337 9.30556 11.0767 8.71528 11.5628 8.22917C12.0489 7.74306 12.6392 7.5 13.3337 7.5C14.0281 7.5 14.6184 7.74306 15.1045 8.22917C15.5906 8.71528 15.8337 9.30556 15.8337 10C15.8337 10.6944 15.5906 11.2847 15.1045 11.7708C14.6184 12.2569 14.0281 12.5 13.3337 12.5ZM13.3337 10.8333C13.5698 10.8333 13.7677 10.7535 13.9274 10.5938C14.0871 10.434 14.167 10.2361 14.167 10C14.167 9.76389 14.0871 9.56597 13.9274 9.40625C13.7677 9.24653 13.5698 9.16667 13.3337 9.16667C13.0975 9.16667 12.8996 9.24653 12.7399 9.40625C12.5802 9.56597 12.5003 9.76389 12.5003 10C12.5003 10.2361 12.5802 10.434 12.7399 10.5938C12.8996 10.7535 13.0975 10.8333 13.3337 10.8333Z" fill="#74879B"/>
</g>
</svg>
