<svg width="20" height="20" viewBox="0 0 20 20" fill="none" xmlns="http://www.w3.org/2000/svg">
<mask id="mask0_3218_24165" style="mask-type:alpha" maskUnits="userSpaceOnUse" x="0" y="0" width="20" height="20">
<rect width="20" height="20" fill="#D9D9D9"/>
</mask>
<g mask="url(#mask0_3218_24165)">
<path d="M3.31217 16.4793C2.61773 16.4793 2.03092 16.2363 1.55176 15.7502C1.07259 15.2641 0.833008 14.6738 0.833008 13.9793V8.97933C0.833008 8.521 0.996202 8.12863 1.32259 7.80225C1.64898 7.47586 2.04134 7.31266 2.49967 7.31266H6.66634V3.97933C6.66634 3.74322 6.7462 3.5453 6.90592 3.38558C7.06565 3.22586 7.26356 3.146 7.49967 3.146H10.833C11.5275 3.146 12.1143 3.38905 12.5934 3.87516C13.0726 4.36127 13.3122 4.95155 13.3122 5.646V8.97933H14.1455V8.00016C14.1455 7.77794 14.1906 7.56266 14.2809 7.35433C14.3712 7.146 14.4927 6.96544 14.6455 6.81266L15.458 6.021C15.6525 5.82655 15.8851 5.75016 16.1559 5.79183C16.4268 5.8335 16.6316 5.97933 16.7705 6.22933L19.333 11.0835C19.4858 11.3613 19.4823 11.6356 19.3226 11.9064C19.1629 12.1772 18.9233 12.3127 18.6038 12.3127H15.8122C15.3538 12.3127 14.9615 12.1495 14.6351 11.8231C14.3087 11.4967 14.1455 11.1043 14.1455 10.646H13.3122V12.1043C13.59 12.3404 13.8018 12.6217 13.9476 12.9481C14.0934 13.2745 14.1663 13.6182 14.1663 13.9793C14.1663 14.6738 13.9233 15.2641 13.4372 15.7502C12.9511 16.2363 12.3608 16.4793 11.6663 16.4793C11.1386 16.4793 10.6594 16.3266 10.2288 16.021C9.79829 15.7154 9.48579 15.3127 9.29134 14.8127H5.68717C5.49273 15.3127 5.18023 15.7154 4.74967 16.021C4.31912 16.3266 3.83995 16.4793 3.31217 16.4793ZM3.31217 14.8127C3.54829 14.8127 3.74967 14.7328 3.91634 14.5731C4.08301 14.4134 4.16634 14.2154 4.16634 13.9793C4.16634 13.7432 4.08648 13.5453 3.92676 13.3856C3.76704 13.2259 3.56912 13.146 3.33301 13.146C3.0969 13.146 2.89898 13.2259 2.73926 13.3856C2.57954 13.5453 2.49967 13.7432 2.49967 13.9793C2.49967 14.2154 2.57606 14.4134 2.72884 14.5731C2.88162 14.7328 3.07606 14.8127 3.31217 14.8127ZM11.6663 14.8127C11.9025 14.8127 12.1004 14.7328 12.2601 14.5731C12.4198 14.4134 12.4997 14.2154 12.4997 13.9793C12.4997 13.7432 12.4198 13.5453 12.2601 13.3856C12.1004 13.2259 11.9025 13.146 11.6663 13.146C11.4302 13.146 11.2323 13.2259 11.0726 13.3856C10.9129 13.5453 10.833 13.7432 10.833 13.9793C10.833 14.2154 10.9129 14.4134 11.0726 14.5731C11.2323 14.7328 11.4302 14.8127 11.6663 14.8127ZM6.66634 13.146V8.97933H2.49967V11.6252C2.63856 11.5696 2.77398 11.5314 2.90592 11.5106C3.03787 11.4897 3.18023 11.4793 3.33301 11.4793C3.86079 11.4793 4.33995 11.6321 4.77051 11.9377C5.20106 12.2432 5.50662 12.646 5.68717 13.146H6.66634ZM8.33301 13.146H9.29134C9.4719 12.646 9.78092 12.2432 10.2184 11.9377C10.6559 11.6321 11.1386 11.4793 11.6663 11.4793V10.646H8.33301V13.146ZM17.2288 10.646L15.833 8.00016V10.646H17.2288ZM8.33301 8.97933H11.6663V5.646C11.6663 5.40988 11.5865 5.21197 11.4268 5.05225C11.267 4.89252 11.0691 4.81266 10.833 4.81266H8.33301V8.97933ZM6.66634 13.146V11.4793V11.6252V8.97933V13.146Z" fill="#74879B"/>
</g>
</svg>
