<svg width="20" height="20" viewBox="0 0 20 20" fill="none" xmlns="http://www.w3.org/2000/svg">
<mask id="mask0_3887_7494" style="mask-type:alpha" maskUnits="userSpaceOnUse" x="0" y="0" width="20" height="20">
<rect width="20" height="20" fill="#D9D9D9"/>
</mask>
<g mask="url(#mask0_3887_7494)">
<path d="M11.667 9.1665C12.3614 9.1665 12.9517 8.92345 13.4378 8.43734C13.9239 7.95123 14.167 7.36095 14.167 6.6665C14.167 5.97206 13.9239 5.38178 13.4378 4.89567C12.9517 4.40956 12.3614 4.1665 11.667 4.1665C10.9725 4.1665 10.3823 4.40956 9.89616 4.89567C9.41005 5.38178 9.16699 5.97206 9.16699 6.6665C9.16699 7.36095 9.41005 7.95123 9.89616 8.43734C10.3823 8.92345 10.9725 9.1665 11.667 9.1665ZM6.66699 13.1248C7.29199 12.3887 8.04199 11.8228 8.91699 11.4269C9.79199 11.0311 10.7087 10.8332 11.667 10.8332C12.6253 10.8332 13.542 11.0311 14.417 11.4269C15.292 11.8228 16.042 12.3887 16.667 13.1248V3.33317H6.66699V13.1248ZM6.66699 14.9998C6.20866 14.9998 5.8163 14.8366 5.48991 14.5103C5.16352 14.1839 5.00033 13.7915 5.00033 13.3332V3.33317C5.00033 2.87484 5.16352 2.48248 5.48991 2.15609C5.8163 1.8297 6.20866 1.6665 6.66699 1.6665H16.667C17.1253 1.6665 17.5177 1.8297 17.8441 2.15609C18.1705 2.48248 18.3337 2.87484 18.3337 3.33317V13.3332C18.3337 13.7915 18.1705 14.1839 17.8441 14.5103C17.5177 14.8366 17.1253 14.9998 16.667 14.9998H6.66699ZM3.33366 18.3332C2.87533 18.3332 2.48296 18.17 2.15658 17.8436C1.83019 17.5172 1.66699 17.1248 1.66699 16.6665V5.83317C1.66699 5.59706 1.74685 5.39914 1.90658 5.23942C2.0663 5.0797 2.26421 4.99984 2.50033 4.99984C2.73644 4.99984 2.93435 5.0797 3.09408 5.23942C3.2538 5.39914 3.33366 5.59706 3.33366 5.83317V16.6665H14.167C14.4031 16.6665 14.601 16.7464 14.7607 16.9061C14.9205 17.0658 15.0003 17.2637 15.0003 17.4998C15.0003 17.7359 14.9205 17.9339 14.7607 18.0936C14.601 18.2533 14.4031 18.3332 14.167 18.3332H3.33366ZM11.667 7.49984C11.4309 7.49984 11.233 7.41998 11.0732 7.26025C10.9135 7.10053 10.8337 6.90262 10.8337 6.6665C10.8337 6.43039 10.9135 6.23248 11.0732 6.07275C11.233 5.91303 11.4309 5.83317 11.667 5.83317C11.9031 5.83317 12.101 5.91303 12.2607 6.07275C12.4205 6.23248 12.5003 6.43039 12.5003 6.6665C12.5003 6.90262 12.4205 7.10053 12.2607 7.26025C12.101 7.41998 11.9031 7.49984 11.667 7.49984ZM8.91699 13.3332H14.417C14.0142 13.0554 13.5767 12.8471 13.1045 12.7082C12.6323 12.5693 12.1531 12.4998 11.667 12.4998C11.1809 12.4998 10.7017 12.5693 10.2295 12.7082C9.75727 12.8471 9.31977 13.0554 8.91699 13.3332Z" fill="#74879B"/>
</g>
</svg>
