<svg width="20" height="20" viewBox="0 0 20 20" fill="none" xmlns="http://www.w3.org/2000/svg">
<mask id="mask0_3887_5671" style="mask-type:alpha" maskUnits="userSpaceOnUse" x="0" y="0" width="20" height="20">
<rect width="20" height="20" fill="#D9D9D9"/>
</mask>
<g mask="url(#mask0_3887_5671)">
<path d="M1.66634 7.5V4.16667C1.66634 3.70833 1.82954 3.31597 2.15592 2.98958C2.48231 2.66319 2.87467 2.5 3.33301 2.5H16.6663C17.1247 2.5 17.517 2.66319 17.8434 2.98958C18.1698 3.31597 18.333 3.70833 18.333 4.16667V7.5H16.6663V4.16667H3.33301V7.5H1.66634ZM3.33301 15C2.87467 15 2.48231 14.8368 2.15592 14.5104C1.82954 14.184 1.66634 13.7917 1.66634 13.3333V9.16667H3.33301V13.3333H16.6663V9.16667H18.333V13.3333C18.333 13.7917 18.1698 14.184 17.8434 14.5104C17.517 14.8368 17.1247 15 16.6663 15H3.33301ZM1.66634 17.5C1.43023 17.5 1.23231 17.4201 1.07259 17.2604C0.912869 17.1007 0.833008 16.9028 0.833008 16.6667C0.833008 16.4306 0.912869 16.2326 1.07259 16.0729C1.23231 15.9132 1.43023 15.8333 1.66634 15.8333H18.333C18.5691 15.8333 18.767 15.9132 18.9268 16.0729C19.0865 16.2326 19.1663 16.4306 19.1663 16.6667C19.1663 16.9028 19.0865 17.1007 18.9268 17.2604C18.767 17.4201 18.5691 17.5 18.333 17.5H1.66634ZM1.66634 9.16667V7.5H6.66634C6.81912 7.5 6.96495 7.54167 7.10384 7.625C7.24273 7.70833 7.3469 7.81944 7.41634 7.95833L8.39551 9.89583L10.958 5.41667C11.0275 5.29167 11.1247 5.19097 11.2497 5.11458C11.3747 5.03819 11.5136 5 11.6663 5C11.8191 5 11.965 5.03819 12.1038 5.11458C12.2427 5.19097 12.3469 5.30556 12.4163 5.45833L13.4372 7.5H18.333V9.16667H12.9163C12.7636 9.16667 12.6177 9.12847 12.4788 9.05208C12.34 8.97569 12.2358 8.86111 12.1663 8.70833L11.6247 7.60417L9.06217 12.0833C8.99273 12.2222 8.88856 12.3264 8.74967 12.3958C8.61079 12.4653 8.46495 12.5 8.31217 12.5C8.1594 12.5 8.01704 12.4583 7.88509 12.375C7.75315 12.2917 7.65245 12.1806 7.58301 12.0417L6.14551 9.16667H1.66634Z" fill="#74879B"/>
</g>
</svg>
