<svg width="20" height="20" viewBox="0 0 20 20" fill="none" xmlns="http://www.w3.org/2000/svg">
<mask id="mask0_3887_10696" style="mask-type:alpha" maskUnits="userSpaceOnUse" x="0" y="0" width="20" height="20">
<rect width="20" height="20" fill="#D9D9D9"/>
</mask>
<g mask="url(#mask0_3887_10696)">
<path d="M10.0003 16.5625C9.76421 16.5625 9.53505 16.5104 9.31283 16.4062C9.0906 16.3021 8.89616 16.1528 8.72949 15.9583L2.35449 8.33333C2.22949 8.18056 2.13574 8.01389 2.07324 7.83333C2.01074 7.65278 1.97949 7.46528 1.97949 7.27083C1.97949 7.14583 1.98991 7.01736 2.01074 6.88542C2.03158 6.75347 2.07671 6.63194 2.14616 6.52083L3.70866 3.41667C3.86144 3.13889 4.0663 2.91667 4.32324 2.75C4.58019 2.58333 4.86838 2.5 5.18783 2.5H14.8128C15.1323 2.5 15.4205 2.58333 15.6774 2.75C15.9344 2.91667 16.1392 3.13889 16.292 3.41667L17.8545 6.52083C17.9239 6.63194 17.9691 6.75347 17.9899 6.88542C18.0107 7.01736 18.0212 7.14583 18.0212 7.27083C18.0212 7.46528 17.9899 7.65278 17.9274 7.83333C17.8649 8.01389 17.7712 8.18056 17.6462 8.33333L11.2712 15.9583C11.1045 16.1528 10.91 16.3021 10.6878 16.4062C10.4656 16.5104 10.2364 16.5625 10.0003 16.5625ZM8.02116 6.66667H11.9795L10.7295 4.16667H9.27116L8.02116 6.66667ZM9.16699 13.8958V8.33333H4.54199L9.16699 13.8958ZM10.8337 13.8958L15.4587 8.33333H10.8337V13.8958ZM13.8337 6.66667H16.042L14.792 4.16667H12.5837L13.8337 6.66667ZM3.95866 6.66667H6.16699L7.41699 4.16667H5.20866L3.95866 6.66667Z" fill="#74879B"/>
</g>
</svg>
