<svg width="20" height="20" viewBox="0 0 20 20" fill="none" xmlns="http://www.w3.org/2000/svg">
<mask id="mask0_5_46" style="mask-type:alpha" maskUnits="userSpaceOnUse" x="0" y="0" width="20" height="20">
<rect width="20" height="20" fill="#D9D9D9"/>
</mask>
<g mask="url(#mask0_5_46)">
<path d="M9.99999 12.9792C9.88888 12.9792 9.78472 12.9618 9.68749 12.9271C9.59027 12.8924 9.49999 12.8333 9.41666 12.75L6.41666 9.75001C6.24999 9.58334 6.17013 9.3889 6.17708 9.16668C6.18402 8.94445 6.26388 8.75001 6.41666 8.58334C6.58333 8.41668 6.78124 8.32987 7.01041 8.32293C7.23958 8.31598 7.43749 8.39584 7.60416 8.56251L9.16666 10.125V4.16668C9.16666 3.93057 9.24652 3.73265 9.40624 3.57293C9.56597 3.4132 9.76388 3.33334 9.99999 3.33334C10.2361 3.33334 10.434 3.4132 10.5937 3.57293C10.7535 3.73265 10.8333 3.93057 10.8333 4.16668V10.125L12.3958 8.56251C12.5625 8.39584 12.7604 8.31598 12.9896 8.32293C13.2187 8.32987 13.4167 8.41668 13.5833 8.58334C13.7361 8.75001 13.816 8.94445 13.8229 9.16668C13.8299 9.3889 13.75 9.58334 13.5833 9.75001L10.5833 12.75C10.5 12.8333 10.4097 12.8924 10.3125 12.9271C10.2153 12.9618 10.1111 12.9792 9.99999 12.9792ZM4.99999 16.6667C4.54166 16.6667 4.1493 16.5035 3.82291 16.1771C3.49652 15.8507 3.33333 15.4583 3.33333 15V13.3333C3.33333 13.0972 3.41319 12.8993 3.57291 12.7396C3.73263 12.5799 3.93055 12.5 4.16666 12.5C4.40277 12.5 4.60069 12.5799 4.76041 12.7396C4.92013 12.8993 4.99999 13.0972 4.99999 13.3333V15H15V13.3333C15 13.0972 15.0799 12.8993 15.2396 12.7396C15.3993 12.5799 15.5972 12.5 15.8333 12.5C16.0694 12.5 16.2674 12.5799 16.4271 12.7396C16.5868 12.8993 16.6667 13.0972 16.6667 13.3333V15C16.6667 15.4583 16.5035 15.8507 16.1771 16.1771C15.8507 16.5035 15.4583 16.6667 15 16.6667H4.99999Z" fill="#74879B"/>
</g>
</svg>
