<svg width="20" height="20" viewBox="0 0 20 20" fill="none" xmlns="http://www.w3.org/2000/svg">
<mask id="mask0_5_82" style="mask-type:alpha" maskUnits="userSpaceOnUse" x="0" y="0" width="20" height="20">
<rect width="20" height="20" fill="#D9D9D9"/>
</mask>
<g mask="url(#mask0_5_82)">
<path d="M1.66667 9.99999C1.66667 8.84721 1.88542 7.76388 2.32292 6.74999C2.76042 5.7361 3.35417 4.85416 4.10417 4.10416C4.85417 3.35416 5.73612 2.76041 6.75001 2.32291C7.76389 1.88541 8.84723 1.66666 10 1.66666C11.7639 1.66666 13.3368 2.15277 14.7188 3.12499C16.1007 4.09721 17.1042 5.35416 17.7292 6.89582C17.8264 7.13193 17.8299 7.36805 17.7396 7.60416C17.6493 7.84027 17.4861 7.99999 17.25 8.08332C17.0278 8.15277 16.816 8.13193 16.6146 8.02082C16.4132 7.90971 16.2708 7.74305 16.1875 7.52082C15.8542 6.68749 15.375 5.95138 14.75 5.31249C14.125 4.6736 13.375 4.18055 12.5 3.83332V4.16666C12.5 4.62499 12.3368 5.01735 12.0104 5.34374C11.684 5.67013 11.2917 5.83332 10.8333 5.83332H9.16667V7.49999C9.16667 7.7361 9.08681 7.93402 8.92709 8.09374C8.76737 8.25346 8.56945 8.33332 8.33334 8.33332H6.66667V9.99999H7.50001C7.73612 9.99999 7.93403 10.0799 8.09376 10.2396C8.25348 10.3993 8.33334 10.5972 8.33334 10.8333V12.5H7.50001L3.50001 8.49999C3.45834 8.74999 3.42014 8.99999 3.38542 9.24999C3.3507 9.49999 3.33334 9.74999 3.33334 9.99999C3.33334 11.6944 3.89237 13.1736 5.01042 14.4375C6.12848 15.7014 7.53473 16.4305 9.22917 16.625C9.45139 16.6528 9.63542 16.7465 9.78126 16.9062C9.92709 17.066 10 17.2639 10 17.5C10 17.7361 9.92014 17.934 9.76042 18.0937C9.6007 18.2535 9.40973 18.3194 9.18751 18.2917C7.06251 18.0833 5.27778 17.1944 3.83334 15.625C2.38889 14.0555 1.66667 12.1805 1.66667 9.99999ZM17 17.3333L14.9167 15.25C14.625 15.4167 14.3125 15.5555 13.9792 15.6667C13.6458 15.7778 13.2917 15.8333 12.9167 15.8333C11.875 15.8333 10.9896 15.4687 10.2604 14.7396C9.53126 14.0104 9.16667 13.125 9.16667 12.0833C9.16667 11.0417 9.53126 10.1562 10.2604 9.42707C10.9896 8.69791 11.875 8.33332 12.9167 8.33332C13.9583 8.33332 14.8438 8.69791 15.5729 9.42707C16.3021 10.1562 16.6667 11.0417 16.6667 12.0833C16.6667 12.4583 16.6111 12.8125 16.5 13.1458C16.3889 13.4792 16.25 13.7917 16.0833 14.0833L18.1667 16.1667C18.3195 16.3194 18.3958 16.5139 18.3958 16.75C18.3958 16.9861 18.3195 17.1805 18.1667 17.3333C18.0139 17.4861 17.8195 17.5625 17.5833 17.5625C17.3472 17.5625 17.1528 17.4861 17 17.3333ZM12.9167 14.1667C13.5 14.1667 13.9931 13.9653 14.3958 13.5625C14.7986 13.1597 15 12.6667 15 12.0833C15 11.5 14.7986 11.0069 14.3958 10.6042C13.9931 10.2014 13.5 9.99999 12.9167 9.99999C12.3333 9.99999 11.8403 10.2014 11.4375 10.6042C11.0347 11.0069 10.8333 11.5 10.8333 12.0833C10.8333 12.6667 11.0347 13.1597 11.4375 13.5625C11.8403 13.9653 12.3333 14.1667 12.9167 14.1667Z" fill="#74879B"/>
</g>
</svg>
