<svg width="20" height="20" viewBox="0 0 20 20" fill="none" xmlns="http://www.w3.org/2000/svg">
<mask id="mask0_3887_1354" style="mask-type:alpha" maskUnits="userSpaceOnUse" x="0" y="0" width="20" height="20">
<rect width="20" height="20" fill="#D9D9D9"/>
</mask>
<g mask="url(#mask0_3887_1354)">
<path d="M10.0003 4.29167L3.33366 6.95833V15.8333H5.00033V10.8333C5.00033 10.375 5.16352 9.98264 5.48991 9.65625C5.8163 9.32986 6.20866 9.16667 6.66699 9.16667H13.3337C13.792 9.16667 14.1844 9.32986 14.5107 9.65625C14.8371 9.98264 15.0003 10.375 15.0003 10.8333V15.8333H16.667V6.95833L10.0003 4.29167ZM1.66699 15.8333V6.95833C1.66699 6.61111 1.76074 6.29861 1.94824 6.02083C2.13574 5.74306 2.38921 5.54167 2.70866 5.41667L9.37533 2.75C9.56977 2.66667 9.7781 2.625 10.0003 2.625C10.2225 2.625 10.4309 2.66667 10.6253 2.75L17.292 5.41667C17.6114 5.54167 17.8649 5.74306 18.0524 6.02083C18.2399 6.29861 18.3337 6.61111 18.3337 6.95833V15.8333C18.3337 16.2917 18.1705 16.684 17.8441 17.0104C17.5177 17.3368 17.1253 17.5 16.667 17.5H13.3337V10.8333H6.66699V17.5H3.33366C2.87533 17.5 2.48296 17.3368 2.15658 17.0104C1.83019 16.684 1.66699 16.2917 1.66699 15.8333ZM7.50033 17.5V15.8333H9.16699V17.5H7.50033ZM9.16699 15V13.3333H10.8337V15H9.16699ZM10.8337 17.5V15.8333H12.5003V17.5H10.8337Z" fill="#74879B"/>
</g>
</svg>
