<svg width="20" height="20" viewBox="0 0 20 20" fill="none" xmlns="http://www.w3.org/2000/svg">
<mask id="mask0_5_64" style="mask-type:alpha" maskUnits="userSpaceOnUse" x="0" y="0" width="20" height="20">
<rect width="20" height="20" fill="#D9D9D9"/>
</mask>
<g mask="url(#mask0_5_64)">
<path d="M7.49999 9.99999C7.26388 9.99999 7.06597 9.92013 6.90624 9.76041C6.74652 9.60069 6.66666 9.40277 6.66666 9.16666C6.66666 8.93055 6.74652 8.73263 6.90624 8.57291C7.06597 8.41318 7.26388 8.33332 7.49999 8.33332H12.5C12.7361 8.33332 12.934 8.41318 13.0937 8.57291C13.2535 8.73263 13.3333 8.93055 13.3333 9.16666C13.3333 9.40277 13.2535 9.60069 13.0937 9.76041C12.934 9.92013 12.7361 9.99999 12.5 9.99999H7.49999ZM7.49999 6.66666C7.26388 6.66666 7.06597 6.5868 6.90624 6.42707C6.74652 6.26735 6.66666 6.06943 6.66666 5.83332C6.66666 5.59721 6.74652 5.3993 6.90624 5.23957C7.06597 5.07985 7.26388 4.99999 7.49999 4.99999H12.5C12.7361 4.99999 12.934 5.07985 13.0937 5.23957C13.2535 5.3993 13.3333 5.59721 13.3333 5.83332C13.3333 6.06943 13.2535 6.26735 13.0937 6.42707C12.934 6.5868 12.7361 6.66666 12.5 6.66666H7.49999ZM4.99999 11.6667H11.25C11.6528 11.6667 12.0278 11.7535 12.375 11.9271C12.7222 12.1007 13.0139 12.3472 13.25 12.6667L15 14.9583V3.33332H4.99999V11.6667ZM4.99999 16.6667H14.2083L11.9375 13.6875C11.8542 13.5764 11.7535 13.4896 11.6354 13.4271C11.5174 13.3646 11.3889 13.3333 11.25 13.3333H4.99999V16.6667ZM15 18.3333H4.99999C4.54166 18.3333 4.1493 18.1701 3.82291 17.8437C3.49652 17.5174 3.33333 17.125 3.33333 16.6667V3.33332C3.33333 2.87499 3.49652 2.48263 3.82291 2.15624C4.1493 1.82985 4.54166 1.66666 4.99999 1.66666H15C15.4583 1.66666 15.8507 1.82985 16.1771 2.15624C16.5035 2.48263 16.6667 2.87499 16.6667 3.33332V16.6667C16.6667 17.125 16.5035 17.5174 16.1771 17.8437C15.8507 18.1701 15.4583 18.3333 15 18.3333Z" fill="#74879B"/>
</g>
</svg>
