<svg width="32" height="33" viewBox="0 0 32 33" fill="none" xmlns="http://www.w3.org/2000/svg">
<mask id="mask0_3218_24011" style="mask-type:alpha" maskUnits="userSpaceOnUse" x="0" y="0" width="32" height="33">
<rect y="0.859375" width="32" height="32" fill="#D9D9D9"/>
</mask>
<g mask="url(#mask0_3218_24011)">
<path d="M14.6667 26.7592V17.6259L6.66667 12.9925V22.1259L14.6667 26.7592ZM17.3333 26.7592L25.3333 22.1259V12.9925L17.3333 17.6259V26.7592ZM16 15.3259L23.9 10.7592L16 6.19255L8.1 10.7592L16 15.3259ZM5.33333 24.4592C4.91111 24.2148 4.58333 23.8925 4.35 23.4925C4.11667 23.0925 4 22.6481 4 22.1592V11.5592C4 11.0703 4.11667 10.6259 4.35 10.2259C4.58333 9.82588 4.91111 9.50366 5.33333 9.25921L14.6667 3.89255C15.0889 3.6481 15.5333 3.52588 16 3.52588C16.4667 3.52588 16.9111 3.6481 17.3333 3.89255L26.6667 9.25921C27.0889 9.50366 27.4167 9.82588 27.65 10.2259C27.8833 10.6259 28 11.0703 28 11.5592V22.1592C28 22.6481 27.8833 23.0925 27.65 23.4925C27.4167 23.8925 27.0889 24.2148 26.6667 24.4592L17.3333 29.8259C16.9111 30.0703 16.4667 30.1925 16 30.1925C15.5333 30.1925 15.0889 30.0703 14.6667 29.8259L5.33333 24.4592Z" fill="#74879B"/>
</g>
</svg>
