<svg width="32" height="32" viewBox="0 0 32 32" fill="none" xmlns="http://www.w3.org/2000/svg">
<mask id="mask0_3218_24054" style="mask-type:alpha" maskUnits="userSpaceOnUse" x="0" y="0" width="32" height="32">
<rect width="32" height="32" fill="#D9D9D9"/>
</mask>
<g mask="url(#mask0_3218_24054)">
<path d="M8 29.3332C6.88889 29.3332 5.94444 28.9443 5.16667 28.1665C4.38889 27.3887 4 26.4443 4 25.3332V23.9998C4 23.2665 4.26111 22.6387 4.78333 22.1165C5.30556 21.5943 5.93333 21.3332 6.66667 21.3332H8V5.33317C8 4.59984 8.26111 3.97206 8.78333 3.44984C9.30556 2.92762 9.93333 2.6665 10.6667 2.6665H25.3333C26.0667 2.6665 26.6944 2.92762 27.2167 3.44984C27.7389 3.97206 28 4.59984 28 5.33317V25.3332C28 26.4443 27.6111 27.3887 26.8333 28.1665C26.0556 28.9443 25.1111 29.3332 24 29.3332H8ZM24 26.6665C24.3778 26.6665 24.6944 26.5387 24.95 26.2832C25.2056 26.0276 25.3333 25.7109 25.3333 25.3332V5.33317H10.6667V21.3332H20C20.7333 21.3332 21.3611 21.5943 21.8833 22.1165C22.4056 22.6387 22.6667 23.2665 22.6667 23.9998V25.3332C22.6667 25.7109 22.7944 26.0276 23.05 26.2832C23.3056 26.5387 23.6222 26.6665 24 26.6665ZM13.3333 11.9998C12.9556 11.9998 12.6389 11.8721 12.3833 11.6165C12.1278 11.3609 12 11.0443 12 10.6665C12 10.2887 12.1278 9.97206 12.3833 9.7165C12.6389 9.46095 12.9556 9.33317 13.3333 9.33317H22.6667C23.0444 9.33317 23.3611 9.46095 23.6167 9.7165C23.8722 9.97206 24 10.2887 24 10.6665C24 11.0443 23.8722 11.3609 23.6167 11.6165C23.3611 11.8721 23.0444 11.9998 22.6667 11.9998H13.3333ZM13.3333 15.9998C12.9556 15.9998 12.6389 15.8721 12.3833 15.6165C12.1278 15.3609 12 15.0443 12 14.6665C12 14.2887 12.1278 13.9721 12.3833 13.7165C12.6389 13.4609 12.9556 13.3332 13.3333 13.3332H22.6667C23.0444 13.3332 23.3611 13.4609 23.6167 13.7165C23.8722 13.9721 24 14.2887 24 14.6665C24 15.0443 23.8722 15.3609 23.6167 15.6165C23.3611 15.8721 23.0444 15.9998 22.6667 15.9998H13.3333ZM8 26.6665H20V23.9998H6.66667V25.3332C6.66667 25.7109 6.79444 26.0276 7.05 26.2832C7.30556 26.5387 7.62222 26.6665 8 26.6665ZM8 26.6665H6.66667H20H8Z" fill="#74879B"/>
</g>
</svg>
