<svg width="390" height="406" viewBox="0 0 390 406" fill="none" xmlns="http://www.w3.org/2000/svg">
<g clip-path="url(#clip0_221_213)">
<circle cx="281.978" cy="127.744" r="4.33925" fill="white"/>
<circle cx="153.176" cy="176.455" r="5.42406" fill="white"/>
<circle cx="205.521" cy="201.678" r="5.69526" fill="white"/>
<circle cx="204.991" cy="101.352" r="5.15286" fill="white"/>
<circle cx="225.859" cy="248.054" r="2.71203" fill="white"/>
<ellipse opacity="0.6" cx="330.855" cy="148.864" rx="2.74191" ry="4.56985" transform="rotate(-15.8805 330.855 148.864)" fill="white"/>
<ellipse opacity="0.6" cx="73.3178" cy="272.456" rx="4.05701" ry="6.68213" transform="rotate(-23.07 73.3178 272.456)" fill="white"/>
<ellipse opacity="0.6" cx="63.8316" cy="210.292" rx="7.39807" ry="4.29565" transform="rotate(77.9098 63.8316 210.292)" fill="white"/>
<ellipse opacity="0.6" cx="60.9476" cy="123.167" rx="4.77295" ry="2.62512" transform="rotate(-53.7867 60.9476 123.167)" fill="white"/>
<circle cx="232" cy="217.615" r="3.52564" fill="white"/>
<circle cx="196.68" cy="155.569" r="3.52564" fill="white"/>
<ellipse opacity="0.6" cx="48.6645" cy="142.825" rx="1.67053" ry="3.34106" transform="rotate(22.0294 48.6645 142.825)" fill="white"/>
<ellipse opacity="0.7" cx="342.343" cy="244.175" rx="1.90918" ry="3.34106" transform="rotate(24.7839 342.343 244.175)" fill="white"/>
<rect x="285.968" y="11.2188" width="16" height="16" rx="8" stroke="#EDEDED" stroke-width="1.0577"/>
<mask id="mask0_221_213" style="mask-type:alpha" maskUnits="userSpaceOnUse" x="285" y="11" width="17" height="17">
<circle cx="293.968" cy="19.2188" r="8" fill="#D9D9D9"/>
</mask>
<g mask="url(#mask0_221_213)">
<rect x="285.968" y="11.2188" width="16" height="16" fill="#DD2033"/>
<path d="M294.757 12.2852L294.141 13.0506L293.206 12.9239L293.698 13.7548L293.271 14.6477L294.211 14.3243L294.863 15.0742L294.94 14.0877L295.782 13.6141L294.909 13.2563L294.757 12.2852Z" fill="#F1B434"/>
<path d="M290.412 15.573L289.684 17.2211L287.968 17.4404L289.233 18.6783L288.901 20.4619L290.412 19.4434L291.923 20.4619L291.591 18.6783L292.857 17.4404L291.141 17.2211L290.412 15.573Z" fill="#F1B434"/>
<path d="M295.694 16.5897L295.845 15.6185L296.461 16.3839L297.396 16.2572L296.904 17.0881L297.331 17.981L296.391 17.6577L295.739 18.4076L295.662 17.421L294.821 16.9474L295.694 16.5897Z" fill="#F1B434"/>
<path d="M295.746 18.9064L295.348 19.8053L294.412 19.9249L295.103 20.6002L294.921 21.573L295.746 21.0175L296.57 21.573L296.389 20.6002L297.079 19.9249L296.143 19.8053L295.746 18.9064Z" fill="#F1B434"/>
<path d="M293.252 22.3839L293.868 21.6185L294.02 22.5897L294.893 22.9474L294.051 23.421L293.974 24.4076L293.322 23.6577L292.382 23.981L292.809 23.0881L292.317 22.2572L293.252 22.3839Z" fill="#F1B434"/>
</g>
<path d="M311.197 19.6187C311.197 18.5201 311.437 17.5387 311.917 16.6747C312.397 15.8001 313.053 15.1227 313.885 14.6427C314.717 14.1521 315.645 13.9067 316.669 13.9067C317.917 13.9067 318.984 14.2054 319.869 14.8027C320.765 15.3894 321.416 16.2214 321.821 17.2987H320.509C320.189 16.5414 319.699 15.9494 319.037 15.5227C318.387 15.0961 317.597 14.8827 316.669 14.8827C315.848 14.8827 315.107 15.0747 314.445 15.4587C313.795 15.8427 313.283 16.3974 312.909 17.1227C312.536 17.8374 312.349 18.6694 312.349 19.6187C312.349 20.5681 312.536 21.4001 312.909 22.1147C313.283 22.8294 313.795 23.3787 314.445 23.7627C315.107 24.1467 315.848 24.3387 316.669 24.3387C317.597 24.3387 318.387 24.1307 319.037 23.7147C319.699 23.2881 320.189 22.7014 320.509 21.9547H321.821C321.416 23.0214 320.765 23.8481 319.869 24.4347C318.973 25.0214 317.907 25.3148 316.669 25.3148C315.645 25.3148 314.717 25.0747 313.885 24.5947C313.053 24.1041 312.397 23.4267 311.917 22.5627C311.437 21.6987 311.197 20.7174 311.197 19.6187ZM327.445 25.3308C326.709 25.3308 326.059 25.2027 325.493 24.9467C324.939 24.6907 324.501 24.3334 324.181 23.8747C323.861 23.4161 323.691 22.9041 323.669 22.3387H324.853C324.907 22.8827 325.147 23.3627 325.573 23.7787C326 24.1841 326.624 24.3867 327.445 24.3867C328.203 24.3867 328.8 24.1947 329.237 23.8107C329.685 23.4161 329.909 22.9201 329.909 22.3227C329.909 21.8427 329.787 21.4587 329.541 21.1707C329.296 20.8721 328.992 20.6534 328.629 20.5148C328.267 20.3654 327.765 20.2054 327.125 20.0347C326.379 19.8321 325.787 19.6347 325.349 19.4427C324.912 19.2507 324.539 18.9521 324.229 18.5467C323.92 18.1414 323.765 17.5921 323.765 16.8987C323.765 16.3227 323.915 15.8107 324.213 15.3627C324.512 14.9041 324.933 14.5467 325.477 14.2907C326.021 14.0347 326.645 13.9067 327.349 13.9067C328.384 13.9067 329.216 14.1627 329.845 14.6747C330.485 15.1761 330.853 15.8267 330.949 16.6267H329.733C329.659 16.1681 329.408 15.7627 328.981 15.4107C328.555 15.0481 327.979 14.8667 327.253 14.8667C326.581 14.8667 326.021 15.0481 325.573 15.4107C325.125 15.7627 324.901 16.2481 324.901 16.8667C324.901 17.3361 325.024 17.7147 325.269 18.0027C325.515 18.2907 325.819 18.5094 326.181 18.6587C326.555 18.8081 327.056 18.9681 327.685 19.1387C328.411 19.3414 328.997 19.5441 329.445 19.7467C329.893 19.9387 330.272 20.2374 330.581 20.6427C330.891 21.0481 331.045 21.5921 331.045 22.2747C331.045 22.7974 330.907 23.2934 330.629 23.7627C330.352 24.2321 329.941 24.6107 329.397 24.8987C328.853 25.1867 328.203 25.3308 327.445 25.3308ZM341.513 14.0347V25.2188H340.393V19.9867H334.329V25.2188H333.209V14.0347H334.329V19.0587H340.393V14.0347H341.513Z" fill="white"/>
<path d="M330.975 148.719L287.969 35.2187L348.509 35.2182" stroke="url(#paint0_linear_221_213)" stroke-width="0.902148" stroke-linecap="round" stroke-linejoin="round"/>
<path d="M72.9675 272.718L43.9661 363.218C120.704 363.218 56.7326 363.217 133.471 363.217" stroke="url(#paint1_linear_221_213)" stroke-width="0.902148" stroke-linecap="round" stroke-linejoin="round"/>
<rect width="16" height="16" rx="8" transform="matrix(1 0 0 -1 41.9668 386.721)" stroke="#EDEDED" stroke-width="1.0577"/>
<mask id="mask1_221_213" style="mask-type:alpha" maskUnits="userSpaceOnUse" x="41" y="370" width="17" height="17">
<circle cx="8" cy="8" r="8" transform="matrix(1 0 0 -1 41.9668 386.721)" fill="#D9D9D9"/>
</mask>
<g mask="url(#mask1_221_213)">
<rect width="5.33333" height="16" transform="matrix(-4.37114e-08 1 1 4.37114e-08 41.9668 370.721)" fill="#DD2033"/>
<rect width="5.33333" height="16" transform="matrix(-4.37114e-08 1 1 4.37114e-08 41.9668 381.387)" fill="#005EB8"/>
<path d="M58.0556 376.054H51.9223L44.8112 370.721V386.721L51.9223 381.387H58.0556V376.054Z" fill="#F5F7F8"/>
<path d="M57.9668 380.498H51.3297L43.0334 386.721V370.721L51.3297 376.943H57.9668V380.498Z" fill="#008259"/>
<path d="M41.1667 372.721V384.721L49.1667 378.721L41.1667 372.721Z" fill="#F1B434"/>
<path d="M47.389 378.721L36.7223 370.721V386.721L47.389 378.721Z" fill="#31373D"/>
</g>
<path d="M68.8285 373.537V384.721H67.7085V373.537H68.8285ZM81.7647 375.825C82.7887 375.825 83.6207 376.15 84.2607 376.801C84.9114 377.441 85.2367 378.374 85.2367 379.601V384.721H84.1327V379.729C84.1327 378.779 83.9034 378.054 83.4447 377.553C82.9861 377.051 82.3621 376.801 81.5727 376.801C80.7514 376.801 80.0954 377.073 79.6047 377.617C79.1141 378.161 78.8687 378.95 78.8687 379.985V384.721H77.7647V379.729C77.7647 378.779 77.5354 378.054 77.0767 377.553C76.6181 377.051 75.9887 376.801 75.1887 376.801C74.3674 376.801 73.7114 377.073 73.2207 377.617C72.7301 378.161 72.4847 378.95 72.4847 379.985V384.721H71.3647V375.985H72.4847V377.489C72.7621 376.945 73.1567 376.534 73.6687 376.257C74.1807 375.969 74.7514 375.825 75.3807 375.825C76.1381 375.825 76.7994 376.006 77.3647 376.369C77.9407 376.731 78.3567 377.265 78.6127 377.969C78.8474 377.275 79.2474 376.747 79.8127 376.385C80.3887 376.011 81.0394 375.825 81.7647 375.825ZM88.8281 377.905C89.1054 377.318 89.5428 376.833 90.1401 376.449C90.7481 376.054 91.4681 375.857 92.3001 375.857C93.0894 375.857 93.7988 376.043 94.4281 376.417C95.0681 376.779 95.5641 377.302 95.9161 377.985C96.2788 378.657 96.4601 379.441 96.4601 380.337C96.4601 381.233 96.2788 382.022 95.9161 382.705C95.5641 383.387 95.0681 383.915 94.4281 384.289C93.7988 384.662 93.0894 384.849 92.3001 384.849C91.4788 384.849 90.7641 384.657 90.1561 384.273C89.5481 383.878 89.1054 383.387 88.8281 382.801V388.849H87.7241V375.985H88.8281V377.905ZM95.3241 380.337C95.3241 379.611 95.1801 378.987 94.8921 378.465C94.6148 377.931 94.2308 377.526 93.7401 377.249C93.2494 376.971 92.6948 376.833 92.0761 376.833C91.4788 376.833 90.9294 376.977 90.4281 377.265C89.9374 377.553 89.5481 377.963 89.2601 378.497C88.9721 379.03 88.8281 379.649 88.8281 380.353C88.8281 381.057 88.9721 381.675 89.2601 382.209C89.5481 382.742 89.9374 383.153 90.4281 383.441C90.9294 383.729 91.4788 383.873 92.0761 383.873C92.6948 383.873 93.2494 383.734 93.7401 383.457C94.2308 383.169 94.6148 382.758 94.8921 382.225C95.1801 381.681 95.3241 381.051 95.3241 380.337ZM98.009 380.337C98.009 379.441 98.185 378.657 98.537 377.985C98.8996 377.302 99.3956 376.779 100.025 376.417C100.665 376.043 101.385 375.857 102.185 375.857C103.017 375.857 103.732 376.049 104.329 376.433C104.937 376.817 105.374 377.307 105.641 377.905V375.985H106.761V384.721H105.641V382.785C105.364 383.382 104.921 383.878 104.313 384.273C103.716 384.657 103.001 384.849 102.169 384.849C101.38 384.849 100.665 384.662 100.025 384.289C99.3956 383.915 98.8996 383.387 98.537 382.705C98.185 382.022 98.009 381.233 98.009 380.337ZM105.641 380.353C105.641 379.649 105.497 379.03 105.209 378.497C104.921 377.963 104.526 377.553 104.025 377.265C103.534 376.977 102.99 376.833 102.393 376.833C101.774 376.833 101.22 376.971 100.729 377.249C100.238 377.526 99.849 377.931 99.561 378.465C99.2836 378.987 99.145 379.611 99.145 380.337C99.145 381.051 99.2836 381.681 99.561 382.225C99.849 382.758 100.238 383.169 100.729 383.457C101.22 383.734 101.774 383.873 102.393 383.873C102.99 383.873 103.534 383.729 104.025 383.441C104.526 383.153 104.921 382.742 105.209 382.209C105.497 381.675 105.641 381.057 105.641 380.353ZM110.438 372.881V384.721H109.318V372.881H110.438ZM112.462 380.337C112.462 379.441 112.638 378.657 112.99 377.985C113.353 377.302 113.849 376.779 114.478 376.417C115.118 376.043 115.838 375.857 116.638 375.857C117.47 375.857 118.185 376.049 118.782 376.433C119.39 376.817 119.827 377.307 120.094 377.905V375.985H121.214V384.721H120.094V382.785C119.817 383.382 119.374 383.878 118.766 384.273C118.169 384.657 117.454 384.849 116.622 384.849C115.833 384.849 115.118 384.662 114.478 384.289C113.849 383.915 113.353 383.387 112.99 382.705C112.638 382.022 112.462 381.233 112.462 380.337ZM120.094 380.353C120.094 379.649 119.95 379.03 119.662 378.497C119.374 377.963 118.979 377.553 118.478 377.265C117.987 376.977 117.443 376.833 116.846 376.833C116.227 376.833 115.673 376.971 115.182 377.249C114.691 377.526 114.302 377.931 114.014 378.465C113.737 378.987 113.598 379.611 113.598 380.337C113.598 381.051 113.737 381.681 114.014 382.225C114.302 382.758 114.691 383.169 115.182 383.457C115.673 383.734 116.227 383.873 116.846 383.873C117.443 383.873 117.987 383.729 118.478 383.441C118.979 383.153 119.374 382.742 119.662 382.209C119.95 381.675 120.094 381.057 120.094 380.353Z" fill="white"/>
</g>
<defs>
<linearGradient id="paint0_linear_221_213" x1="286.968" y1="77.7187" x2="356.468" y2="31.7187" gradientUnits="userSpaceOnUse">
<stop stop-color="white"/>
<stop offset="1" stop-color="white" stop-opacity="0"/>
</linearGradient>
<linearGradient id="paint1_linear_221_213" x1="44.4649" y1="346.718" x2="135.465" y2="349.718" gradientUnits="userSpaceOnUse">
<stop offset="0.166283" stop-color="white"/>
<stop offset="1" stop-color="white" stop-opacity="0"/>
</linearGradient>
<clipPath id="clip0_221_213">
<rect width="390" height="406" fill="white"/>
</clipPath>
</defs>
</svg>
