<svg width="970" height="894" viewBox="0 0 970 894" fill="none" xmlns="http://www.w3.org/2000/svg">
<g clip-path="url(#clip0_220_23)">
<ellipse cx="590.092" cy="267.091" rx="9.09136" ry="9.09134" fill="white"/>
<ellipse cx="472.52" cy="519.159" rx="13.637" ry="13.637" fill="white" fill-opacity="0.58"/>
<ellipse cx="320.24" cy="369.151" rx="11.3642" ry="11.3642" fill="white"/>
<ellipse cx="429.905" cy="421.995" rx="11.9324" ry="11.9324" fill="white"/>
<ellipse cx="428.797" cy="211.796" rx="10.796" ry="10.796" fill="white"/>
<ellipse cx="472.521" cy="519.159" rx="5.6821" ry="5.68209" fill="white"/>
<ellipse cx="691.85" cy="312.331" rx="5.6821" ry="5.68209" fill="white"/>
<ellipse cx="691.85" cy="312.331" rx="12.5006" ry="12.5006" fill="white" fill-opacity="0.58"/>
<ellipse opacity="0.6" cx="140.5" cy="500.999" rx="8.50002" ry="14" transform="rotate(-10.5632 140.5 500.999)" fill="white"/>
<ellipse opacity="0.6" cx="133.047" cy="440.041" rx="15.5" ry="9.00002" transform="rotate(77.9097 133.047 440.041)" fill="white"/>
<ellipse opacity="0.6" cx="10" cy="5.50001" rx="10" ry="5.50001" transform="matrix(0.590794 -0.806822 0.806824 0.590792 116.654 262.318)" fill="white"/>
<rect width="25.385" height="25.385" rx="12.6925" transform="matrix(1 0 0 -1 551.001 666.693)" stroke="#EDEDED" stroke-width="1.0577"/>
<mask id="mask0_220_23" style="mask-type:alpha" maskUnits="userSpaceOnUse" x="551" y="641" width="26" height="26">
<circle cx="12.6925" cy="12.6925" r="12.6925" transform="matrix(1 0 0 -1 551.001 666.693)" fill="#D9D9D9"/>
</mask>
<g mask="url(#mask0_220_23)">
<rect width="8.46167" height="25.385" transform="matrix(-4.37114e-08 1 1 4.37114e-08 551.001 641.309)" fill="#DD2033"/>
<rect width="8.46167" height="25.385" transform="matrix(-4.37114e-08 1 1 4.37114e-08 551.001 658.232)" fill="#005EB8"/>
<path d="M576.527 649.77H566.796L555.514 641.309V666.694L566.796 658.232H576.527V649.77Z" fill="#F5F7F8"/>
<path d="M576.386 656.822H565.856L552.694 666.694V641.309L565.856 651.181H576.386V656.822Z" fill="#008259"/>
<path d="M549.732 644.482V663.521L562.424 654.002L549.732 644.482Z" fill="#F1B434"/>
<path d="M559.604 654.001L542.681 641.309V666.694L559.604 654.001Z" fill="#31373D"/>
</g>
<path d="M590.485 644.585V664H586.608V644.585H590.485ZM613.381 648.545C615.233 648.545 616.69 649.122 617.753 650.277C618.835 651.414 619.376 653.037 619.376 655.145V664H615.526V655.585C615.526 654.412 615.223 653.513 614.618 652.89C614.032 652.248 613.216 651.927 612.171 651.927C611.089 651.927 610.228 652.267 609.586 652.945C608.944 653.623 608.623 654.613 608.623 655.915V664H604.773V655.585C604.773 654.412 604.471 653.513 603.866 652.89C603.279 652.248 602.463 651.927 601.418 651.927C600.337 651.927 599.475 652.267 598.833 652.945C598.192 653.623 597.871 654.613 597.871 655.915V664H593.993V648.765H597.871V651.652C598.274 650.662 598.907 649.902 599.768 649.37C600.648 648.82 601.666 648.545 602.821 648.545C604.049 648.545 605.112 648.838 606.011 649.425C606.928 650.012 607.615 650.855 608.073 651.955C608.55 650.91 609.256 650.085 610.191 649.48C611.144 648.857 612.208 648.545 613.381 648.545ZM631.885 648.572C633.169 648.572 634.324 648.884 635.35 649.507C636.377 650.131 637.174 651.038 637.743 652.23C638.329 653.403 638.623 654.787 638.623 656.382C638.623 657.977 638.329 659.371 637.743 660.562C637.174 661.736 636.377 662.634 635.35 663.257C634.324 663.881 633.169 664.193 631.885 664.193C630.602 664.193 629.502 663.89 628.585 663.285C627.687 662.662 627.045 661.837 626.66 660.81V671.26H622.783V648.765H626.66V651.927C627.045 650.901 627.687 650.085 628.585 649.48C629.502 648.875 630.602 648.572 631.885 648.572ZM630.675 651.955C629.502 651.955 628.53 652.358 627.76 653.165C627.008 653.953 626.633 655.026 626.633 656.382C626.633 657.721 627.008 658.793 627.76 659.6C628.53 660.388 629.502 660.782 630.675 660.782C631.885 660.782 632.857 660.397 633.59 659.627C634.324 658.839 634.69 657.757 634.69 656.382C634.69 655.007 634.324 653.926 633.59 653.137C632.857 652.349 631.885 651.955 630.675 651.955ZM647.334 648.572C648.618 648.572 649.718 648.875 650.634 649.48C651.551 650.085 652.202 650.901 652.587 651.927V648.765H656.437V664H652.587V660.81C652.202 661.837 651.551 662.662 650.634 663.285C649.718 663.89 648.618 664.193 647.334 664.193C646.051 664.193 644.896 663.881 643.869 663.257C642.843 662.634 642.036 661.736 641.449 660.562C640.881 659.371 640.597 657.977 640.597 656.382C640.597 654.787 640.881 653.403 641.449 652.23C642.036 651.038 642.843 650.131 643.869 649.507C644.896 648.884 646.051 648.572 647.334 648.572ZM648.544 651.955C647.334 651.955 646.363 652.349 645.629 653.137C644.896 653.926 644.529 655.007 644.529 656.382C644.529 657.757 644.896 658.839 645.629 659.627C646.363 660.397 647.334 660.782 648.544 660.782C649.718 660.782 650.68 660.388 651.432 659.6C652.202 658.793 652.587 657.721 652.587 656.382C652.587 655.026 652.202 653.953 651.432 653.165C650.68 652.358 649.718 651.955 648.544 651.955ZM663.828 643.65V664H659.951V643.65H663.828ZM673.304 648.572C674.587 648.572 675.687 648.875 676.604 649.48C677.521 650.085 678.171 650.901 678.556 651.927V648.765H682.406V664H678.556V660.81C678.171 661.837 677.521 662.662 676.604 663.285C675.687 663.89 674.587 664.193 673.304 664.193C672.02 664.193 670.865 663.881 669.839 663.257C668.812 662.634 668.005 661.736 667.419 660.562C666.85 659.371 666.566 657.977 666.566 656.382C666.566 654.787 666.85 653.403 667.419 652.23C668.005 651.038 668.812 650.131 669.839 649.507C670.865 648.884 672.02 648.572 673.304 648.572ZM674.514 651.955C673.304 651.955 672.332 652.349 671.599 653.137C670.865 653.926 670.499 655.007 670.499 656.382C670.499 657.757 670.865 658.839 671.599 659.627C672.332 660.397 673.304 660.782 674.514 660.782C675.687 660.782 676.65 660.388 677.401 659.6C678.171 658.793 678.556 657.721 678.556 656.382C678.556 655.026 678.171 653.953 677.401 653.165C676.65 652.358 675.687 651.955 674.514 651.955Z" fill="white"/>
<path d="M587.97 687.823V693.23H586.238V679.808H590.502C592.038 679.808 593.187 680.17 593.948 680.893C594.71 681.604 595.091 682.582 595.091 683.825C595.091 685.082 594.697 686.066 593.91 686.776C593.123 687.474 591.987 687.823 590.502 687.823H587.97ZM590.35 686.377C591.403 686.377 592.159 686.154 592.616 685.71C593.085 685.266 593.32 684.638 593.32 683.825C593.32 682.988 593.085 682.353 592.616 681.922C592.159 681.477 591.403 681.255 590.35 681.255H587.97V686.377H590.35ZM598.847 679.142V693.23H597.114V679.142H598.847ZM605.916 682.645C606.931 682.645 607.788 682.899 608.486 683.407C609.197 683.914 609.692 684.593 609.971 685.444V682.778H611.704V693.23H609.971V690.565C609.692 691.415 609.197 692.094 608.486 692.602C607.788 693.11 606.931 693.364 605.916 693.364C604.989 693.364 604.164 693.148 603.441 692.716C602.717 692.285 602.146 691.669 601.727 690.87C601.321 690.057 601.118 689.105 601.118 688.014C601.118 686.922 601.321 685.97 601.727 685.158C602.146 684.346 602.717 683.724 603.441 683.292C604.164 682.861 604.989 682.645 605.916 682.645ZM606.411 684.187C605.345 684.187 604.488 684.53 603.841 685.215C603.206 685.888 602.889 686.821 602.889 688.014C602.889 689.207 603.206 690.146 603.841 690.832C604.488 691.504 605.345 691.841 606.411 691.841C607.096 691.841 607.705 691.682 608.239 691.365C608.784 691.047 609.209 690.603 609.514 690.032C609.819 689.448 609.971 688.775 609.971 688.014C609.971 687.252 609.819 686.58 609.514 685.996C609.209 685.412 608.784 684.968 608.239 684.663C607.705 684.346 607.096 684.187 606.411 684.187ZM619.449 691.707V693.23H618.154C617.088 693.23 616.289 692.977 615.756 692.469C615.235 691.961 614.975 691.111 614.975 689.918V684.282H613.414V682.778H614.975V680.17H616.726V682.778H619.43V684.282H616.726V689.956C616.726 690.629 616.847 691.092 617.088 691.346C617.342 691.587 617.774 691.707 618.383 691.707H619.449ZM621.259 679.713C621.259 679.396 621.366 679.142 621.582 678.951C621.798 678.748 622.084 678.647 622.439 678.647C622.794 678.647 623.08 678.748 623.296 678.951C623.511 679.142 623.619 679.396 623.619 679.713C623.619 680.03 623.511 680.291 623.296 680.494C623.08 680.684 622.794 680.779 622.439 680.779C622.084 680.779 621.798 680.684 621.582 680.494C621.366 680.291 621.259 680.03 621.259 679.713ZM623.296 682.778V693.23H621.563V682.778H623.296ZM631.583 682.607C632.802 682.607 633.785 683 634.534 683.787C635.283 684.562 635.658 685.685 635.658 687.157V693.23H633.925V687.309C633.925 686.269 633.659 685.469 633.125 684.911C632.592 684.352 631.869 684.073 630.955 684.073C630.003 684.073 629.242 684.384 628.67 685.006C628.099 685.615 627.814 686.51 627.814 687.69V693.23H626.081V682.778H627.814V685.253C628.08 684.403 628.55 683.749 629.223 683.292C629.908 682.835 630.695 682.607 631.583 682.607ZM647.606 682.778V693.23H645.873V690.774C645.607 691.625 645.131 692.279 644.445 692.735C643.773 693.18 642.986 693.402 642.085 693.402C640.879 693.402 639.902 693.015 639.153 692.24C638.404 691.454 638.029 690.33 638.029 688.871V682.778H639.762V688.699C639.762 689.74 640.028 690.546 640.562 691.117C641.095 691.676 641.818 691.955 642.732 691.955C643.684 691.955 644.445 691.65 645.017 691.041C645.588 690.419 645.873 689.518 645.873 688.338V682.778H647.606ZM663.233 682.607C664.451 682.607 665.428 683 666.165 683.787C666.913 684.562 667.288 685.685 667.288 687.157V693.23H665.555V687.309C665.555 686.281 665.301 685.494 664.794 684.949C664.299 684.403 663.613 684.13 662.738 684.13C661.824 684.13 661.088 684.435 660.529 685.044C659.983 685.64 659.71 686.523 659.71 687.69V693.23H657.978V687.309C657.978 686.281 657.724 685.494 657.216 684.949C656.709 684.403 656.023 684.13 655.16 684.13C654.234 684.13 653.491 684.435 652.933 685.044C652.387 685.64 652.114 686.523 652.114 687.69V693.23H650.381V682.778H652.114V685.158C652.368 684.333 652.818 683.705 653.466 683.273C654.126 682.829 654.881 682.607 655.731 682.607C656.62 682.607 657.388 682.835 658.035 683.292C658.695 683.737 659.165 684.397 659.444 685.272C659.736 684.422 660.224 683.768 660.91 683.311C661.595 682.842 662.369 682.607 663.233 682.607ZM670.987 691.955C671.165 692.513 671.253 693.034 671.253 693.516C671.253 694.176 671.088 694.703 670.758 695.096C670.428 695.502 669.933 695.705 669.273 695.705V694.963C669.591 694.963 669.819 694.874 669.959 694.696C670.111 694.531 670.187 694.265 670.187 693.897V693.725H669.216V691.955H670.987ZM679.742 687.823V693.23H678.01V679.808H682.274C683.81 679.808 684.959 680.17 685.72 680.893C686.482 681.604 686.863 682.582 686.863 683.825C686.863 685.082 686.469 686.066 685.682 686.776C684.895 687.474 683.76 687.823 682.274 687.823H679.742ZM682.122 686.377C683.176 686.377 683.931 686.154 684.388 685.71C684.857 685.266 685.092 684.638 685.092 683.825C685.092 682.988 684.857 682.353 684.388 681.922C683.931 681.477 683.176 681.255 682.122 681.255H679.742V686.377H682.122ZM693.17 682.645C694.186 682.645 695.042 682.899 695.74 683.407C696.451 683.914 696.946 684.593 697.225 685.444V682.778H698.958V693.23H697.225V690.565C696.946 691.415 696.451 692.094 695.74 692.602C695.042 693.11 694.186 693.364 693.17 693.364C692.244 693.364 691.419 693.148 690.695 692.716C689.972 692.285 689.4 691.669 688.982 690.87C688.575 690.057 688.372 689.105 688.372 688.014C688.372 686.922 688.575 685.97 688.982 685.158C689.4 684.346 689.972 683.724 690.695 683.292C691.419 682.861 692.244 682.645 693.17 682.645ZM693.665 684.187C692.599 684.187 691.742 684.53 691.095 685.215C690.46 685.888 690.143 686.821 690.143 688.014C690.143 689.207 690.46 690.146 691.095 690.832C691.742 691.504 692.599 691.841 693.665 691.841C694.351 691.841 694.96 691.682 695.493 691.365C696.039 691.047 696.464 690.603 696.768 690.032C697.073 689.448 697.225 688.775 697.225 688.014C697.225 687.252 697.073 686.58 696.768 685.996C696.464 685.412 696.039 684.968 695.493 684.663C694.96 684.346 694.351 684.187 693.665 684.187ZM703.448 679.142V693.23H701.715V679.142H703.448ZM707.966 679.142V693.23H706.233V679.142H707.966ZM715.035 682.645C716.05 682.645 716.907 682.899 717.605 683.407C718.316 683.914 718.811 684.593 719.09 685.444V682.778H720.823V693.23H719.09V690.565C718.811 691.415 718.316 692.094 717.605 692.602C716.907 693.11 716.05 693.364 715.035 693.364C714.108 693.364 713.283 693.148 712.56 692.716C711.836 692.285 711.265 691.669 710.846 690.87C710.44 690.057 710.237 689.105 710.237 688.014C710.237 686.922 710.44 685.97 710.846 685.158C711.265 684.346 711.836 683.724 712.56 683.292C713.283 682.861 714.108 682.645 715.035 682.645ZM715.53 684.187C714.464 684.187 713.607 684.53 712.96 685.215C712.325 685.888 712.008 686.821 712.008 688.014C712.008 689.207 712.325 690.146 712.96 690.832C713.607 691.504 714.464 691.841 715.53 691.841C716.215 691.841 716.824 691.682 717.358 691.365C717.903 691.047 718.328 690.603 718.633 690.032C718.938 689.448 719.09 688.775 719.09 688.014C719.09 687.252 718.938 686.58 718.633 685.996C718.328 685.412 717.903 684.968 717.358 684.663C716.824 684.346 716.215 684.187 715.53 684.187ZM727.864 682.645C728.879 682.645 729.736 682.899 730.434 683.407C731.145 683.914 731.64 684.593 731.919 685.444V679.142H733.651V693.23H731.919V690.565C731.64 691.415 731.145 692.094 730.434 692.602C729.736 693.11 728.879 693.364 727.864 693.364C726.937 693.364 726.112 693.148 725.389 692.716C724.665 692.285 724.094 691.669 723.675 690.87C723.269 690.057 723.066 689.105 723.066 688.014C723.066 686.922 723.269 685.97 723.675 685.158C724.094 684.346 724.665 683.724 725.389 683.292C726.112 682.861 726.937 682.645 727.864 682.645ZM728.359 684.187C727.292 684.187 726.436 684.53 725.788 685.215C725.154 685.888 724.836 686.821 724.836 688.014C724.836 689.207 725.154 690.146 725.788 690.832C726.436 691.504 727.292 691.841 728.359 691.841C729.044 691.841 729.653 691.682 730.186 691.365C730.732 691.047 731.157 690.603 731.462 690.032C731.767 689.448 731.919 688.775 731.919 688.014C731.919 687.252 731.767 686.58 731.462 685.996C731.157 685.412 730.732 684.968 730.186 684.663C729.653 684.346 729.044 684.187 728.359 684.187ZM736.104 679.713C736.104 679.396 736.212 679.142 736.428 678.951C736.643 678.748 736.929 678.647 737.284 678.647C737.64 678.647 737.925 678.748 738.141 678.951C738.357 679.142 738.465 679.396 738.465 679.713C738.465 680.03 738.357 680.291 738.141 680.494C737.925 680.684 737.64 680.779 737.284 680.779C736.929 680.779 736.643 680.684 736.428 680.494C736.212 680.291 736.104 680.03 736.104 679.713ZM738.141 682.778V693.23H736.409V682.778H738.141ZM750.218 682.778V693.23H748.485V690.774C748.218 691.625 747.742 692.279 747.057 692.735C746.384 693.18 745.597 693.402 744.696 693.402C743.491 693.402 742.513 693.015 741.764 692.24C741.015 691.454 740.641 690.33 740.641 688.871V682.778H742.374V688.699C742.374 689.74 742.64 690.546 743.173 691.117C743.706 691.676 744.43 691.955 745.344 691.955C746.296 691.955 747.057 691.65 747.628 691.041C748.199 690.419 748.485 689.518 748.485 688.338V682.778H750.218ZM765.844 682.607C767.063 682.607 768.04 683 768.776 683.787C769.525 684.562 769.899 685.685 769.899 687.157V693.23H768.167V687.309C768.167 686.281 767.913 685.494 767.405 684.949C766.91 684.403 766.225 684.13 765.349 684.13C764.435 684.13 763.699 684.435 763.141 685.044C762.595 685.64 762.322 686.523 762.322 687.69V693.23H760.59V687.309C760.59 686.281 760.336 685.494 759.828 684.949C759.32 684.403 758.635 684.13 757.772 684.13C756.845 684.13 756.103 684.435 755.544 685.044C754.999 685.64 754.726 686.523 754.726 687.69V693.23H752.993V682.778H754.726V685.158C754.979 684.333 755.43 683.705 756.077 683.273C756.737 682.829 757.493 682.607 758.343 682.607C759.231 682.607 759.999 682.835 760.647 683.292C761.307 683.737 761.776 684.397 762.056 685.272C762.347 684.422 762.836 683.768 763.522 683.311C764.207 682.842 764.981 682.607 765.844 682.607ZM773.599 691.955C773.776 692.513 773.865 693.034 773.865 693.516C773.865 694.176 773.7 694.703 773.37 695.096C773.04 695.502 772.545 695.705 771.885 695.705V694.963C772.202 694.963 772.431 694.874 772.571 694.696C772.723 694.531 772.799 694.265 772.799 693.897V693.725H771.828V691.955H773.599ZM791.055 693.23H789.322L782.354 682.626V693.23H780.621V679.808H782.354L789.322 690.432V679.808H791.055V693.23ZM793.536 679.713C793.536 679.396 793.644 679.142 793.86 678.951C794.076 678.748 794.361 678.647 794.716 678.647C795.072 678.647 795.357 678.748 795.573 678.951C795.789 679.142 795.897 679.396 795.897 679.713C795.897 680.03 795.789 680.291 795.573 680.494C795.357 680.684 795.072 680.779 794.716 680.779C794.361 680.779 794.076 680.684 793.86 680.494C793.644 680.291 793.536 680.03 793.536 679.713ZM795.573 682.778V693.23H793.841V682.778H795.573ZM802.985 682.645C804.318 682.645 805.422 683 806.298 683.711C807.174 684.422 807.713 685.374 807.916 686.567H806.088C805.961 685.818 805.612 685.234 805.041 684.815C804.483 684.384 803.785 684.168 802.947 684.168C802.338 684.168 801.779 684.308 801.272 684.587C800.777 684.866 800.377 685.298 800.072 685.882C799.768 686.453 799.615 687.163 799.615 688.014C799.615 688.864 799.768 689.581 800.072 690.165C800.377 690.736 800.777 691.162 801.272 691.441C801.779 691.72 802.338 691.86 802.947 691.86C803.785 691.86 804.483 691.644 805.041 691.212C805.612 690.781 805.961 690.191 806.088 689.442H807.916C807.713 690.648 807.174 691.606 806.298 692.317C805.422 693.015 804.318 693.364 802.985 693.364C801.982 693.364 801.094 693.148 800.32 692.716C799.545 692.285 798.936 691.669 798.492 690.87C798.06 690.057 797.845 689.105 797.845 688.014C797.845 686.922 798.06 685.97 798.492 685.158C798.936 684.346 799.545 683.724 800.32 683.292C801.094 682.861 801.982 682.645 802.985 682.645ZM815.914 693.23L811.916 688.528V693.23H810.183V679.142H811.916V687.328L815.857 682.778H817.97L813.287 687.976L818.085 693.23H815.914ZM829.224 687.424C829.224 687.792 829.199 688.109 829.148 688.376H820.79C820.828 689.569 821.165 690.464 821.799 691.06C822.447 691.657 823.234 691.955 824.16 691.955C824.998 691.955 825.696 691.745 826.254 691.327C826.825 690.895 827.175 690.324 827.301 689.613H829.148C829.021 690.337 828.736 690.984 828.291 691.555C827.86 692.126 827.295 692.57 826.597 692.888C825.899 693.205 825.112 693.364 824.236 693.364C823.234 693.364 822.345 693.148 821.571 692.716C820.797 692.285 820.187 691.669 819.743 690.87C819.312 690.057 819.096 689.105 819.096 688.014C819.096 686.922 819.312 685.97 819.743 685.158C820.187 684.346 820.797 683.724 821.571 683.292C822.345 682.861 823.234 682.645 824.236 682.645C825.252 682.645 826.134 682.861 826.883 683.292C827.644 683.724 828.222 684.301 828.615 685.025C829.021 685.748 829.224 686.548 829.224 687.424ZM827.473 687.538C827.511 686.764 827.384 686.116 827.092 685.596C826.8 685.076 826.4 684.688 825.893 684.435C825.385 684.181 824.833 684.054 824.236 684.054C823.284 684.054 822.485 684.352 821.837 684.949C821.19 685.533 820.841 686.396 820.79 687.538H827.473ZM833.223 679.142V693.23H831.49V679.142H833.223Z" fill="white"/>
<g opacity="0.7">
<path d="M586.03 717.689C586.114 718.277 586.319 718.73 586.646 719.047C586.973 719.364 587.421 719.523 587.99 719.523C588.774 719.523 589.367 719.22 589.768 718.613C590.169 718.006 590.37 717.045 590.37 715.729C590.37 715.477 590.365 715.286 590.356 715.155C590.225 715.715 589.908 716.163 589.404 716.499C588.9 716.835 588.307 717.003 587.626 717.003C586.646 717.003 585.876 716.709 585.316 716.121C584.756 715.533 584.476 714.712 584.476 713.657C584.476 713.041 584.597 712.481 584.84 711.977C585.083 711.473 585.451 711.076 585.946 710.787C586.45 710.488 587.071 710.339 587.808 710.339C589.227 710.339 590.197 710.778 590.72 711.655C591.252 712.523 591.518 713.718 591.518 715.239C591.518 716.975 591.247 718.3 590.706 719.215C590.165 720.12 589.259 720.573 587.99 720.573C587.047 720.573 586.305 720.307 585.764 719.775C585.232 719.234 584.919 718.538 584.826 717.689H586.03ZM590.23 713.853C590.23 713.181 590.029 712.612 589.628 712.145C589.236 711.678 588.643 711.445 587.85 711.445C587.197 711.445 586.674 711.641 586.282 712.033C585.89 712.425 585.694 712.971 585.694 713.671C585.694 714.418 585.89 714.992 586.282 715.393C586.674 715.794 587.211 715.995 587.892 715.995C588.284 715.995 588.657 715.916 589.012 715.757C589.376 715.598 589.67 715.356 589.894 715.029C590.118 714.702 590.23 714.31 590.23 713.853ZM597.698 714.791V715.869H592.098V714.791H597.698ZM602.615 712.677C603.483 712.677 604.178 712.906 604.701 713.363C605.233 713.811 605.555 714.418 605.667 715.183H604.449C604.393 714.726 604.201 714.352 603.875 714.063C603.557 713.764 603.128 713.615 602.587 713.615C602.129 713.615 601.77 713.727 601.509 713.951C601.257 714.166 601.131 714.46 601.131 714.833C601.131 715.113 601.215 715.342 601.383 715.519C601.56 715.687 601.775 715.818 602.027 715.911C602.288 715.995 602.643 716.088 603.091 716.191C603.66 716.322 604.117 716.457 604.463 716.597C604.817 716.728 605.116 716.942 605.359 717.241C605.611 717.54 605.737 717.941 605.737 718.445C605.737 719.07 605.499 719.579 605.023 719.971C604.556 720.363 603.931 720.559 603.147 720.559C602.232 720.559 601.485 720.34 600.907 719.901C600.328 719.462 599.987 718.851 599.885 718.067H601.117C601.163 718.534 601.364 718.912 601.719 719.201C602.083 719.49 602.559 719.635 603.147 719.635C603.585 719.635 603.926 719.523 604.169 719.299C604.421 719.075 604.547 718.781 604.547 718.417C604.547 718.118 604.458 717.88 604.281 717.703C604.103 717.526 603.884 717.39 603.623 717.297C603.361 717.204 603.002 717.106 602.545 717.003C601.975 716.872 601.518 716.742 601.173 716.611C600.837 716.48 600.547 716.275 600.305 715.995C600.071 715.706 599.955 715.318 599.955 714.833C599.955 714.189 600.193 713.671 600.669 713.279C601.145 712.878 601.793 712.677 602.615 712.677ZM611.485 712.649C612.381 712.649 613.104 712.938 613.655 713.517C614.206 714.086 614.481 714.912 614.481 715.995V720.461H613.207V716.107C613.207 715.342 613.011 714.754 612.619 714.343C612.227 713.932 611.695 713.727 611.023 713.727C610.323 713.727 609.763 713.956 609.343 714.413C608.923 714.861 608.713 715.519 608.713 716.387V720.461H607.439V710.101H608.713V714.595C608.909 713.97 609.254 713.489 609.749 713.153C610.253 712.817 610.832 712.649 611.485 712.649ZM619.585 712.677C620.332 712.677 620.962 712.864 621.475 713.237C621.998 713.61 622.362 714.11 622.567 714.735V712.775H623.841V720.461H622.567V718.501C622.362 719.126 621.998 719.626 621.475 719.999C620.962 720.372 620.332 720.559 619.585 720.559C618.904 720.559 618.297 720.4 617.765 720.083C617.233 719.766 616.813 719.313 616.505 718.725C616.206 718.128 616.057 717.428 616.057 716.625C616.057 715.822 616.206 715.122 616.505 714.525C616.813 713.928 617.233 713.47 617.765 713.153C618.297 712.836 618.904 712.677 619.585 712.677ZM619.949 713.811C619.165 713.811 618.535 714.063 618.059 714.567C617.592 715.062 617.359 715.748 617.359 716.625C617.359 717.502 617.592 718.193 618.059 718.697C618.535 719.192 619.165 719.439 619.949 719.439C620.453 719.439 620.901 719.322 621.293 719.089C621.694 718.856 622.007 718.529 622.231 718.109C622.455 717.68 622.567 717.185 622.567 716.625C622.567 716.065 622.455 715.57 622.231 715.141C622.007 714.712 621.694 714.385 621.293 714.161C620.901 713.928 620.453 713.811 619.949 713.811ZM629.271 710.955C628.589 710.946 628.113 711.062 627.843 711.305C627.581 711.548 627.451 711.968 627.451 712.565V712.775H629.271V713.895H627.451V720.461H626.177V713.895H625.071V712.775H626.177V712.467C626.177 710.628 627.208 709.751 629.271 709.835V710.955ZM634.322 719.341V720.461H633.37C632.586 720.461 631.998 720.274 631.606 719.901C631.223 719.528 631.032 718.902 631.032 718.025V713.881H629.884V712.775H631.032V710.857H632.32V712.775H634.308V713.881H632.32V718.053C632.32 718.548 632.409 718.888 632.586 719.075C632.773 719.252 633.09 719.341 633.538 719.341H634.322ZM640.539 710.591V716.513C640.539 717.484 640.754 718.202 641.183 718.669C641.613 719.126 642.205 719.355 642.961 719.355C643.708 719.355 644.291 719.122 644.711 718.655C645.131 718.188 645.341 717.474 645.341 716.513V710.591H646.615V716.513C646.615 717.857 646.279 718.87 645.607 719.551C644.945 720.223 644.053 720.559 642.933 720.559C641.823 720.559 640.931 720.223 640.259 719.551C639.597 718.87 639.265 717.857 639.265 716.513V710.591H640.539ZM652.637 712.649C653.533 712.649 654.257 712.938 654.807 713.517C655.358 714.086 655.633 714.912 655.633 715.995V720.461H654.359V716.107C654.359 715.342 654.163 714.754 653.771 714.343C653.379 713.932 652.847 713.727 652.175 713.727C651.475 713.727 650.915 713.956 650.495 714.413C650.075 714.861 649.865 715.519 649.865 716.387V720.461H648.591V712.775H649.865V714.595C650.061 713.97 650.407 713.489 650.901 713.153C651.405 712.817 651.984 712.649 652.637 712.649ZM660.737 712.677C661.484 712.677 662.114 712.864 662.627 713.237C663.15 713.61 663.514 714.11 663.719 714.735V710.101H664.993V720.461H663.719V718.501C663.514 719.126 663.15 719.626 662.627 719.999C662.114 720.372 661.484 720.559 660.737 720.559C660.056 720.559 659.449 720.4 658.917 720.083C658.385 719.766 657.965 719.313 657.657 718.725C657.359 718.128 657.209 717.428 657.209 716.625C657.209 715.822 657.359 715.122 657.657 714.525C657.965 713.928 658.385 713.47 658.917 713.153C659.449 712.836 660.056 712.677 660.737 712.677ZM661.101 713.811C660.317 713.811 659.687 714.063 659.211 714.567C658.745 715.062 658.511 715.748 658.511 716.625C658.511 717.502 658.745 718.193 659.211 718.697C659.687 719.192 660.317 719.439 661.101 719.439C661.605 719.439 662.053 719.322 662.445 719.089C662.847 718.856 663.159 718.529 663.383 718.109C663.607 717.68 663.719 717.185 663.719 716.625C663.719 716.065 663.607 715.57 663.383 715.141C663.159 714.712 662.847 714.385 662.445 714.161C662.053 713.928 661.605 713.811 661.101 713.811ZM674.091 716.191C674.091 716.462 674.072 716.695 674.035 716.891H667.889C667.917 717.768 668.164 718.426 668.631 718.865C669.107 719.304 669.686 719.523 670.367 719.523C670.983 719.523 671.496 719.369 671.907 719.061C672.327 718.744 672.584 718.324 672.677 717.801H674.035C673.942 718.333 673.732 718.809 673.405 719.229C673.088 719.649 672.672 719.976 672.159 720.209C671.646 720.442 671.067 720.559 670.423 720.559C669.686 720.559 669.032 720.4 668.463 720.083C667.894 719.766 667.446 719.313 667.119 718.725C666.802 718.128 666.643 717.428 666.643 716.625C666.643 715.822 666.802 715.122 667.119 714.525C667.446 713.928 667.894 713.47 668.463 713.153C669.032 712.836 669.686 712.677 670.423 712.677C671.17 712.677 671.818 712.836 672.369 713.153C672.929 713.47 673.354 713.895 673.643 714.427C673.942 714.959 674.091 715.547 674.091 716.191ZM672.803 716.275C672.831 715.706 672.738 715.23 672.523 714.847C672.308 714.464 672.014 714.18 671.641 713.993C671.268 713.806 670.862 713.713 670.423 713.713C669.723 713.713 669.135 713.932 668.659 714.371C668.183 714.8 667.926 715.435 667.889 716.275H672.803ZM677.031 714.329C677.283 713.797 677.652 713.386 678.137 713.097C678.623 712.798 679.201 712.649 679.873 712.649V714.035H679.481C678.763 714.035 678.175 714.222 677.717 714.595C677.26 714.959 677.031 715.566 677.031 716.415V720.461H675.757V712.775H677.031V714.329ZM684.28 712.677C685.027 712.677 685.657 712.864 686.17 713.237C686.693 713.61 687.057 714.11 687.262 714.735V712.775H688.536V720.587C688.536 721.296 688.387 721.926 688.088 722.477C687.79 723.028 687.37 723.457 686.828 723.765C686.287 724.073 685.657 724.227 684.938 724.227C683.902 724.227 683.058 723.975 682.404 723.471C681.751 722.976 681.336 722.304 681.158 721.455H682.418C682.568 721.968 682.848 722.37 683.258 722.659C683.678 722.958 684.215 723.107 684.868 723.107C685.559 723.107 686.128 722.883 686.576 722.435C687.034 721.996 687.262 721.38 687.262 720.587V718.501C687.057 719.126 686.693 719.626 686.17 719.999C685.657 720.372 685.027 720.559 684.28 720.559C683.599 720.559 682.992 720.4 682.46 720.083C681.928 719.766 681.508 719.313 681.2 718.725C680.902 718.128 680.752 717.428 680.752 716.625C680.752 715.822 680.902 715.122 681.2 714.525C681.508 713.928 681.928 713.47 682.46 713.153C682.992 712.836 683.599 712.677 684.28 712.677ZM684.644 713.811C683.86 713.811 683.23 714.063 682.754 714.567C682.288 715.062 682.054 715.748 682.054 716.625C682.054 717.502 682.288 718.193 682.754 718.697C683.23 719.192 683.86 719.439 684.644 719.439C685.148 719.439 685.596 719.322 685.988 719.089C686.39 718.856 686.702 718.529 686.926 718.109C687.15 717.68 687.262 717.185 687.262 716.625C687.262 716.065 687.15 715.57 686.926 715.141C686.702 714.712 686.39 714.385 685.988 714.161C685.596 713.928 685.148 713.811 684.644 713.811ZM691.838 714.329C692.09 713.797 692.459 713.386 692.944 713.097C693.429 712.798 694.008 712.649 694.68 712.649V714.035H694.288C693.569 714.035 692.981 714.222 692.524 714.595C692.067 714.959 691.838 715.566 691.838 716.415V720.461H690.564V712.775H691.838V714.329ZM699.423 712.677C700.16 712.677 700.818 712.836 701.397 713.153C701.985 713.47 702.442 713.928 702.769 714.525C703.105 715.122 703.273 715.822 703.273 716.625C703.273 717.428 703.105 718.128 702.769 718.725C702.442 719.313 701.985 719.766 701.397 720.083C700.818 720.4 700.16 720.559 699.423 720.559C698.686 720.559 698.023 720.4 697.435 720.083C696.856 719.766 696.399 719.313 696.063 718.725C695.727 718.128 695.559 717.428 695.559 716.625C695.559 715.822 695.727 715.122 696.063 714.525C696.399 713.928 696.856 713.47 697.435 713.153C698.023 712.836 698.686 712.677 699.423 712.677ZM699.423 713.797C698.966 713.797 698.541 713.9 698.149 714.105C697.766 714.31 697.454 714.628 697.211 715.057C696.978 715.477 696.861 716 696.861 716.625C696.861 717.241 696.978 717.764 697.211 718.193C697.454 718.613 697.766 718.926 698.149 719.131C698.541 719.336 698.966 719.439 699.423 719.439C699.88 719.439 700.3 719.336 700.683 719.131C701.075 718.926 701.388 718.613 701.621 718.193C701.864 717.764 701.985 717.241 701.985 716.625C701.985 716 701.864 715.477 701.621 715.057C701.388 714.628 701.075 714.31 700.683 714.105C700.3 713.9 699.88 713.797 699.423 713.797ZM711.765 712.775V720.461H710.491V718.655C710.295 719.28 709.945 719.761 709.441 720.097C708.946 720.424 708.368 720.587 707.705 720.587C706.818 720.587 706.1 720.302 705.549 719.733C704.998 719.154 704.723 718.328 704.723 717.255V712.775H705.997V717.129C705.997 717.894 706.193 718.487 706.585 718.907C706.977 719.318 707.509 719.523 708.181 719.523C708.881 719.523 709.441 719.299 709.861 718.851C710.281 718.394 710.491 717.731 710.491 716.863V712.775H711.765ZM717.852 712.649C718.748 712.649 719.472 712.938 720.022 713.517C720.573 714.086 720.848 714.912 720.848 715.995V720.461H719.574V716.107C719.574 715.342 719.378 714.754 718.986 714.343C718.594 713.932 718.062 713.727 717.39 713.727C716.69 713.727 716.13 713.956 715.71 714.413C715.29 714.861 715.08 715.519 715.08 716.387V720.461H713.806V712.775H715.08V714.595C715.276 713.97 715.622 713.489 716.116 713.153C716.62 712.817 717.199 712.649 717.852 712.649ZM725.952 712.677C726.699 712.677 727.329 712.864 727.842 713.237C728.365 713.61 728.729 714.11 728.934 714.735V710.101H730.208V720.461H728.934V718.501C728.729 719.126 728.365 719.626 727.842 719.999C727.329 720.372 726.699 720.559 725.952 720.559C725.271 720.559 724.664 720.4 724.132 720.083C723.6 719.766 723.18 719.313 722.872 718.725C722.574 718.128 722.424 717.428 722.424 716.625C722.424 715.822 722.574 715.122 722.872 714.525C723.18 713.928 723.6 713.47 724.132 713.153C724.664 712.836 725.271 712.677 725.952 712.677ZM726.316 713.811C725.532 713.811 724.902 714.063 724.426 714.567C723.96 715.062 723.726 715.748 723.726 716.625C723.726 717.502 723.96 718.193 724.426 718.697C724.902 719.192 725.532 719.439 726.316 719.439C726.82 719.439 727.268 719.322 727.66 719.089C728.062 718.856 728.374 718.529 728.598 718.109C728.822 717.68 728.934 717.185 728.934 716.625C728.934 716.065 728.822 715.57 728.598 715.141C728.374 714.712 728.062 714.385 727.66 714.161C727.268 713.928 726.82 713.811 726.316 713.811ZM740.063 710.493C741.267 710.493 742.261 710.792 743.045 711.389C743.829 711.977 744.37 712.784 744.669 713.811H743.325C743.073 713.158 742.667 712.64 742.107 712.257C741.547 711.865 740.861 711.669 740.049 711.669C739.405 711.669 738.826 711.828 738.313 712.145C737.809 712.453 737.408 712.901 737.109 713.489C736.82 714.068 736.675 714.749 736.675 715.533C736.675 716.308 736.82 716.984 737.109 717.563C737.408 718.142 737.809 718.59 738.313 718.907C738.826 719.215 739.405 719.369 740.049 719.369C740.861 719.369 741.547 719.178 742.107 718.795C742.667 718.403 743.073 717.88 743.325 717.227H744.669C744.37 718.254 743.829 719.066 743.045 719.663C742.261 720.251 741.267 720.545 740.063 720.545C739.139 720.545 738.322 720.335 737.613 719.915C736.904 719.486 736.348 718.893 735.947 718.137C735.555 717.372 735.359 716.504 735.359 715.533C735.359 714.553 735.555 713.68 735.947 712.915C736.348 712.15 736.904 711.557 737.613 711.137C738.322 710.708 739.139 710.493 740.063 710.493ZM749.859 712.677C750.596 712.677 751.254 712.836 751.833 713.153C752.421 713.47 752.878 713.928 753.205 714.525C753.541 715.122 753.709 715.822 753.709 716.625C753.709 717.428 753.541 718.128 753.205 718.725C752.878 719.313 752.421 719.766 751.833 720.083C751.254 720.4 750.596 720.559 749.859 720.559C749.121 720.559 748.459 720.4 747.871 720.083C747.292 719.766 746.835 719.313 746.499 718.725C746.163 718.128 745.995 717.428 745.995 716.625C745.995 715.822 746.163 715.122 746.499 714.525C746.835 713.928 747.292 713.47 747.871 713.153C748.459 712.836 749.121 712.677 749.859 712.677ZM749.859 713.797C749.401 713.797 748.977 713.9 748.585 714.105C748.202 714.31 747.889 714.628 747.647 715.057C747.413 715.477 747.297 716 747.297 716.625C747.297 717.241 747.413 717.764 747.647 718.193C747.889 718.613 748.202 718.926 748.585 719.131C748.977 719.336 749.401 719.439 749.859 719.439C750.316 719.439 750.736 719.336 751.119 719.131C751.511 718.926 751.823 718.613 752.057 718.193C752.299 717.764 752.421 717.241 752.421 716.625C752.421 716 752.299 715.477 752.057 715.057C751.823 714.628 751.511 714.31 751.119 714.105C750.736 713.9 750.316 713.797 749.859 713.797ZM764.819 712.649C765.715 712.649 766.433 712.938 766.975 713.517C767.525 714.086 767.801 714.912 767.801 715.995V720.461H766.527V716.107C766.527 715.351 766.34 714.772 765.967 714.371C765.603 713.97 765.099 713.769 764.455 713.769C763.783 713.769 763.241 713.993 762.831 714.441C762.429 714.88 762.229 715.528 762.229 716.387V720.461H760.955V716.107C760.955 715.351 760.768 714.772 760.395 714.371C760.021 713.97 759.517 713.769 758.883 713.769C758.201 713.769 757.655 713.993 757.245 714.441C756.843 714.88 756.643 715.528 756.643 716.387V720.461H755.369V712.775H756.643V714.525C756.829 713.918 757.161 713.456 757.637 713.139C758.122 712.812 758.677 712.649 759.303 712.649C759.956 712.649 760.521 712.817 760.997 713.153C761.482 713.48 761.827 713.965 762.033 714.609C762.247 713.984 762.607 713.503 763.111 713.167C763.615 712.822 764.184 712.649 764.819 712.649ZM774.021 712.677C774.702 712.677 775.309 712.836 775.841 713.153C776.373 713.47 776.788 713.928 777.087 714.525C777.395 715.122 777.549 715.822 777.549 716.625C777.549 717.428 777.395 718.128 777.087 718.725C776.788 719.313 776.373 719.766 775.841 720.083C775.309 720.4 774.702 720.559 774.021 720.559C773.274 720.559 772.64 720.372 772.117 719.999C771.604 719.616 771.249 719.117 771.053 718.501V724.101H769.779V712.775H771.053V714.735C771.249 714.119 771.604 713.624 772.117 713.251C772.64 712.868 773.274 712.677 774.021 712.677ZM773.657 713.811C773.162 713.811 772.714 713.928 772.313 714.161C771.912 714.385 771.599 714.712 771.375 715.141C771.151 715.57 771.039 716.065 771.039 716.625C771.039 717.185 771.151 717.68 771.375 718.109C771.599 718.529 771.912 718.856 772.313 719.089C772.714 719.322 773.162 719.439 773.657 719.439C774.45 719.439 775.08 719.192 775.547 718.697C776.023 718.193 776.261 717.502 776.261 716.625C776.261 715.748 776.023 715.062 775.547 714.567C775.08 714.063 774.45 713.811 773.657 713.811ZM780.486 710.101V720.461H779.212V710.101H780.486ZM789.605 716.191C789.605 716.462 789.586 716.695 789.549 716.891H783.403C783.431 717.768 783.678 718.426 784.145 718.865C784.621 719.304 785.199 719.523 785.881 719.523C786.497 719.523 787.01 719.369 787.421 719.061C787.841 718.744 788.097 718.324 788.191 717.801H789.549C789.455 718.333 789.245 718.809 788.919 719.229C788.601 719.649 788.186 719.976 787.673 720.209C787.159 720.442 786.581 720.559 785.937 720.559C785.199 720.559 784.546 720.4 783.977 720.083C783.407 719.766 782.959 719.313 782.633 718.725C782.315 718.128 782.157 717.428 782.157 716.625C782.157 715.822 782.315 715.122 782.633 714.525C782.959 713.928 783.407 713.47 783.977 713.153C784.546 712.836 785.199 712.677 785.937 712.677C786.683 712.677 787.332 712.836 787.883 713.153C788.443 713.47 788.867 713.895 789.157 714.427C789.455 714.959 789.605 715.547 789.605 716.191ZM788.317 716.275C788.345 715.706 788.251 715.23 788.037 714.847C787.822 714.464 787.528 714.18 787.155 713.993C786.781 713.806 786.375 713.713 785.937 713.713C785.237 713.713 784.649 713.932 784.173 714.371C783.697 714.8 783.44 715.435 783.403 716.275H788.317ZM795.695 720.461L793.693 717.521L791.887 720.461H790.473L792.993 716.499L790.459 712.775H791.915L793.861 715.631L795.639 712.775H797.053L794.547 716.639L797.151 720.461H795.695ZM589.18 731.493C590.384 731.493 591.378 731.792 592.162 732.389C592.946 732.977 593.487 733.784 593.786 734.811H592.442C592.19 734.158 591.784 733.64 591.224 733.257C590.664 732.865 589.978 732.669 589.166 732.669C588.522 732.669 587.943 732.828 587.43 733.145C586.926 733.453 586.525 733.901 586.226 734.489C585.937 735.068 585.792 735.749 585.792 736.533C585.792 737.308 585.937 737.984 586.226 738.563C586.525 739.142 586.926 739.59 587.43 739.907C587.943 740.215 588.522 740.369 589.166 740.369C589.978 740.369 590.664 740.178 591.224 739.795C591.784 739.403 592.19 738.88 592.442 738.227H593.786C593.487 739.254 592.946 740.066 592.162 740.663C591.378 741.251 590.384 741.545 589.18 741.545C588.256 741.545 587.439 741.335 586.73 740.915C586.021 740.486 585.465 739.893 585.064 739.137C584.672 738.372 584.476 737.504 584.476 736.533C584.476 735.553 584.672 734.68 585.064 733.915C585.465 733.15 586.021 732.557 586.73 732.137C587.439 731.708 588.256 731.493 589.18 731.493ZM598.976 733.677C599.713 733.677 600.371 733.836 600.95 734.153C601.538 734.47 601.995 734.928 602.322 735.525C602.658 736.122 602.826 736.822 602.826 737.625C602.826 738.428 602.658 739.128 602.322 739.725C601.995 740.313 601.538 740.766 600.95 741.083C600.371 741.4 599.713 741.559 598.976 741.559C598.238 741.559 597.576 741.4 596.988 741.083C596.409 740.766 595.952 740.313 595.616 739.725C595.28 739.128 595.112 738.428 595.112 737.625C595.112 736.822 595.28 736.122 595.616 735.525C595.952 734.928 596.409 734.47 596.988 734.153C597.576 733.836 598.238 733.677 598.976 733.677ZM598.976 734.797C598.518 734.797 598.094 734.9 597.702 735.105C597.319 735.31 597.006 735.628 596.764 736.057C596.53 736.477 596.414 737 596.414 737.625C596.414 738.241 596.53 738.764 596.764 739.193C597.006 739.613 597.319 739.926 597.702 740.131C598.094 740.336 598.518 740.439 598.976 740.439C599.433 740.439 599.853 740.336 600.236 740.131C600.628 739.926 600.94 739.613 601.174 739.193C601.416 738.764 601.538 738.241 601.538 737.625C601.538 737 601.416 736.477 601.174 736.057C600.94 735.628 600.628 735.31 600.236 735.105C599.853 734.9 599.433 734.797 598.976 734.797ZM608.532 733.649C609.428 733.649 610.151 733.938 610.702 734.517C611.253 735.086 611.528 735.912 611.528 736.995V741.461H610.254V737.107C610.254 736.342 610.058 735.754 609.666 735.343C609.274 734.932 608.742 734.727 608.07 734.727C607.37 734.727 606.81 734.956 606.39 735.413C605.97 735.861 605.76 736.519 605.76 737.387V741.461H604.486V733.775H605.76V735.595C605.956 734.97 606.301 734.489 606.796 734.153C607.3 733.817 607.879 733.649 608.532 733.649ZM616.884 733.677C617.864 733.677 618.676 733.938 619.32 734.461C619.964 734.984 620.361 735.684 620.51 736.561H619.166C619.073 736.01 618.816 735.581 618.396 735.273C617.985 734.956 617.472 734.797 616.856 734.797C616.408 734.797 615.997 734.9 615.624 735.105C615.26 735.31 614.966 735.628 614.742 736.057C614.518 736.477 614.406 737 614.406 737.625C614.406 738.25 614.518 738.778 614.742 739.207C614.966 739.627 615.26 739.94 615.624 740.145C615.997 740.35 616.408 740.453 616.856 740.453C617.472 740.453 617.985 740.294 618.396 739.977C618.816 739.66 619.073 739.226 619.166 738.675H620.51C620.361 739.562 619.964 740.266 619.32 740.789C618.676 741.302 617.864 741.559 616.884 741.559C616.147 741.559 615.493 741.4 614.924 741.083C614.355 740.766 613.907 740.313 613.58 739.725C613.263 739.128 613.104 738.428 613.104 737.625C613.104 736.822 613.263 736.122 613.58 735.525C613.907 734.928 614.355 734.47 614.924 734.153C615.493 733.836 616.147 733.677 616.884 733.677ZM629.247 737.191C629.247 737.462 629.229 737.695 629.191 737.891H623.045C623.073 738.768 623.321 739.426 623.787 739.865C624.263 740.304 624.842 740.523 625.523 740.523C626.139 740.523 626.653 740.369 627.063 740.061C627.483 739.744 627.74 739.324 627.833 738.801H629.191C629.098 739.333 628.888 739.809 628.561 740.229C628.244 740.649 627.829 740.976 627.315 741.209C626.802 741.442 626.223 741.559 625.579 741.559C624.842 741.559 624.189 741.4 623.619 741.083C623.05 740.766 622.602 740.313 622.275 739.725C621.958 739.128 621.799 738.428 621.799 737.625C621.799 736.822 621.958 736.122 622.275 735.525C622.602 734.928 623.05 734.47 623.619 734.153C624.189 733.836 624.842 733.677 625.579 733.677C626.326 733.677 626.975 733.836 627.525 734.153C628.085 734.47 628.51 734.895 628.799 735.427C629.098 735.959 629.247 736.547 629.247 737.191ZM627.959 737.275C627.987 736.706 627.894 736.23 627.679 735.847C627.465 735.464 627.171 735.18 626.797 734.993C626.424 734.806 626.018 734.713 625.579 734.713C624.879 734.713 624.291 734.932 623.815 735.371C623.339 735.8 623.083 736.435 623.045 737.275H627.959ZM634.96 733.649C635.856 733.649 636.579 733.938 637.13 734.517C637.68 735.086 637.956 735.912 637.956 736.995V741.461H636.682V737.107C636.682 736.342 636.486 735.754 636.094 735.343C635.702 734.932 635.17 734.727 634.498 734.727C633.798 734.727 633.238 734.956 632.818 735.413C632.398 735.861 632.188 736.519 632.188 737.387V741.461H630.914V733.775H632.188V735.595C632.384 734.97 632.729 734.489 633.224 734.153C633.728 733.817 634.306 733.649 634.96 733.649ZM643.578 740.341V741.461H642.626C641.842 741.461 641.254 741.274 640.862 740.901C640.479 740.528 640.288 739.902 640.288 739.025V734.881H639.14V733.775H640.288V731.857H641.576V733.775H643.564V734.881H641.576V739.053C641.576 739.548 641.664 739.888 641.842 740.075C642.028 740.252 642.346 740.341 642.794 740.341H643.578ZM646.406 735.329C646.658 734.797 647.027 734.386 647.512 734.097C647.998 733.798 648.576 733.649 649.248 733.649V735.035H648.856C648.138 735.035 647.55 735.222 647.092 735.595C646.635 735.959 646.406 736.566 646.406 737.415V741.461H645.132V733.775H646.406V735.329ZM653.655 733.677C654.402 733.677 655.032 733.864 655.545 734.237C656.068 734.61 656.432 735.11 656.637 735.735V733.775H657.911V741.461H656.637V739.501C656.432 740.126 656.068 740.626 655.545 740.999C655.032 741.372 654.402 741.559 653.655 741.559C652.974 741.559 652.367 741.4 651.835 741.083C651.303 740.766 650.883 740.313 650.575 739.725C650.277 739.128 650.127 738.428 650.127 737.625C650.127 736.822 650.277 736.122 650.575 735.525C650.883 734.928 651.303 734.47 651.835 734.153C652.367 733.836 652.974 733.677 653.655 733.677ZM654.019 734.811C653.235 734.811 652.605 735.063 652.129 735.567C651.663 736.062 651.429 736.748 651.429 737.625C651.429 738.502 651.663 739.193 652.129 739.697C652.605 740.192 653.235 740.439 654.019 740.439C654.523 740.439 654.971 740.322 655.363 740.089C655.765 739.856 656.077 739.529 656.301 739.109C656.525 738.68 656.637 738.185 656.637 737.625C656.637 737.065 656.525 736.57 656.301 736.141C656.077 735.712 655.765 735.385 655.363 735.161C654.971 734.928 654.523 734.811 654.019 734.811ZM663.607 740.341V741.461H662.655C661.871 741.461 661.283 741.274 660.891 740.901C660.508 740.528 660.317 739.902 660.317 739.025V734.881H659.169V733.775H660.317V731.857H661.605V733.775H663.593V734.881H661.605V739.053C661.605 739.548 661.694 739.888 661.871 740.075C662.058 740.252 662.375 740.341 662.823 740.341H663.607ZM668.648 733.677C669.385 733.677 670.043 733.836 670.622 734.153C671.21 734.47 671.667 734.928 671.994 735.525C672.33 736.122 672.498 736.822 672.498 737.625C672.498 738.428 672.33 739.128 671.994 739.725C671.667 740.313 671.21 740.766 670.622 741.083C670.043 741.4 669.385 741.559 668.648 741.559C667.91 741.559 667.248 741.4 666.66 741.083C666.081 740.766 665.624 740.313 665.288 739.725C664.952 739.128 664.784 738.428 664.784 737.625C664.784 736.822 664.952 736.122 665.288 735.525C665.624 734.928 666.081 734.47 666.66 734.153C667.248 733.836 667.91 733.677 668.648 733.677ZM668.648 734.797C668.19 734.797 667.766 734.9 667.374 735.105C666.991 735.31 666.678 735.628 666.436 736.057C666.202 736.477 666.086 737 666.086 737.625C666.086 738.241 666.202 738.764 666.436 739.193C666.678 739.613 666.991 739.926 667.374 740.131C667.766 740.336 668.19 740.439 668.648 740.439C669.105 740.439 669.525 740.336 669.908 740.131C670.3 739.926 670.612 739.613 670.846 739.193C671.088 738.764 671.21 738.241 671.21 737.625C671.21 737 671.088 736.477 670.846 736.057C670.612 735.628 670.3 735.31 669.908 735.105C669.525 734.9 669.105 734.797 668.648 734.797ZM675.432 735.329C675.684 734.797 676.052 734.386 676.538 734.097C677.023 733.798 677.602 733.649 678.274 733.649V735.035H677.882C677.163 735.035 676.575 735.222 676.118 735.595C675.66 735.959 675.432 736.566 675.432 737.415V741.461H674.158V733.775H675.432V735.329ZM684.264 737.485V741.461H682.99V731.591H686.126C687.255 731.591 688.1 731.857 688.66 732.389C689.22 732.912 689.5 733.63 689.5 734.545C689.5 735.469 689.21 736.192 688.632 736.715C688.053 737.228 687.218 737.485 686.126 737.485H684.264ZM686.014 736.421C686.788 736.421 687.344 736.258 687.68 735.931C688.025 735.604 688.198 735.142 688.198 734.545C688.198 733.929 688.025 733.462 687.68 733.145C687.344 732.818 686.788 732.655 686.014 732.655H684.264V736.421H686.014ZM692.262 731.101V741.461H690.988V731.101H692.262ZM697.46 733.677C698.207 733.677 698.837 733.864 699.35 734.237C699.873 734.61 700.237 735.11 700.442 735.735V733.775H701.716V741.461H700.442V739.501C700.237 740.126 699.873 740.626 699.35 740.999C698.837 741.372 698.207 741.559 697.46 741.559C696.779 741.559 696.172 741.4 695.64 741.083C695.108 740.766 694.688 740.313 694.38 739.725C694.081 739.128 693.932 738.428 693.932 737.625C693.932 736.822 694.081 736.122 694.38 735.525C694.688 734.928 695.108 734.47 695.64 734.153C696.172 733.836 696.779 733.677 697.46 733.677ZM697.824 734.811C697.04 734.811 696.41 735.063 695.934 735.567C695.467 736.062 695.234 736.748 695.234 737.625C695.234 738.502 695.467 739.193 695.934 739.697C696.41 740.192 697.04 740.439 697.824 740.439C698.328 740.439 698.776 740.322 699.168 740.089C699.569 739.856 699.882 739.529 700.106 739.109C700.33 738.68 700.442 738.185 700.442 737.625C700.442 737.065 700.33 736.57 700.106 736.141C699.882 735.712 699.569 735.385 699.168 735.161C698.776 734.928 698.328 734.811 697.824 734.811ZM707.79 733.649C708.686 733.649 709.409 733.938 709.96 734.517C710.51 735.086 710.786 735.912 710.786 736.995V741.461H709.512V737.107C709.512 736.342 709.316 735.754 708.924 735.343C708.532 734.932 708 734.727 707.328 734.727C706.628 734.727 706.068 734.956 705.648 735.413C705.228 735.861 705.018 736.519 705.018 737.387V741.461H703.744V733.775H705.018V735.595C705.214 734.97 705.559 734.489 706.054 734.153C706.558 733.817 707.136 733.649 707.79 733.649ZM716.408 740.341V741.461H715.456C714.672 741.461 714.084 741.274 713.692 740.901C713.309 740.528 713.118 739.902 713.118 739.025V734.881H711.97V733.775H713.118V731.857H714.406V733.775H716.394V734.881H714.406V739.053C714.406 739.548 714.494 739.888 714.672 740.075C714.858 740.252 715.176 740.341 715.624 740.341H716.408ZM718.704 740.523C718.835 740.934 718.9 741.316 718.9 741.671C718.9 742.156 718.779 742.544 718.536 742.833C718.294 743.132 717.93 743.281 717.444 743.281V742.735C717.678 742.735 717.846 742.67 717.948 742.539C718.06 742.418 718.116 742.222 718.116 741.951V741.825H717.402V740.523H718.704ZM730.113 738.899C730.113 739.366 730.001 739.8 729.777 740.201C729.553 740.602 729.212 740.929 728.755 741.181C728.297 741.433 727.733 741.559 727.061 741.559C726.407 741.559 725.824 741.442 725.311 741.209C724.807 740.966 724.401 740.64 724.093 740.229C723.794 739.809 723.621 739.333 723.575 738.801H724.933C724.961 739.081 725.054 739.356 725.213 739.627C725.381 739.888 725.614 740.108 725.913 740.285C726.221 740.453 726.589 740.537 727.019 740.537C727.579 740.537 728.008 740.388 728.307 740.089C728.605 739.79 728.755 739.408 728.755 738.941C728.755 738.54 728.647 738.213 728.433 737.961C728.227 737.709 727.971 737.513 727.663 737.373C727.355 737.224 726.935 737.065 726.403 736.897C725.777 736.692 725.273 736.5 724.891 736.323C724.517 736.136 724.195 735.861 723.925 735.497C723.663 735.133 723.533 734.652 723.533 734.055C723.533 733.542 723.654 733.089 723.897 732.697C724.149 732.305 724.503 732.002 724.961 731.787C725.427 731.572 725.973 731.465 726.599 731.465C727.569 731.465 728.339 731.703 728.909 732.179C729.478 732.646 729.809 733.243 729.903 733.971H728.531C728.456 733.579 728.255 733.234 727.929 732.935C727.602 732.636 727.159 732.487 726.599 732.487C726.085 732.487 725.675 732.622 725.367 732.893C725.059 733.154 724.905 733.528 724.905 734.013C724.905 734.396 725.003 734.708 725.199 734.951C725.404 735.184 725.656 735.371 725.955 735.511C726.253 735.642 726.664 735.791 727.187 735.959C727.821 736.164 728.33 736.36 728.713 736.547C729.105 736.734 729.436 737.018 729.707 737.401C729.977 737.774 730.113 738.274 730.113 738.899ZM741.276 733.649C742.172 733.649 742.89 733.938 743.432 734.517C743.982 735.086 744.258 735.912 744.258 736.995V741.461H742.984V737.107C742.984 736.351 742.797 735.772 742.424 735.371C742.06 734.97 741.556 734.769 740.912 734.769C740.24 734.769 739.698 734.993 739.288 735.441C738.886 735.88 738.686 736.528 738.686 737.387V741.461H737.412V737.107C737.412 736.351 737.225 735.772 736.852 735.371C736.478 734.97 735.974 734.769 735.34 734.769C734.658 734.769 734.112 734.993 733.702 735.441C733.3 735.88 733.1 736.528 733.1 737.387V741.461H731.826V733.775H733.1V735.525C733.286 734.918 733.618 734.456 734.094 734.139C734.579 733.812 735.134 733.649 735.76 733.649C736.413 733.649 736.978 733.817 737.454 734.153C737.939 734.48 738.284 734.965 738.49 735.609C738.704 734.984 739.064 734.503 739.568 734.167C740.072 733.822 740.641 733.649 741.276 733.649ZM753.306 737.191C753.306 737.462 753.287 737.695 753.25 737.891H747.104C747.132 738.768 747.379 739.426 747.846 739.865C748.322 740.304 748.901 740.523 749.582 740.523C750.198 740.523 750.711 740.369 751.122 740.061C751.542 739.744 751.799 739.324 751.892 738.801H753.25C753.157 739.333 752.947 739.809 752.62 740.229C752.303 740.649 751.887 740.976 751.374 741.209C750.861 741.442 750.282 741.559 749.638 741.559C748.901 741.559 748.247 741.4 747.678 741.083C747.109 740.766 746.661 740.313 746.334 739.725C746.017 739.128 745.858 738.428 745.858 737.625C745.858 736.822 746.017 736.122 746.334 735.525C746.661 734.928 747.109 734.47 747.678 734.153C748.247 733.836 748.901 733.677 749.638 733.677C750.385 733.677 751.033 733.836 751.584 734.153C752.144 734.47 752.569 734.895 752.858 735.427C753.157 735.959 753.306 736.547 753.306 737.191ZM752.018 737.275C752.046 736.706 751.953 736.23 751.738 735.847C751.523 735.464 751.229 735.18 750.856 734.993C750.483 734.806 750.077 734.713 749.638 734.713C748.938 734.713 748.35 734.932 747.874 735.371C747.398 735.8 747.141 736.435 747.104 737.275H752.018ZM756.246 731.101V741.461H754.972V731.101H756.246ZM761.962 740.341V741.461H761.01C760.226 741.461 759.638 741.274 759.246 740.901C758.864 740.528 758.672 739.902 758.672 739.025V734.881H757.524V733.775H758.672V731.857H759.96V733.775H761.948V734.881H759.96V739.053C759.96 739.548 760.049 739.888 760.226 740.075C760.413 740.252 760.73 740.341 761.178 740.341H761.962ZM770.587 737.191C770.587 737.462 770.568 737.695 770.531 737.891H764.385C764.413 738.768 764.66 739.426 765.127 739.865C765.603 740.304 766.182 740.523 766.863 740.523C767.479 740.523 767.992 740.369 768.403 740.061C768.823 739.744 769.08 739.324 769.173 738.801H770.531C770.438 739.333 770.228 739.809 769.901 740.229C769.584 740.649 769.168 740.976 768.655 741.209C768.142 741.442 767.563 741.559 766.919 741.559C766.182 741.559 765.528 741.4 764.959 741.083C764.39 740.766 763.942 740.313 763.615 739.725C763.298 739.128 763.139 738.428 763.139 737.625C763.139 736.822 763.298 736.122 763.615 735.525C763.942 734.928 764.39 734.47 764.959 734.153C765.528 733.836 766.182 733.677 766.919 733.677C767.666 733.677 768.314 733.836 768.865 734.153C769.425 734.47 769.85 734.895 770.139 735.427C770.438 735.959 770.587 736.547 770.587 737.191ZM769.299 737.275C769.327 736.706 769.234 736.23 769.019 735.847C768.804 735.464 768.51 735.18 768.137 734.993C767.764 734.806 767.358 734.713 766.919 734.713C766.219 734.713 765.631 734.932 765.155 735.371C764.679 735.8 764.422 736.435 764.385 737.275H769.299ZM773.527 735.329C773.779 734.797 774.148 734.386 774.633 734.097C775.119 733.798 775.697 733.649 776.369 733.649V735.035H775.977C775.259 735.035 774.671 735.222 774.213 735.595C773.756 735.959 773.527 736.566 773.527 737.415V741.461H772.253V733.775H773.527V735.329Z" fill="white"/>
</g>
<rect x="710.002" y="69.3066" width="25.385" height="25.385" rx="12.6925" stroke="#EDEDED" stroke-width="1.0577"/>
<mask id="mask1_220_23" style="mask-type:alpha" maskUnits="userSpaceOnUse" x="710" y="69" width="26" height="26">
<circle cx="722.694" cy="81.9991" r="12.6925" fill="#D9D9D9"/>
</mask>
<g mask="url(#mask1_220_23)">
<rect x="710.002" y="69.3066" width="25.385" height="25.385" fill="#DD2033"/>
<path d="M723.947 71L722.969 72.2145L721.485 72.0134L722.266 73.3317L721.589 74.7483L723.08 74.2353L724.115 75.4251L724.237 73.8598L725.572 73.1085L724.187 72.5408L723.947 71Z" fill="#F1B434"/>
<path d="M717.053 76.2164L715.897 78.8312L713.175 79.1792L715.183 81.1432L714.656 83.973L717.053 82.357L719.45 83.973L718.924 81.1432L720.931 79.1792L718.209 78.8312L717.053 76.2164Z" fill="#F1B434"/>
<path d="M725.433 77.8294L725.672 76.2885L726.651 77.503L728.134 77.302L727.353 78.6202L728.03 80.0368L726.539 79.5238L725.505 80.7136L725.383 79.1483L724.047 78.397L725.433 77.8294Z" fill="#F1B434"/>
<path d="M725.515 81.505L724.884 82.9312L723.399 83.121L724.495 84.1923L724.207 85.7358L725.515 84.8544L726.822 85.7358L726.535 84.1923L727.63 83.121L726.145 82.9312L725.515 81.505Z" fill="#F1B434"/>
<path d="M721.558 87.0224L722.537 85.8079L722.777 87.3487L724.162 87.9164L722.827 88.6677L722.704 90.2329L721.67 89.0432L720.179 89.5562L720.856 88.1396L720.075 86.8213L721.558 87.0224Z" fill="#F1B434"/>
</g>
<path d="M754.381 72.3923C756.801 72.3923 758.809 73.0156 760.404 74.2623C761.999 75.509 763.053 77.2048 763.566 79.3499H759.496C759.074 78.3049 758.414 77.4799 757.516 76.8748C756.636 76.2698 755.573 75.9673 754.326 75.9673C753.299 75.9673 752.373 76.224 751.548 76.7373C750.723 77.2507 750.082 77.984 749.623 78.9374C749.165 79.8907 748.936 81.0091 748.936 82.2924C748.936 83.5574 749.165 84.6666 749.623 85.6199C750.082 86.5733 750.723 87.3066 751.548 87.82C752.373 88.3333 753.299 88.59 754.326 88.59C755.573 88.59 756.636 88.2875 757.516 87.6825C758.414 87.0774 759.074 86.2524 759.496 85.2074H763.566C763.053 87.3525 761.999 89.0483 760.404 90.295C758.809 91.5417 756.801 92.165 754.381 92.165C752.529 92.165 750.888 91.7525 749.458 90.9275C748.047 90.0841 746.947 88.9108 746.158 87.4075C745.388 85.9041 745.003 84.1991 745.003 82.2924C745.003 80.3674 745.388 78.6532 746.158 77.1498C746.947 75.6465 748.047 74.4823 749.458 73.6573C750.87 72.814 752.511 72.3923 754.381 72.3923ZM779.813 86.6924C779.813 87.6825 779.565 88.5991 779.07 89.4425C778.575 90.2675 777.842 90.9367 776.87 91.45C775.899 91.945 774.716 92.1925 773.323 92.1925C771.948 92.1925 770.72 91.9633 769.638 91.505C768.556 91.0283 767.685 90.35 767.025 89.47C766.384 88.59 766.017 87.5633 765.925 86.3899H770.05C770.142 87.1783 770.454 87.8383 770.985 88.37C771.535 88.8833 772.26 89.14 773.158 89.14C773.965 89.14 774.579 88.9291 775 88.5075C775.44 88.0675 775.66 87.5083 775.66 86.8299C775.66 86.2249 775.486 85.7299 775.138 85.3449C774.79 84.9416 774.35 84.6208 773.818 84.3824C773.286 84.1441 772.553 83.8691 771.618 83.5574C770.408 83.1541 769.418 82.7599 768.648 82.3749C767.878 81.9716 767.218 81.3941 766.668 80.6424C766.136 79.8907 765.87 78.9099 765.87 77.6999C765.87 76.0315 766.466 74.7207 767.658 73.7673C768.868 72.7956 770.463 72.3098 772.443 72.3098C774.496 72.3098 776.128 72.8048 777.338 73.7948C778.566 74.7848 779.263 76.1048 779.428 77.7549H775.248C775.138 77.0582 774.845 76.4898 774.368 76.0498C773.891 75.5915 773.24 75.3623 772.415 75.3623C771.7 75.3623 771.123 75.5548 770.683 75.9398C770.243 76.3065 770.023 76.8473 770.023 77.5624C770.023 78.1307 770.188 78.6074 770.518 78.9924C770.866 79.359 771.297 79.6615 771.81 79.8999C772.342 80.1382 773.057 80.404 773.955 80.6974C775.202 81.1374 776.21 81.5499 776.98 81.9349C777.769 82.3199 778.438 82.8974 778.988 83.6674C779.538 84.4374 779.813 85.4458 779.813 86.6924ZM798.757 72.5848V92H794.852V83.5574H786.547V92H782.669V72.5848H786.547V80.4499H794.852V72.5848H798.757Z" fill="white"/>
<path d="M751.33 107.675C752.892 107.675 754.199 108.062 755.252 108.836C756.319 109.611 757.036 110.664 757.404 111.997H755.576C755.259 111.184 754.726 110.531 753.977 110.036C753.241 109.541 752.365 109.293 751.349 109.293C750.436 109.293 749.617 109.509 748.894 109.941C748.17 110.359 747.599 110.962 747.18 111.749C746.774 112.536 746.571 113.463 746.571 114.529C746.571 115.62 746.78 116.566 747.199 117.366C747.618 118.153 748.195 118.762 748.932 119.193C749.68 119.612 750.537 119.822 751.502 119.822C752.327 119.822 753.082 119.644 753.767 119.289C754.453 118.933 755.011 118.419 755.443 117.746C755.887 117.061 756.154 116.261 756.242 115.348H750.969V114.053H757.708V115.652C757.594 116.718 757.264 117.683 756.718 118.546C756.173 119.409 755.436 120.094 754.51 120.602C753.583 121.11 752.53 121.364 751.349 121.364C750.055 121.364 748.913 121.078 747.923 120.507C746.933 119.923 746.158 119.117 745.6 118.089C745.054 117.048 744.781 115.862 744.781 114.529C744.781 113.196 745.054 112.016 745.6 110.988C746.158 109.947 746.933 109.135 747.923 108.551C748.913 107.967 750.049 107.675 751.33 107.675ZM764.797 110.645C765.8 110.645 766.694 110.861 767.481 111.292C768.281 111.724 768.903 112.346 769.347 113.158C769.804 113.97 770.033 114.922 770.033 116.014C770.033 117.105 769.804 118.057 769.347 118.87C768.903 119.669 768.281 120.285 767.481 120.716C766.694 121.148 765.8 121.364 764.797 121.364C763.794 121.364 762.893 121.148 762.093 120.716C761.306 120.285 760.685 119.669 760.228 118.87C759.771 118.057 759.542 117.105 759.542 116.014C759.542 114.922 759.771 113.97 760.228 113.158C760.685 112.346 761.306 111.724 762.093 111.292C762.893 110.861 763.794 110.645 764.797 110.645ZM764.797 112.168C764.175 112.168 763.597 112.308 763.064 112.587C762.544 112.866 762.119 113.298 761.789 113.882C761.471 114.453 761.313 115.163 761.313 116.014C761.313 116.852 761.471 117.562 761.789 118.146C762.119 118.717 762.544 119.143 763.064 119.422C763.597 119.701 764.175 119.841 764.797 119.841C765.419 119.841 765.99 119.701 766.51 119.422C767.043 119.143 767.469 118.717 767.786 118.146C768.116 117.562 768.281 116.852 768.281 116.014C768.281 115.163 768.116 114.453 767.786 113.882C767.469 113.298 767.043 112.866 766.51 112.587C765.99 112.308 765.419 112.168 764.797 112.168ZM774.023 107.142V121.23H772.29V107.142H774.023ZM781.092 110.645C782.107 110.645 782.964 110.899 783.662 111.407C784.373 111.914 784.868 112.593 785.147 113.444V107.142H786.879V121.23H785.147V118.565C784.868 119.415 784.373 120.094 783.662 120.602C782.964 121.11 782.107 121.364 781.092 121.364C780.165 121.364 779.34 121.148 778.617 120.716C777.893 120.285 777.322 119.669 776.903 118.87C776.497 118.057 776.294 117.105 776.294 116.014C776.294 114.922 776.497 113.97 776.903 113.158C777.322 112.346 777.893 111.724 778.617 111.292C779.34 110.861 780.165 110.645 781.092 110.645ZM781.587 112.187C780.521 112.187 779.664 112.53 779.017 113.215C778.382 113.888 778.065 114.821 778.065 116.014C778.065 117.207 778.382 118.146 779.017 118.832C779.664 119.504 780.521 119.841 781.587 119.841C782.272 119.841 782.881 119.682 783.414 119.365C783.96 119.047 784.385 118.603 784.69 118.032C784.995 117.448 785.147 116.775 785.147 116.014C785.147 115.252 784.995 114.58 784.69 113.996C784.385 113.412 783.96 112.968 783.414 112.663C782.881 112.346 782.272 112.187 781.587 112.187Z" fill="white"/>
<g opacity="0.65">
<path d="M748.335 138.465C749.249 138.465 750.071 138.68 750.799 139.109C751.536 139.538 752.115 140.14 752.535 140.915C752.955 141.68 753.165 142.548 753.165 143.519C753.165 144.49 752.955 145.362 752.535 146.137C752.115 146.902 751.536 147.5 750.799 147.929C750.071 148.358 749.249 148.573 748.335 148.573C747.42 148.573 746.589 148.358 745.843 147.929C745.105 147.5 744.527 146.902 744.107 146.137C743.687 145.362 743.477 144.49 743.477 143.519C743.477 142.548 743.687 141.68 744.107 140.915C744.527 140.14 745.105 139.538 745.843 139.109C746.589 138.68 747.42 138.465 748.335 138.465ZM748.335 139.655C747.653 139.655 747.042 139.814 746.501 140.131C745.969 140.439 745.549 140.887 745.241 141.475C744.942 142.054 744.793 142.735 744.793 143.519C744.793 144.294 744.942 144.975 745.241 145.563C745.549 146.151 745.969 146.604 746.501 146.921C747.042 147.229 747.653 147.383 748.335 147.383C749.007 147.383 749.609 147.224 750.141 146.907C750.682 146.59 751.102 146.142 751.401 145.563C751.709 144.975 751.863 144.294 751.863 143.519C751.863 142.735 751.709 142.054 751.401 141.475C751.102 140.887 750.682 140.439 750.141 140.131C749.609 139.814 749.007 139.655 748.335 139.655ZM759.129 140.677C759.81 140.677 760.417 140.836 760.949 141.153C761.481 141.47 761.896 141.928 762.195 142.525C762.503 143.122 762.657 143.822 762.657 144.625C762.657 145.428 762.503 146.128 762.195 146.725C761.896 147.313 761.481 147.766 760.949 148.083C760.417 148.4 759.81 148.559 759.129 148.559C758.382 148.559 757.748 148.372 757.225 147.999C756.712 147.616 756.357 147.117 756.161 146.501V152.101H754.887V140.775H756.161V142.735C756.357 142.119 756.712 141.624 757.225 141.251C757.748 140.868 758.382 140.677 759.129 140.677ZM758.765 141.811C758.27 141.811 757.822 141.928 757.421 142.161C757.02 142.385 756.707 142.712 756.483 143.141C756.259 143.57 756.147 144.065 756.147 144.625C756.147 145.185 756.259 145.68 756.483 146.109C756.707 146.529 757.02 146.856 757.421 147.089C757.822 147.322 758.27 147.439 758.765 147.439C759.558 147.439 760.188 147.192 760.655 146.697C761.131 146.193 761.369 145.502 761.369 144.625C761.369 143.748 761.131 143.062 760.655 142.567C760.188 142.063 759.558 141.811 758.765 141.811ZM771.391 144.191C771.391 144.462 771.372 144.695 771.335 144.891H765.189C765.217 145.768 765.464 146.426 765.931 146.865C766.407 147.304 766.985 147.523 767.667 147.523C768.283 147.523 768.796 147.369 769.207 147.061C769.627 146.744 769.883 146.324 769.977 145.801H771.335C771.241 146.333 771.031 146.809 770.705 147.229C770.387 147.649 769.972 147.976 769.459 148.209C768.945 148.442 768.367 148.559 767.723 148.559C766.985 148.559 766.332 148.4 765.763 148.083C765.193 147.766 764.745 147.313 764.419 146.725C764.101 146.128 763.943 145.428 763.943 144.625C763.943 143.822 764.101 143.122 764.419 142.525C764.745 141.928 765.193 141.47 765.763 141.153C766.332 140.836 766.985 140.677 767.723 140.677C768.469 140.677 769.118 140.836 769.669 141.153C770.229 141.47 770.653 141.895 770.943 142.427C771.241 142.959 771.391 143.547 771.391 144.191ZM770.103 144.275C770.131 143.706 770.037 143.23 769.823 142.847C769.608 142.464 769.314 142.18 768.941 141.993C768.567 141.806 768.161 141.713 767.723 141.713C767.023 141.713 766.435 141.932 765.959 142.371C765.483 142.8 765.226 143.435 765.189 144.275H770.103ZM777.103 140.649C777.999 140.649 778.722 140.938 779.273 141.517C779.824 142.086 780.099 142.912 780.099 143.995V148.461H778.825V144.107C778.825 143.342 778.629 142.754 778.237 142.343C777.845 141.932 777.313 141.727 776.641 141.727C775.941 141.727 775.381 141.956 774.961 142.413C774.541 142.861 774.331 143.519 774.331 144.387V148.461H773.057V140.775H774.331V142.595C774.527 141.97 774.872 141.489 775.367 141.153C775.871 140.817 776.45 140.649 777.103 140.649ZM786.786 144.485V148.461H785.512V138.591H788.648C789.777 138.591 790.622 138.857 791.182 139.389C791.742 139.912 792.022 140.63 792.022 141.545C792.022 142.469 791.733 143.192 791.154 143.715C790.575 144.228 789.74 144.485 788.648 144.485H786.786ZM788.536 143.421C789.311 143.421 789.866 143.258 790.202 142.931C790.547 142.604 790.72 142.142 790.72 141.545C790.72 140.929 790.547 140.462 790.202 140.145C789.866 139.818 789.311 139.655 788.536 139.655H786.786V143.421H788.536ZM793.286 138.521C793.286 138.288 793.365 138.101 793.524 137.961C793.683 137.812 793.893 137.737 794.154 137.737C794.415 137.737 794.625 137.812 794.784 137.961C794.943 138.101 795.022 138.288 795.022 138.521C795.022 138.754 794.943 138.946 794.784 139.095C794.625 139.235 794.415 139.305 794.154 139.305C793.893 139.305 793.683 139.235 793.524 139.095C793.365 138.946 793.286 138.754 793.286 138.521ZM794.784 140.775V148.461H793.51V140.775H794.784ZM800.5 147.341V148.461H799.548C798.764 148.461 798.176 148.274 797.784 147.901C797.402 147.528 797.21 146.902 797.21 146.025V141.881H796.062V140.775H797.21V138.857H798.498V140.775H800.486V141.881H798.498V146.053C798.498 146.548 798.587 146.888 798.764 147.075C798.951 147.252 799.268 147.341 799.716 147.341H800.5ZM803.161 140.915V142.413H801.621V140.915H803.161ZM803.161 146.963V148.461H801.621V146.963H803.161ZM809.412 145.689C809.496 146.277 809.701 146.73 810.028 147.047C810.354 147.364 810.802 147.523 811.372 147.523C812.156 147.523 812.748 147.22 813.15 146.613C813.551 146.006 813.752 145.045 813.752 143.729C813.752 143.477 813.747 143.286 813.738 143.155C813.607 143.715 813.29 144.163 812.786 144.499C812.282 144.835 811.689 145.003 811.008 145.003C810.028 145.003 809.258 144.709 808.698 144.121C808.138 143.533 807.858 142.712 807.858 141.657C807.858 141.041 807.979 140.481 808.222 139.977C808.464 139.473 808.833 139.076 809.328 138.787C809.832 138.488 810.452 138.339 811.19 138.339C812.608 138.339 813.579 138.778 814.102 139.655C814.634 140.523 814.9 141.718 814.9 143.239C814.9 144.975 814.629 146.3 814.088 147.215C813.546 148.12 812.641 148.573 811.372 148.573C810.429 148.573 809.687 148.307 809.146 147.775C808.614 147.234 808.301 146.538 808.208 145.689H809.412ZM813.612 141.853C813.612 141.181 813.411 140.612 813.01 140.145C812.618 139.678 812.025 139.445 811.232 139.445C810.578 139.445 810.056 139.641 809.664 140.033C809.272 140.425 809.076 140.971 809.076 141.671C809.076 142.418 809.272 142.992 809.664 143.393C810.056 143.794 810.592 143.995 811.274 143.995C811.666 143.995 812.039 143.916 812.394 143.757C812.758 143.598 813.052 143.356 813.276 143.029C813.5 142.702 813.612 142.31 813.612 141.853ZM817.271 147.173C816.748 146.286 816.487 145.05 816.487 143.463C816.487 141.886 816.748 140.658 817.271 139.781C817.794 138.894 818.699 138.451 819.987 138.451C821.275 138.451 822.18 138.894 822.703 139.781C823.235 140.668 823.501 141.895 823.501 143.463C823.501 145.05 823.235 146.286 822.703 147.173C822.18 148.06 821.275 148.503 819.987 148.503C818.699 148.503 817.794 148.06 817.271 147.173ZM822.059 145.507C822.18 144.956 822.241 144.275 822.241 143.463C822.241 142.66 822.18 141.988 822.059 141.447C821.947 140.906 821.728 140.476 821.401 140.159C821.074 139.832 820.603 139.669 819.987 139.669C819.38 139.669 818.914 139.832 818.587 140.159C818.26 140.476 818.036 140.906 817.915 141.447C817.803 141.988 817.747 142.66 817.747 143.463C817.747 144.275 817.803 144.956 817.915 145.507C818.036 146.048 818.26 146.482 818.587 146.809C818.914 147.136 819.38 147.299 819.987 147.299C820.603 147.299 821.074 147.136 821.401 146.809C821.728 146.482 821.947 146.048 822.059 145.507ZM826.053 147.523C826.183 147.934 826.249 148.316 826.249 148.671C826.249 149.156 826.127 149.544 825.885 149.833C825.642 150.132 825.278 150.281 824.793 150.281V149.735C825.026 149.735 825.194 149.67 825.297 149.539C825.409 149.418 825.465 149.222 825.465 148.951V148.825H824.751V147.523H826.053ZM828.318 147.173C827.795 146.286 827.534 145.05 827.534 143.463C827.534 141.886 827.795 140.658 828.318 139.781C828.841 138.894 829.746 138.451 831.034 138.451C832.322 138.451 833.227 138.894 833.75 139.781C834.282 140.668 834.548 141.895 834.548 143.463C834.548 145.05 834.282 146.286 833.75 147.173C833.227 148.06 832.322 148.503 831.034 148.503C829.746 148.503 828.841 148.06 828.318 147.173ZM833.106 145.507C833.227 144.956 833.288 144.275 833.288 143.463C833.288 142.66 833.227 141.988 833.106 141.447C832.994 140.906 832.775 140.476 832.448 140.159C832.121 139.832 831.65 139.669 831.034 139.669C830.427 139.669 829.961 139.832 829.634 140.159C829.307 140.476 829.083 140.906 828.962 141.447C828.85 141.988 828.794 142.66 828.794 143.463C828.794 144.275 828.85 144.956 828.962 145.507C829.083 146.048 829.307 146.482 829.634 146.809C829.961 147.136 830.427 147.299 831.034 147.299C831.65 147.299 832.121 147.136 832.448 146.809C832.775 146.482 832.994 146.048 833.106 145.507ZM836.918 147.173C836.395 146.286 836.134 145.05 836.134 143.463C836.134 141.886 836.395 140.658 836.918 139.781C837.44 138.894 838.346 138.451 839.634 138.451C840.922 138.451 841.827 138.894 842.35 139.781C842.882 140.668 843.148 141.895 843.148 143.463C843.148 145.05 842.882 146.286 842.35 147.173C841.827 148.06 840.922 148.503 839.634 148.503C838.346 148.503 837.44 148.06 836.918 147.173ZM841.706 145.507C841.827 144.956 841.888 144.275 841.888 143.463C841.888 142.66 841.827 141.988 841.706 141.447C841.594 140.906 841.374 140.476 841.048 140.159C840.721 139.832 840.25 139.669 839.634 139.669C839.027 139.669 838.56 139.832 838.234 140.159C837.907 140.476 837.683 140.906 837.562 141.447C837.45 141.988 837.394 142.66 837.394 143.463C837.394 144.275 837.45 144.956 837.562 145.507C837.683 146.048 837.907 146.482 838.234 146.809C838.56 147.136 839.027 147.299 839.634 147.299C840.25 147.299 840.721 147.136 841.048 146.809C841.374 146.482 841.594 146.048 841.706 145.507ZM845.517 147.173C844.995 146.286 844.733 145.05 844.733 143.463C844.733 141.886 844.995 140.658 845.517 139.781C846.04 138.894 846.945 138.451 848.233 138.451C849.521 138.451 850.427 138.894 850.949 139.781C851.481 140.668 851.747 141.895 851.747 143.463C851.747 145.05 851.481 146.286 850.949 147.173C850.427 148.06 849.521 148.503 848.233 148.503C846.945 148.503 846.04 148.06 845.517 147.173ZM850.305 145.507C850.427 144.956 850.487 144.275 850.487 143.463C850.487 142.66 850.427 141.988 850.305 141.447C850.193 140.906 849.974 140.476 849.647 140.159C849.321 139.832 848.849 139.669 848.233 139.669C847.627 139.669 847.16 139.832 846.833 140.159C846.507 140.476 846.283 140.906 846.161 141.447C846.049 141.988 845.993 142.66 845.993 143.463C845.993 144.275 846.049 144.956 846.161 145.507C846.283 146.048 846.507 146.482 846.833 146.809C847.16 147.136 847.627 147.299 848.233 147.299C848.849 147.299 849.321 147.136 849.647 146.809C849.974 146.482 850.193 146.048 850.305 145.507ZM860.684 147.341V148.461H859.732C858.948 148.461 858.36 148.274 857.968 147.901C857.585 147.528 857.394 146.902 857.394 146.025V141.881H856.246V140.775H857.394V138.857H858.682V140.775H860.67V141.881H858.682V146.053C858.682 146.548 858.771 146.888 858.948 147.075C859.135 147.252 859.452 147.341 859.9 147.341H860.684ZM866.481 140.677C867.162 140.677 867.769 140.836 868.301 141.153C868.833 141.47 869.248 141.928 869.547 142.525C869.855 143.122 870.009 143.822 870.009 144.625C870.009 145.428 869.855 146.128 869.547 146.725C869.248 147.313 868.833 147.766 868.301 148.083C867.769 148.4 867.162 148.559 866.481 148.559C865.734 148.559 865.099 148.372 864.577 147.999C864.063 147.616 863.709 147.117 863.513 146.501V152.101H862.239V140.775H863.513V142.735C863.709 142.119 864.063 141.624 864.577 141.251C865.099 140.868 865.734 140.677 866.481 140.677ZM866.117 141.811C865.622 141.811 865.174 141.928 864.773 142.161C864.371 142.385 864.059 142.712 863.835 143.141C863.611 143.57 863.499 144.065 863.499 144.625C863.499 145.185 863.611 145.68 863.835 146.109C864.059 146.529 864.371 146.856 864.773 147.089C865.174 147.322 865.622 147.439 866.117 147.439C866.91 147.439 867.54 147.192 868.007 146.697C868.483 146.193 868.721 145.502 868.721 144.625C868.721 143.748 868.483 143.062 868.007 142.567C867.54 142.063 866.91 141.811 866.117 141.811ZM874.822 140.677C875.569 140.677 876.199 140.864 876.712 141.237C877.235 141.61 877.599 142.11 877.804 142.735V138.101H879.078V148.461H877.804V146.501C877.599 147.126 877.235 147.626 876.712 147.999C876.199 148.372 875.569 148.559 874.822 148.559C874.141 148.559 873.534 148.4 873.002 148.083C872.47 147.766 872.05 147.313 871.742 146.725C871.443 146.128 871.294 145.428 871.294 144.625C871.294 143.822 871.443 143.122 871.742 142.525C872.05 141.928 872.47 141.47 873.002 141.153C873.534 140.836 874.141 140.677 874.822 140.677ZM875.186 141.811C874.402 141.811 873.772 142.063 873.296 142.567C872.829 143.062 872.596 143.748 872.596 144.625C872.596 145.502 872.829 146.193 873.296 146.697C873.772 147.192 874.402 147.439 875.186 147.439C875.69 147.439 876.138 147.322 876.53 147.089C876.931 146.856 877.244 146.529 877.468 146.109C877.692 145.68 877.804 145.185 877.804 144.625C877.804 144.065 877.692 143.57 877.468 143.141C877.244 142.712 876.931 142.385 876.53 142.161C876.138 141.928 875.69 141.811 875.186 141.811ZM751.387 159.591V169.461H750.099V164.897H745.087V169.461H743.813V159.591H745.087V163.861H750.099V159.591H751.387ZM760.494 165.191C760.494 165.462 760.475 165.695 760.438 165.891H754.292C754.32 166.768 754.567 167.426 755.034 167.865C755.51 168.304 756.089 168.523 756.77 168.523C757.386 168.523 757.899 168.369 758.31 168.061C758.73 167.744 758.987 167.324 759.08 166.801H760.438C760.345 167.333 760.135 167.809 759.808 168.229C759.491 168.649 759.075 168.976 758.562 169.209C758.049 169.442 757.47 169.559 756.826 169.559C756.089 169.559 755.435 169.4 754.866 169.083C754.297 168.766 753.849 168.313 753.522 167.725C753.205 167.128 753.046 166.428 753.046 165.625C753.046 164.822 753.205 164.122 753.522 163.525C753.849 162.928 754.297 162.47 754.866 162.153C755.435 161.836 756.089 161.677 756.826 161.677C757.573 161.677 758.221 161.836 758.772 162.153C759.332 162.47 759.757 162.895 760.046 163.427C760.345 163.959 760.494 164.547 760.494 165.191ZM759.206 165.275C759.234 164.706 759.141 164.23 758.926 163.847C758.711 163.464 758.417 163.18 758.044 162.993C757.671 162.806 757.265 162.713 756.826 162.713C756.126 162.713 755.538 162.932 755.062 163.371C754.586 163.8 754.329 164.435 754.292 165.275H759.206ZM765.31 161.677C766.057 161.677 766.687 161.864 767.2 162.237C767.723 162.61 768.087 163.11 768.292 163.735V161.775H769.566V169.461H768.292V167.501C768.087 168.126 767.723 168.626 767.2 168.999C766.687 169.372 766.057 169.559 765.31 169.559C764.629 169.559 764.022 169.4 763.49 169.083C762.958 168.766 762.538 168.313 762.23 167.725C761.932 167.128 761.782 166.428 761.782 165.625C761.782 164.822 761.932 164.122 762.23 163.525C762.538 162.928 762.958 162.47 763.49 162.153C764.022 161.836 764.629 161.677 765.31 161.677ZM765.674 162.811C764.89 162.811 764.26 163.063 763.784 163.567C763.318 164.062 763.084 164.748 763.084 165.625C763.084 166.502 763.318 167.193 763.784 167.697C764.26 168.192 764.89 168.439 765.674 168.439C766.178 168.439 766.626 168.322 767.018 168.089C767.42 167.856 767.732 167.529 767.956 167.109C768.18 166.68 768.292 166.185 768.292 165.625C768.292 165.065 768.18 164.57 767.956 164.141C767.732 163.712 767.42 163.385 767.018 163.161C766.626 162.928 766.178 162.811 765.674 162.811ZM775.836 161.677C776.517 161.677 777.124 161.836 777.656 162.153C778.188 162.47 778.603 162.928 778.902 163.525C779.21 164.122 779.364 164.822 779.364 165.625C779.364 166.428 779.21 167.128 778.902 167.725C778.603 168.313 778.188 168.766 777.656 169.083C777.124 169.4 776.517 169.559 775.836 169.559C775.089 169.559 774.455 169.372 773.932 168.999C773.419 168.616 773.064 168.117 772.868 167.501V173.101H771.594V161.775H772.868V163.735C773.064 163.119 773.419 162.624 773.932 162.251C774.455 161.868 775.089 161.677 775.836 161.677ZM775.472 162.811C774.977 162.811 774.529 162.928 774.128 163.161C773.727 163.385 773.414 163.712 773.19 164.141C772.966 164.57 772.854 165.065 772.854 165.625C772.854 166.185 772.966 166.68 773.19 167.109C773.414 167.529 773.727 167.856 774.128 168.089C774.529 168.322 774.977 168.439 775.472 168.439C776.265 168.439 776.895 168.192 777.362 167.697C777.838 167.193 778.076 166.502 778.076 165.625C778.076 164.748 777.838 164.062 777.362 163.567C776.895 163.063 776.265 162.811 775.472 162.811ZM785.761 168.467H789.261V169.461H784.487V159.591H785.761V168.467ZM797.627 165.191C797.627 165.462 797.608 165.695 797.571 165.891H791.425C791.453 166.768 791.7 167.426 792.167 167.865C792.643 168.304 793.222 168.523 793.903 168.523C794.519 168.523 795.032 168.369 795.443 168.061C795.863 167.744 796.12 167.324 796.213 166.801H797.571C797.478 167.333 797.268 167.809 796.941 168.229C796.624 168.649 796.208 168.976 795.695 169.209C795.182 169.442 794.603 169.559 793.959 169.559C793.222 169.559 792.568 169.4 791.999 169.083C791.43 168.766 790.982 168.313 790.655 167.725C790.338 167.128 790.179 166.428 790.179 165.625C790.179 164.822 790.338 164.122 790.655 163.525C790.982 162.928 791.43 162.47 791.999 162.153C792.568 161.836 793.222 161.677 793.959 161.677C794.706 161.677 795.354 161.836 795.905 162.153C796.465 162.47 796.89 162.895 797.179 163.427C797.478 163.959 797.627 164.547 797.627 165.191ZM796.339 165.275C796.367 164.706 796.274 164.23 796.059 163.847C795.844 163.464 795.55 163.18 795.177 162.993C794.804 162.806 794.398 162.713 793.959 162.713C793.259 162.713 792.671 162.932 792.195 163.371C791.719 163.8 791.462 164.435 791.425 165.275H796.339ZM802.443 161.677C803.19 161.677 803.82 161.864 804.333 162.237C804.856 162.61 805.22 163.11 805.425 163.735V161.775H806.699V169.461H805.425V167.501C805.22 168.126 804.856 168.626 804.333 168.999C803.82 169.372 803.19 169.559 802.443 169.559C801.762 169.559 801.155 169.4 800.623 169.083C800.091 168.766 799.671 168.313 799.363 167.725C799.065 167.128 798.915 166.428 798.915 165.625C798.915 164.822 799.065 164.122 799.363 163.525C799.671 162.928 800.091 162.47 800.623 162.153C801.155 161.836 801.762 161.677 802.443 161.677ZM802.807 162.811C802.023 162.811 801.393 163.063 800.917 163.567C800.451 164.062 800.217 164.748 800.217 165.625C800.217 166.502 800.451 167.193 800.917 167.697C801.393 168.192 802.023 168.439 802.807 168.439C803.311 168.439 803.759 168.322 804.151 168.089C804.553 167.856 804.865 167.529 805.089 167.109C805.313 166.68 805.425 166.185 805.425 165.625C805.425 165.065 805.313 164.57 805.089 164.141C804.865 163.712 804.553 163.385 804.151 163.161C803.759 162.928 803.311 162.811 802.807 162.811ZM812.129 161.677C813.109 161.677 813.921 161.938 814.565 162.461C815.209 162.984 815.605 163.684 815.755 164.561H814.411C814.317 164.01 814.061 163.581 813.641 163.273C813.23 162.956 812.717 162.797 812.101 162.797C811.653 162.797 811.242 162.9 810.869 163.105C810.505 163.31 810.211 163.628 809.987 164.057C809.763 164.477 809.651 165 809.651 165.625C809.651 166.25 809.763 166.778 809.987 167.207C810.211 167.627 810.505 167.94 810.869 168.145C811.242 168.35 811.653 168.453 812.101 168.453C812.717 168.453 813.23 168.294 813.641 167.977C814.061 167.66 814.317 167.226 814.411 166.675H815.755C815.605 167.562 815.209 168.266 814.565 168.789C813.921 169.302 813.109 169.559 812.129 169.559C811.391 169.559 810.738 169.4 810.169 169.083C809.599 168.766 809.151 168.313 808.825 167.725C808.507 167.128 808.349 166.428 808.349 165.625C808.349 164.822 808.507 164.122 808.825 163.525C809.151 162.928 809.599 162.47 810.169 162.153C810.738 161.836 811.391 161.677 812.129 161.677ZM821.468 161.649C822.364 161.649 823.087 161.938 823.638 162.517C824.189 163.086 824.464 163.912 824.464 164.995V169.461H823.19V165.107C823.19 164.342 822.994 163.754 822.602 163.343C822.21 162.932 821.678 162.727 821.006 162.727C820.306 162.727 819.746 162.956 819.326 163.413C818.906 163.861 818.696 164.519 818.696 165.387V169.461H817.422V159.101H818.696V163.595C818.892 162.97 819.237 162.489 819.732 162.153C820.236 161.817 820.815 161.649 821.468 161.649ZM827.16 168.523C827.291 168.934 827.356 169.316 827.356 169.671C827.356 170.156 827.235 170.544 826.992 170.833C826.75 171.132 826.386 171.281 825.9 171.281V170.735C826.134 170.735 826.302 170.67 826.404 170.539C826.516 170.418 826.572 170.222 826.572 169.951V169.825H825.858V168.523H827.16ZM838.106 167.179H833.766L832.94 169.461H831.568L835.222 159.773H836.664L840.304 169.461H838.932L838.106 167.179ZM837.742 166.185L835.936 161.201L834.13 166.185H837.742ZM849.91 164.519C849.91 165.518 849.709 166.39 849.308 167.137C848.907 167.874 848.314 168.448 847.53 168.859C846.755 169.26 845.822 169.461 844.73 169.461H841.594V159.591H844.73C845.822 159.591 846.755 159.792 847.53 160.193C848.314 160.585 848.907 161.154 849.308 161.901C849.709 162.638 849.91 163.511 849.91 164.519ZM844.632 168.313C845.92 168.313 846.905 167.982 847.586 167.319C848.267 166.656 848.608 165.723 848.608 164.519C848.608 163.315 848.267 162.382 847.586 161.719C846.914 161.047 845.929 160.711 844.632 160.711H842.868V168.313H844.632ZM856.865 169.461L854.289 165.429H852.903V169.461H851.629V159.591H854.877C855.997 159.591 856.837 159.862 857.397 160.403C857.957 160.935 858.237 161.644 858.237 162.531C858.237 163.334 858.013 163.982 857.565 164.477C857.117 164.962 856.468 165.266 855.619 165.387L858.307 169.461H856.865ZM852.903 164.505H854.765C856.212 164.505 856.935 163.87 856.935 162.601C856.935 161.332 856.212 160.697 854.765 160.697H852.903V164.505ZM860.533 168.523C860.664 168.934 860.729 169.316 860.729 169.671C860.729 170.156 860.608 170.544 860.365 170.833C860.123 171.132 859.759 171.281 859.273 171.281V170.735C859.507 170.735 859.675 170.67 859.777 170.539C859.889 170.418 859.945 170.222 859.945 169.951V169.825H859.231V168.523H860.533ZM870.065 159.493C871.269 159.493 872.263 159.792 873.047 160.389C873.831 160.977 874.373 161.784 874.671 162.811H873.327C873.075 162.158 872.669 161.64 872.109 161.257C871.549 160.865 870.863 160.669 870.051 160.669C869.407 160.669 868.829 160.828 868.315 161.145C867.811 161.453 867.41 161.901 867.111 162.489C866.822 163.068 866.677 163.749 866.677 164.533C866.677 165.308 866.822 165.984 867.111 166.563C867.41 167.142 867.811 167.59 868.315 167.907C868.829 168.215 869.407 168.369 870.051 168.369C870.863 168.369 871.549 168.178 872.109 167.795C872.669 167.403 873.075 166.88 873.327 166.227H874.671C874.373 167.254 873.831 168.066 873.047 168.663C872.263 169.251 871.269 169.545 870.065 169.545C869.141 169.545 868.325 169.335 867.615 168.915C866.906 168.486 866.351 167.893 865.949 167.137C865.557 166.372 865.361 165.504 865.361 164.533C865.361 163.553 865.557 162.68 865.949 161.915C866.351 161.15 866.906 160.557 867.615 160.137C868.325 159.708 869.141 159.493 870.065 159.493ZM877.649 159.591V169.461H876.375V159.591H877.649ZM884.065 159.493C885.269 159.493 886.263 159.792 887.047 160.389C887.831 160.977 888.373 161.784 888.671 162.811H887.327C887.075 162.158 886.669 161.64 886.109 161.257C885.549 160.865 884.863 160.669 884.051 160.669C883.407 160.669 882.829 160.828 882.315 161.145C881.811 161.453 881.41 161.901 881.111 162.489C880.822 163.068 880.677 163.749 880.677 164.533C880.677 165.308 880.822 165.984 881.111 166.563C881.41 167.142 881.811 167.59 882.315 167.907C882.829 168.215 883.407 168.369 884.051 168.369C884.863 168.369 885.549 168.178 886.109 167.795C886.669 167.403 887.075 166.88 887.327 166.227H888.671C888.373 167.254 887.831 168.066 887.047 168.663C886.263 169.251 885.269 169.545 884.065 169.545C883.141 169.545 882.325 169.335 881.615 168.915C880.906 168.486 880.351 167.893 879.949 167.137C879.557 166.372 879.361 165.504 879.361 164.533C879.361 163.553 879.557 162.68 879.949 161.915C880.351 161.15 880.906 160.557 881.615 160.137C882.325 159.708 883.141 159.493 884.065 159.493Z" fill="white"/>
</g>
<path d="M473.393 519.588L573.535 775.999L819.002 775.999" stroke="url(#paint0_linear_220_23)" stroke-width="1.0577"/>
<ellipse cx="485.388" cy="455.387" rx="7.38673" ry="7.38671" fill="white"/>
<ellipse cx="411.388" cy="325.387" rx="7.38673" ry="7.38671" fill="white"/>
<ellipse opacity="0.6" cx="3.50001" cy="7" rx="3.50001" ry="7" transform="matrix(0.926992 0.375082 -0.375083 0.926991 100.653 290.887)" fill="white"/>
<ellipse opacity="0.7" cx="4.00001" cy="7" rx="4.00001" ry="7" transform="matrix(0.907896 0.419197 -0.419198 0.907895 715.871 503)" fill="white"/>
<path d="M694.029 309.73L741.502 203L912.439 203" stroke="url(#paint1_linear_220_23)" stroke-width="0.902148"/>
</g>
<defs>
<linearGradient id="paint0_linear_220_23" x1="540.269" y1="611.136" x2="853.502" y2="609.5" gradientUnits="userSpaceOnUse">
<stop offset="0.166283" stop-color="white"/>
<stop offset="1" stop-color="white" stop-opacity="0"/>
</linearGradient>
<linearGradient id="paint1_linear_220_23" x1="674.712" y1="228.154" x2="894.736" y2="228.154" gradientUnits="userSpaceOnUse">
<stop offset="0.166283" stop-color="white"/>
<stop offset="1" stop-color="white" stop-opacity="0"/>
</linearGradient>
<clipPath id="clip0_220_23">
<rect width="970" height="894" fill="white"/>
</clipPath>
</defs>
</svg>
