<svg width="9" height="16" viewBox="0 0 9 16" fill="none" xmlns="http://www.w3.org/2000/svg">
<path d="M0.601042 15.0677C0.356597 14.8233 0.234375 14.5122 0.234375 14.1344C0.234375 13.7566 0.356597 13.4455 0.601042 13.2011L5.80104 8.00108L0.601042 2.80108C0.356597 2.55664 0.234375 2.24553 0.234375 1.86775C0.234375 1.48997 0.356597 1.17886 0.601042 0.934416C0.845486 0.689971 1.1566 0.567749 1.53438 0.567749C1.91215 0.567749 2.22326 0.689971 2.46771 0.934416L8.60104 7.06775C8.73438 7.20108 8.82882 7.34553 8.88438 7.50108C8.93993 7.65664 8.96771 7.82331 8.96771 8.00108C8.96771 8.17886 8.93993 8.34553 8.88438 8.50108C8.82882 8.65664 8.73438 8.80108 8.60104 8.93442L2.46771 15.0677C2.22326 15.3122 1.91215 15.4344 1.53438 15.4344C1.1566 15.4344 0.845486 15.3122 0.601042 15.0677Z" fill="#151515"/>
</svg>
