<svg width="41" height="35" viewBox="0 0 41 35" fill="none" xmlns="http://www.w3.org/2000/svg">
<path opacity="0.1" d="M2.04 34.85C0.680001 28.8433 0 23.63 0 19.21C0 12.8633 1.47333 8.10334 4.42 4.93C7.36667 1.64333 11.6733 0 17.34 0V6.8C14.3933 6.8 12.24 7.59334 10.88 9.18C9.63333 10.7667 9.01 13.1467 9.01 16.32V20.23H17.51V34.85H2.04ZM24.99 34.85C23.63 28.8433 22.95 23.63 22.95 19.21C22.95 12.8633 24.4233 8.10334 27.37 4.93C30.3167 1.64333 34.6233 0 40.29 0V6.8C37.3433 6.8 35.19 7.59334 33.83 9.18C32.5833 10.7667 31.96 13.1467 31.96 16.32V20.23H40.46V34.85H24.99Z" fill="#5B5B5B"/>
</svg>
