<svg width="3191" height="774" viewBox="0 0 3191 774" fill="none" xmlns="http://www.w3.org/2000/svg">
<g opacity="0.1">
<path d="M771.462 675.764L959.499 157.895H1174.87L1256.8 469.533L1549.43 157.895H1764.04L1574.05 681.866H1390.76L1470.66 462.509L1266.94 675.764H1089.03L1033.64 454.688L953.264 675.764H771.462Z" fill="#A0A0A0"/>
<path d="M1633.73 675.764L1753.88 345.371H1945.87L1878.01 532.822H2131.62C2138.89 532.822 2143.56 531.377 2145.65 528.488C2147.71 525.624 2149.5 522.137 2151.1 518.002L2220.6 324.997C2222.63 316.702 2224.24 310.575 2225.27 306.665C2226.3 302.754 2223.16 300.812 2215.9 300.812H1770.33L1821.82 157.895H2333.71C2355.03 157.895 2372.45 163.125 2386.01 173.511C2399.51 183.947 2409.41 197.073 2415.67 212.964C2421.88 228.905 2424.73 246.713 2424.25 266.44C2423.72 286.266 2420.07 305.494 2413.29 324.249L2345.45 510.181C2338.66 528.911 2328.51 548.04 2315.03 567.542C2301.48 587.069 2285.71 604.803 2267.81 620.694C2249.81 636.635 2230.35 649.761 2209.26 660.147C2188.19 670.533 2166.97 675.764 2145.67 675.764H1633.73V675.764Z" fill="#A0A0A0"/>
<path d="M2471.01 324.249C2477.82 305.494 2488.03 286.266 2501.86 266.44C2515.66 246.713 2531.65 228.805 2549.88 212.964C2568.11 197.073 2587.57 183.947 2608.36 173.511C2629.18 163.125 2650.25 157.895 2671.59 157.895H3079.7C3100.47 157.895 3117.69 163.125 3131.21 173.511C3144.74 183.947 3154.72 197.223 3161.18 213.363C3167.75 229.552 3170.89 247.311 3170.61 266.863C3170.31 286.366 3166.84 305.519 3160.03 324.274L3092.92 509.434C3086.16 528.164 3075.75 547.392 3061.72 567.144C3047.69 586.995 3031.58 604.828 3013.32 620.694C2995.15 636.635 2975.48 649.761 2954.42 660.147C2933.35 670.533 2912.4 675.764 2891.61 675.764H2483.48C2462.13 675.764 2444.89 670.533 2431.61 660.147C2418.41 649.761 2408.63 636.436 2402.37 620.271C2396.14 604.131 2393.14 586.372 2393.4 566.77C2393.67 547.318 2397.14 528.139 2403.93 509.409L2471.01 324.249ZM2684.04 301.584C2677.8 301.584 2673.38 303.85 2670.79 308.259C2668.17 312.717 2665.56 318.247 2662.94 325.021L2593.53 517.23C2591.97 521.389 2591.16 525.026 2591.16 528.139C2591.16 530.754 2594.81 532.025 2602.13 532.025H2879.12C2885.35 532.025 2889.8 529.933 2892.39 525.748C2894.98 521.614 2897.09 517.479 2898.65 513.245L2967.29 323.452C2969.9 315.656 2971.34 310.102 2971.61 306.665C2971.84 303.327 2968.32 301.584 2961.08 301.584H2684.04V301.584Z" fill="#A0A0A0"/>
<path d="M409.891 732.162L173.027 773.483L0 599.482L82.9184 369.091L326.47 322.34L246.769 543.864L409.891 732.162Z" fill="#5A97D1"/>
<path d="M746.112 427.705L583.443 252.857L333.858 305.959L427.311 46.2027L687.103 0L834.461 181.598L746.112 427.705Z" fill="#A0A0A0"/>
<path d="M269.05 540.801L491.808 497.239L573.621 269.861L738.402 446.627L655.433 677.218L423.648 716.222L269.05 540.801Z" fill="#92C53E"/>
</g>
</svg>
