<svg width="24" height="17" viewBox="0 0 24 17" fill="none" xmlns="http://www.w3.org/2000/svg">
<path d="M1 17C0.716667 17 0.479167 16.9042 0.2875 16.7125C0.0958333 16.5208 0 16.2833 0 16C0 15.7167 0.0958333 15.4792 0.2875 15.2875C0.479167 15.0958 0.716667 15 1 15H4V14C3.45 14 2.97917 13.8042 2.5875 13.4125C2.19583 13.0208 2 12.55 2 12V2C2 1.45 2.19583 0.979167 2.5875 0.5875C2.97917 0.195833 3.45 0 4 0H20C20.55 0 21.0208 0.195833 21.4125 0.5875C21.8042 0.979167 22 1.45 22 2V12C22 12.55 21.8042 13.0208 21.4125 13.4125C21.0208 13.8042 20.55 14 20 14V15H23C23.2833 15 23.5208 15.0958 23.7125 15.2875C23.9042 15.4792 24 15.7167 24 16C24 16.2833 23.9042 16.5208 23.7125 16.7125C23.5208 16.9042 23.2833 17 23 17H1ZM4 12H20V2H4V12Z" fill="#424652"/>
</svg>
